<?xml version="1.0" encoding="UTF-8"?>
<svg version="1.1" xmlns="http://www.w3.org/2000/svg" width="453" height="181">
<path d="M0 0 C17.20539258 14.30758993 27.81980721 33.7808963 30.6628418 55.98364258 C32.80689227 80.0211662 25.94738682 102.49056812 10.56518555 120.96801758 C-3.78710522 137.52645906 -24.17812489 148.20847015 -46.05981445 150.09301758 C-69.94402672 151.66287191 -92.15076819 144.13739584 -110.3996582 128.59301758 C-127.72116052 112.31436635 -136.72894093 91.8489812 -138.2434082 68.22973633 C-138.86180151 43.67588441 -129.68056815 22.6425781 -113.05981445 5.09301758 C-82.67850798 -25.62837815 -33.23547058 -26.65995321 0 0 Z " fill="#D8E5C6" transform="translate(141.059814453125,22.906982421875)"/>
<path d="M0 0 C1.56890739 -0.01292336 1.56890739 -0.01292336 3.16950989 -0.02610779 C6.63026611 -0.04882818 10.09021653 -0.04201717 13.55102539 -0.03295898 C15.95471946 -0.03819203 18.35841147 -0.04446733 20.76210022 -0.05174255 C25.80178484 -0.06215816 30.84118731 -0.05756863 35.88085938 -0.04296875 C42.34204222 -0.02578394 48.80233559 -0.04926754 55.26341915 -0.08445835 C60.22797042 -0.10641021 65.19230816 -0.10499605 70.15689278 -0.09669304 C72.53914935 -0.09587223 74.9214214 -0.10276023 77.30363274 -0.11746407 C80.63396877 -0.1348671 83.96269765 -0.12040066 87.29296875 -0.09765625 C88.27858795 -0.10934845 89.26420715 -0.12104065 90.2796936 -0.13308716 C94.68498534 -0.07181756 97.06395289 0.11302851 100.82287598 2.55470276 C103.22950006 6.35107874 103.40857916 9.46439011 103.34228516 13.82446289 C103.34944046 14.64621506 103.35659576 15.46796722 103.3639679 16.31462097 C103.38083897 19.02354999 103.36146255 21.7308203 103.34008789 24.43969727 C103.34091674 26.32629534 103.34337672 28.21289334 103.34739685 30.0994873 C103.35025376 34.05051449 103.33556418 38.00097444 103.30810547 41.9519043 C103.27402286 47.01291801 103.2800419 52.07291754 103.29876804 57.1339798 C103.30934354 61.02883333 103.30039522 64.92345143 103.28538322 68.81828308 C103.28020499 70.68417156 103.28067887 72.55008465 103.28692818 74.41596985 C103.29238706 77.02532702 103.2719847 79.63323919 103.24462891 82.24243164 C103.25115479 83.01141281 103.25768066 83.78039398 103.2644043 84.57267761 C103.20434905 87.94653746 102.75223333 90.44506477 101.32762146 93.51219177 C97.24250957 96.66802773 93.34210078 96.22341665 88.31469727 96.16455078 C87.25739914 96.17170609 86.20010101 96.17886139 85.11076355 96.18623352 C81.612548 96.20315523 78.11560763 96.18369627 74.61743164 96.16235352 C72.18892307 96.16318189 69.76041456 96.16564006 67.33190918 96.16966248 C62.24087662 96.17252288 57.15028341 96.15779481 52.05932617 96.13037109 C45.52862275 96.09628866 38.9987052 96.10230465 32.46796417 96.12103367 C27.45283441 96.13159459 22.43788798 96.12267395 17.42277527 96.10764885 C15.01458785 96.10245995 12.60638134 96.10295738 10.19819641 96.1091938 C6.83426644 96.11463478 3.47146721 96.09430503 0.10766602 96.06689453 C-0.8908992 96.07342041 -1.88946442 96.07994629 -2.91828918 96.08666992 C-9.4877866 95.99549656 -9.4877866 95.99549656 -12.90625 94.02366638 C-14.88643178 90.45705321 -14.84698405 87.13081959 -14.80639648 83.15649414 C-14.81340576 82.31377457 -14.82041504 81.47105499 -14.82763672 80.60279846 C-14.84523281 77.81892891 -14.83358845 75.03607704 -14.82006836 72.25219727 C-14.82276281 70.31693324 -14.82664485 68.38167053 -14.83166504 66.44641113 C-14.83756227 62.39114488 -14.82898986 58.33623113 -14.81030273 54.28100586 C-14.7875131 49.08201795 -14.80063497 43.88385598 -14.82459259 38.68489838 C-14.83904446 34.68888115 -14.83444737 30.69305986 -14.82408142 26.69703674 C-14.82141245 24.78007408 -14.82468988 22.86309365 -14.83399963 20.94615173 C-14.84415518 18.26708844 -14.82867863 15.58936392 -14.80639648 12.91040039 C-14.81449341 12.11755142 -14.82259033 11.32470245 -14.83093262 10.50782776 C-14.78085292 7.25888537 -14.49280262 4.89907486 -12.89952087 2.04322815 C-8.75058079 -0.35612236 -4.71087695 -0.03112724 0 0 Z " fill="#D4E0C3" transform="translate(43.288818359375,40.466552734375)"/>
<path d="M0 0 C1.56890739 -0.01292336 1.56890739 -0.01292336 3.16950989 -0.02610779 C6.63026611 -0.04882818 10.09021653 -0.04201717 13.55102539 -0.03295898 C15.95471946 -0.03819203 18.35841147 -0.04446733 20.76210022 -0.05174255 C25.80178484 -0.06215816 30.84118731 -0.05756863 35.88085938 -0.04296875 C42.34204222 -0.02578394 48.80233559 -0.04926754 55.26341915 -0.08445835 C60.22797042 -0.10641021 65.19230816 -0.10499605 70.15689278 -0.09669304 C72.53914935 -0.09587223 74.9214214 -0.10276023 77.30363274 -0.11746407 C80.63396877 -0.1348671 83.96269765 -0.12040066 87.29296875 -0.09765625 C88.27858795 -0.10934845 89.26420715 -0.12104065 90.2796936 -0.13308716 C94.68498534 -0.07181756 97.06395289 0.11302851 100.82287598 2.55470276 C103.22950006 6.35107874 103.40857916 9.46439011 103.34228516 13.82446289 C103.34944046 14.64621506 103.35659576 15.46796722 103.3639679 16.31462097 C103.38083897 19.02354999 103.36146255 21.7308203 103.34008789 24.43969727 C103.34091674 26.32629534 103.34337672 28.21289334 103.34739685 30.0994873 C103.35025376 34.05051449 103.33556418 38.00097444 103.30810547 41.9519043 C103.27402286 47.01291801 103.2800419 52.07291754 103.29876804 57.1339798 C103.30934354 61.02883333 103.30039522 64.92345143 103.28538322 68.81828308 C103.28020499 70.68417156 103.28067887 72.55008465 103.28692818 74.41596985 C103.29238706 77.02532702 103.2719847 79.63323919 103.24462891 82.24243164 C103.25115479 83.01141281 103.25768066 83.78039398 103.2644043 84.57267761 C103.20434905 87.94653746 102.75223333 90.44506477 101.32762146 93.51219177 C97.24250957 96.66802773 93.34210078 96.22341665 88.31469727 96.16455078 C87.25739914 96.17170609 86.20010101 96.17886139 85.11076355 96.18623352 C81.612548 96.20315523 78.11560763 96.18369627 74.61743164 96.16235352 C72.18892307 96.16318189 69.76041456 96.16564006 67.33190918 96.16966248 C62.24087662 96.17252288 57.15028341 96.15779481 52.05932617 96.13037109 C45.52862275 96.09628866 38.9987052 96.10230465 32.46796417 96.12103367 C27.45283441 96.13159459 22.43788798 96.12267395 17.42277527 96.10764885 C15.01458785 96.10245995 12.60638134 96.10295738 10.19819641 96.1091938 C6.83426644 96.11463478 3.47146721 96.09430503 0.10766602 96.06689453 C-0.8908992 96.07342041 -1.88946442 96.07994629 -2.91828918 96.08666992 C-9.4877866 95.99549656 -9.4877866 95.99549656 -12.90625 94.02366638 C-14.88643178 90.45705321 -14.84698405 87.13081959 -14.80639648 83.15649414 C-14.81340576 82.31377457 -14.82041504 81.47105499 -14.82763672 80.60279846 C-14.84523281 77.81892891 -14.83358845 75.03607704 -14.82006836 72.25219727 C-14.82276281 70.31693324 -14.82664485 68.38167053 -14.83166504 66.44641113 C-14.83756227 62.39114488 -14.82898986 58.33623113 -14.81030273 54.28100586 C-14.7875131 49.08201795 -14.80063497 43.88385598 -14.82459259 38.68489838 C-14.83904446 34.68888115 -14.83444737 30.69305986 -14.82408142 26.69703674 C-14.82141245 24.78007408 -14.82468988 22.86309365 -14.83399963 20.94615173 C-14.84415518 18.26708844 -14.82867863 15.58936392 -14.80639648 12.91040039 C-14.81449341 12.11755142 -14.82259033 11.32470245 -14.83093262 10.50782776 C-14.78085292 7.25888537 -14.49280262 4.89907486 -12.89952087 2.04322815 C-8.75058079 -0.35612236 -4.71087695 -0.03112724 0 0 Z M-10.28881836 5.53344727 C-10.28881836 7.51344727 -10.28881836 9.49344727 -10.28881836 11.53344727 C24.36118164 11.53344727 59.01118164 11.53344727 94.71118164 11.53344727 C94.71118164 12.85344727 94.71118164 14.17344727 94.71118164 15.53344727 C60.06118164 15.53344727 25.41118164 15.53344727 -10.28881836 15.53344727 C-10.28881836 28.40344727 -10.28881836 41.27344727 -10.28881836 54.53344727 C-9.95881836 53.21344727 -9.62881836 51.89344727 -9.28881836 50.53344727 C-7.63881836 50.86344727 -5.98881836 51.19344727 -4.28881836 51.53344727 C-3.29881836 49.88344727 -2.30881836 48.23344727 -1.28881836 46.53344727 C-2.66367368 44.99178085 -2.66367368 44.99178085 -4.28881836 43.53344727 C-4.94881836 43.53344727 -5.60881836 43.53344727 -6.28881836 43.53344727 C-4.75237984 39.85274839 -2.50730891 37.54569523 0.33618164 34.78344727 C1.15344727 33.98422852 1.97071289 33.18500977 2.81274414 32.36157227 C3.43922852 31.75829102 4.06571289 31.15500977 4.71118164 30.53344727 C3.72118164 30.20344727 2.73118164 29.87344727 1.71118164 29.53344727 C1.38118164 28.87344727 1.05118164 28.21344727 0.71118164 27.53344727 C-2.49277252 27.53344727 -4.38281575 28.27679749 -7.28881836 29.53344727 C-5.12745881 25.55199546 -2.82677508 22.39750747 0.71118164 19.53344727 C3.52368164 19.72094727 3.52368164 19.72094727 5.71118164 20.53344727 C5.71118164 19.54344727 5.71118164 18.55344727 5.71118164 17.53344727 C8.35118164 17.53344727 10.99118164 17.53344727 13.71118164 17.53344727 C13.71118164 18.52344727 13.71118164 19.51344727 13.71118164 20.53344727 C15.03118164 20.20344727 16.35118164 19.87344727 17.71118164 19.53344727 C18.04118164 20.85344727 18.37118164 22.17344727 18.71118164 23.53344727 C22.01118164 23.53344727 25.31118164 23.53344727 28.71118164 23.53344727 C27.05890107 26.8380084 26.12572625 28.36617537 23.63842773 30.83325195 C23.01793549 31.45359314 22.39744324 32.07393433 21.75814819 32.71307373 C21.09038361 33.37051575 20.42261902 34.02795776 19.73461914 34.70532227 C19.04937164 35.38773987 18.36412415 36.07015747 17.65811157 36.77325439 C15.47212319 38.94806325 13.27927735 41.11580799 11.08618164 43.28344727 C9.60134909 44.75824716 8.11696858 46.23350232 6.63305664 47.70922852 C2.99765254 51.32260175 -0.6439166 54.9296558 -4.28881836 58.53344727 C-6.26881836 57.87344727 -8.24881836 57.21344727 -10.28881836 56.53344727 C-10.28881836 64.78344727 -10.28881836 73.03344727 -10.28881836 81.53344727 C25.68118164 81.53344727 61.65118164 81.53344727 98.71118164 81.53344727 C98.73180664 69.01407227 98.75243164 56.49469727 98.77368164 43.59594727 C98.78278564 39.63731689 98.79188965 35.67868652 98.80126953 31.60009766 C98.80461317 28.06346937 98.80461317 28.06346937 98.80662537 24.52684021 C98.80816482 22.9468813 98.81168978 21.36692358 98.8167572 19.78697205 C98.82403544 17.39913886 98.82508903 15.01137771 98.82470703 12.62353516 C98.82830514 11.91513772 98.83190325 11.20674028 98.83561039 10.47687626 C99.10734426 7.2251756 99.10734426 7.2251756 97.71118164 4.53344727 C96.32207531 4.43586147 94.92805215 4.40713088 93.53552246 4.40646362 C92.63527847 4.4036438 91.73503448 4.40082397 90.80751038 4.3979187 C89.81214767 4.39994293 88.81678497 4.40196716 87.79125977 4.40405273 C86.74908798 4.40230042 85.7069162 4.4005481 84.63316345 4.39874268 C81.16956951 4.39432189 77.70602615 4.39726295 74.24243164 4.40063477 C71.84728994 4.39996179 69.4521483 4.39899182 67.05700684 4.3977356 C62.02977856 4.39625831 57.00256802 4.39841415 51.9753418 4.40307617 C45.51511473 4.40877347 39.05492921 4.40549463 32.59470367 4.39950371 C27.64666427 4.39589891 22.69863479 4.39703631 17.75059509 4.3996315 C15.36783341 4.400301 12.98507083 4.39947157 10.60231018 4.39715195 C7.27855015 4.39462676 3.95485843 4.39846414 0.63110352 4.40405273 C-0.36425919 4.4020285 -1.35962189 4.40000427 -2.38514709 4.3979187 C-3.73551308 4.40214844 -3.73551308 4.40214844 -5.11315918 4.40646362 C-5.89999336 4.40684065 -6.68682755 4.40721767 -7.49750519 4.40760612 C-9.31231258 4.33833626 -9.31231258 4.33833626 -10.28881836 5.53344727 Z " fill="#12160F" transform="translate(43.288818359375,40.466552734375)"/>
<path d="M0 0 C1.02673828 -0.00128906 2.05347656 -0.00257812 3.11132812 -0.00390625 C4.18705078 -0.00003906 5.26277344 0.00382812 6.37109375 0.0078125 C7.45068359 0.00394531 8.53027344 0.00007813 9.64257812 -0.00390625 C11.18075195 -0.00197266 11.18075195 -0.00197266 12.75 0 C13.69560791 0.00112793 14.64121582 0.00225586 15.61547852 0.00341797 C17.80859375 0.1328125 17.80859375 0.1328125 18.80859375 1.1328125 C18.90683371 2.60930126 18.93832894 4.09056667 18.93359375 5.5703125 C18.93746094 6.77494141 18.93746094 6.77494141 18.94140625 8.00390625 C18.80859375 10.1328125 18.80859375 10.1328125 17.80859375 12.1328125 C20.68840498 10.95955607 22.18798042 9.75342583 24.43359375 7.5078125 C25.21734375 6.7240625 26.00109375 5.9403125 26.80859375 5.1328125 C27.46859375 5.1328125 28.12859375 5.1328125 28.80859375 5.1328125 C29.17984375 4.17375 29.17984375 4.17375 29.55859375 3.1953125 C30.80859375 1.1328125 30.80859375 1.1328125 32.93359375 0.3828125 C33.55234375 0.3003125 34.17109375 0.2178125 34.80859375 0.1328125 C34.61352486 5.81148462 30.77232639 8.68966054 26.93359375 12.3828125 C26.29550781 13.01960938 25.65742187 13.65640625 25 14.3125 C20.23082119 18.99207002 20.23082119 18.99207002 16.80859375 20.1328125 C16.64178266 23.04933424 16.64178266 23.04933424 16.80859375 26.1328125 C17.79859375 27.1228125 17.79859375 27.1228125 18.80859375 28.1328125 C28.04859375 18.8928125 37.28859375 9.6528125 46.80859375 0.1328125 C47.79859375 0.4628125 48.78859375 0.7928125 49.80859375 1.1328125 C48.17459715 5.42003131 44.9208438 8.16724427 41.671875 11.25390625 C40.44278725 12.44797908 39.21428906 13.64265902 37.98632812 14.83789062 C36.05018154 16.71197018 34.10986787 18.5810076 32.15893555 20.43969727 C30.27475571 22.23938686 28.40984373 24.05730359 26.546875 25.87890625 C25.95739578 26.43114365 25.36791656 26.98338104 24.76057434 27.55235291 C22.92623076 29.2949435 22.92623076 29.2949435 20.80859375 32.1328125 C20.78659933 34.95598233 20.78659933 34.95598233 21.80859375 37.1328125 C19.82859375 36.6378125 19.82859375 36.6378125 17.80859375 36.1328125 C18.11796875 37.0609375 18.11796875 37.0609375 18.43359375 38.0078125 C18.55734375 38.7090625 18.68109375 39.4103125 18.80859375 40.1328125 C17.81859375 41.1228125 17.81859375 41.1228125 16.80859375 42.1328125 C17.37449219 42.48214844 17.94039063 42.83148438 18.5234375 43.19140625 C19.25691406 43.64644531 19.99039063 44.10148437 20.74609375 44.5703125 C21.47699219 45.02277344 22.20789063 45.47523437 22.9609375 45.94140625 C24.80859375 47.1328125 24.80859375 47.1328125 25.80859375 48.1328125 C25.88103428 50.15245449 25.89236563 52.17448374 25.87109375 54.1953125 C25.86207031 55.30003906 25.85304688 56.40476563 25.84375 57.54296875 C25.83214844 58.39761719 25.82054688 59.25226563 25.80859375 60.1328125 C24.48859375 60.1328125 23.16859375 60.1328125 21.80859375 60.1328125 C21.47859375 56.5028125 21.14859375 52.8728125 20.80859375 49.1328125 C14.05194833 46.32117494 14.05194833 46.32117494 6.80859375 46.1328125 C5.81859375 46.7928125 4.82859375 47.4528125 3.80859375 48.1328125 C1.17425121 47.81155122 -0.81850722 47.31926202 -3.19140625 46.1328125 C-7.3377044 46.16539638 -11.24066852 46.83570696 -15.19140625 48.0703125 C-18.45501533 51.43590937 -18.09804172 55.60887683 -18.19140625 60.1328125 C-19.18140625 60.1328125 -20.17140625 60.1328125 -21.19140625 60.1328125 C-21.29982576 58.21740112 -21.37718704 56.30021477 -21.44140625 54.3828125 C-21.4878125 53.31546875 -21.53421875 52.248125 -21.58203125 51.1484375 C-21.19140625 48.1328125 -21.19140625 48.1328125 -19.50390625 45.8515625 C-16.98439982 43.97895637 -14.96646213 43.17887984 -11.94140625 42.3828125 C-11.049375 42.14046875 -10.15734375 41.898125 -9.23828125 41.6484375 C-8.5628125 41.47828125 -7.88734375 41.308125 -7.19140625 41.1328125 C-7.68640625 38.1628125 -7.68640625 38.1628125 -8.19140625 35.1328125 C-12.69347889 36.559001 -15.20398481 38.79473455 -18.4921875 42.140625 C-18.97342575 42.62610809 -19.454664 43.11159119 -19.95048523 43.61178589 C-21.47552211 45.15352314 -22.98975414 46.70539141 -24.50390625 48.2578125 C-25.54031779 49.30928205 -26.5774203 50.360071 -27.61523438 51.41015625 C-30.1486702 53.9765462 -32.67252633 56.5521254 -35.19140625 59.1328125 C-36.18140625 58.8028125 -37.17140625 58.4728125 -38.19140625 58.1328125 C-36.63049681 54.30148934 -34.08389285 52.0252991 -31.19140625 49.1328125 C-30.86140625 48.1428125 -30.53140625 47.1528125 -30.19140625 46.1328125 C-31.98669995 45.37524599 -31.98669995 45.37524599 -34.19140625 45.1328125 C-36.27418834 46.17211672 -36.27418834 46.17211672 -38.19140625 47.8203125 C-39.2278125 48.64982422 -39.2278125 48.64982422 -40.28515625 49.49609375 C-42.36359736 51.28065691 -44.33270688 53.11922152 -46.19140625 55.1328125 C-47.18140625 54.8028125 -48.17140625 54.4728125 -49.19140625 54.1328125 C-47.8668563 51.20292645 -46.42627527 49.11240596 -44.16625977 46.83300781 C-43.55545059 46.21266663 -42.94464142 45.59232544 -42.31532288 44.95318604 C-41.65696945 44.29574402 -40.99861603 43.638302 -40.3203125 42.9609375 C-39.64218002 42.2785199 -38.96404755 41.59610229 -38.2653656 40.89300537 C-36.83302717 39.45493219 -35.39807166 38.01946155 -33.96069336 36.58642578 C-31.75679474 34.38569684 -29.56657102 32.17195839 -27.37695312 29.95703125 C-25.98388381 28.56168995 -24.59003009 27.16713126 -23.1953125 25.7734375 C-22.53898331 25.10789856 -21.88265411 24.44235962 -21.20643616 23.75665283 C-20.59247482 23.14892029 -19.97851349 22.54118774 -19.34594727 21.91503906 C-18.80792984 21.37639221 -18.26991241 20.83774536 -17.71559143 20.28277588 C-16.19140625 19.1328125 -16.19140625 19.1328125 -13.19140625 19.1328125 C-13.89082221 22.28018432 -14.95219323 25.15870126 -16.19140625 28.1328125 C-14.54140625 27.4728125 -12.89140625 26.8128125 -11.19140625 26.1328125 C-11.21235352 25.55313721 -11.23330078 24.97346191 -11.25488281 24.3762207 C-11.33837432 21.73276326 -11.39016778 19.0895837 -11.44140625 16.4453125 C-11.49167969 15.07729492 -11.49167969 15.07729492 -11.54296875 13.68164062 C-11.60648186 9.31511455 -11.62863111 6.84556129 -9.30078125 3.05078125 C-6.07401153 0.11681101 -4.2729442 0.00509073 0 0 Z " fill="#BFCBB0" transform="translate(85.19140625,58.8671875)"/>
<path d="M0 0 C5.135625 -0.0825 10.27125 -0.165 15.5625 -0.25 C17.16939697 -0.28641602 18.77629395 -0.32283203 20.43188477 -0.36035156 C21.71377686 -0.3703418 22.99566895 -0.38033203 24.31640625 -0.390625 C25.62037354 -0.41157227 26.92434082 -0.43251953 28.26782227 -0.45410156 C32.88281412 0.10741377 35.16932737 1.4151235 39 4 C41.57517449 7.55245678 41.45912279 11.25088852 41.40234375 15.515625 C40.75688215 19.50119372 38.88119762 21.26286227 36 24 C36.61875 24.268125 37.2375 24.53625 37.875 24.8125 C40 26 40 26 42 29 C42.58760427 33.50242236 42.50290275 37.68686505 40.875 41.9375 C37.56533499 45.57813151 34.15708872 46.89379269 29.28955078 47.34057617 C27.92471263 47.33983682 26.55980521 47.32368314 25.1953125 47.29296875 C24.55263428 47.28994751 23.90995605 47.28692627 23.24780273 47.28381348 C20.8733691 47.26825307 18.49916645 47.22637001 16.125 47.1875 C8.143125 47.0946875 8.143125 47.0946875 0 47 C0 31.49 0 15.98 0 0 Z M12 9 C12 12.3 12 15.6 12 19 C14.27024968 19.08097324 16.54132075 19.13917704 18.8125 19.1875 C20.70935547 19.23970703 20.70935547 19.23970703 22.64453125 19.29296875 C25.92605733 19.27865306 25.92605733 19.27865306 27.9609375 17.68359375 C29.29378154 15.88512878 29.29378154 15.88512878 28.8125 12.875 C28.544375 11.92625 28.27625 10.9775 28 10 C24.99686252 8.49843126 22.20932478 8.90718796 18.875 8.9375 C17.59367187 8.94652344 16.31234375 8.95554687 14.9921875 8.96484375 C14.00476563 8.97644531 13.01734375 8.98804687 12 9 Z M12 27 C12 30.63 12 34.26 12 38 C14.43816585 38.0809723 16.87364384 38.14046972 19.3125 38.1875 C20.00279297 38.21263672 20.69308594 38.23777344 21.40429688 38.26367188 C25.41927866 38.34359098 25.41927866 38.34359098 28.94921875 36.64453125 C30.49686155 34.22238397 30.5612146 32.80607298 30 30 C26.07260008 26.93240192 23.08573331 26.66406869 18.1875 26.8125 C17.02605469 26.83957031 15.86460937 26.86664063 14.66796875 26.89453125 C13.78753906 26.92933594 12.90710938 26.96414062 12 27 Z " fill="#3D3D3D" transform="translate(358,57)"/>
<path d="M0 0 C1.35036598 -0.00422974 1.35036598 -0.00422974 2.72801208 -0.00854492 C3.72337479 -0.00652069 4.71873749 -0.00449646 5.7442627 -0.00241089 C6.78643448 -0.00416321 7.82860626 -0.00591553 8.90235901 -0.00772095 C12.36595295 -0.01214174 15.82949631 -0.00920067 19.29309082 -0.00582886 C21.68823252 -0.00650183 24.08337416 -0.0074718 26.47851562 -0.00872803 C31.5057439 -0.01020531 36.53295444 -0.00804947 41.56018066 -0.00338745 C48.02040773 0.00230985 54.48059325 -0.000969 60.94081879 -0.00695992 C65.88885819 -0.01056471 70.83688767 -0.00942732 75.78492737 -0.00683212 C78.16768905 -0.00616263 80.55045163 -0.00699206 82.93321228 -0.00931168 C86.25697231 -0.01183687 89.58066404 -0.00799949 92.90441895 -0.00241089 C93.89978165 -0.00443512 94.89514435 -0.00645935 95.92066956 -0.00854492 C96.82091354 -0.0057251 97.72115753 -0.00290527 98.64868164 0 C99.43551582 0.00037703 100.22235001 0.00075405 101.03302765 0.0011425 C102.82434082 0.12698364 102.82434082 0.12698364 103.82434082 1.12698364 C103.91928985 3.5000346 103.94992093 5.84373131 103.93786621 8.21707153 C103.93798675 8.97051818 103.93810728 9.72396482 103.93823147 10.50024319 C103.93748239 12.95007165 103.92985443 15.39982496 103.92199707 17.84963989 C103.92052763 19.35773685 103.91950693 20.86583432 103.91894531 22.37393188 C103.91369262 27.97912356 103.89973153 33.58430433 103.88684082 39.18948364 C103.86621582 51.70885864 103.84559082 64.22823364 103.82434082 77.12698364 C67.85434082 77.12698364 31.88434082 77.12698364 -5.17565918 77.12698364 C-5.17565918 76.79698364 -5.17565918 76.46698364 -5.17565918 76.12698364 C-4.05114853 76.11889679 -2.92663788 76.11080994 -1.76805115 76.10247803 C8.84020865 76.02492317 19.44834167 75.93716025 30.05643559 75.83945656 C35.50988799 75.78955528 40.9633216 75.74322462 46.41687012 75.70510864 C51.68189139 75.66817804 56.94675307 75.62179683 62.2116375 75.56892014 C64.21819694 75.55041751 66.22479054 75.53529437 68.23140144 75.52363968 C71.04648229 75.50670651 73.86120091 75.47765438 76.67614746 75.4458313 C77.91477287 75.44259102 77.91477287 75.44259102 79.17842102 75.43928528 C84.0810479 75.36869372 88.20087078 74.81041182 92.82434082 73.12698364 C94.47248984 71.26128505 94.47248984 71.26128505 95.26184082 69.00198364 C95.56992676 68.27753052 95.8780127 67.55307739 96.19543457 66.80667114 C96.40297363 66.25237427 96.6105127 65.69807739 96.82434082 65.12698364 C89.92377246 69.09098231 89.92377246 69.09098231 83.82434082 74.12698364 C82.83434082 74.12698364 81.84434082 74.12698364 80.82434082 74.12698364 C81.40797437 70.6290411 82.61618158 68.95060603 85.09777832 66.45510864 C85.75777832 65.79124146 86.41777832 65.12737427 87.09777832 64.44338989 C88.13805176 63.4205188 88.13805176 63.4205188 89.19934082 62.37698364 C89.88512207 61.67960083 90.57090332 60.98221802 91.27746582 60.26370239 C91.94004395 59.60499146 92.60262207 58.94628052 93.28527832 58.26760864 C93.89162109 57.66464966 94.49796387 57.06169067 95.12268066 56.44046021 C96.82434082 55.12698364 96.82434082 55.12698364 99.82434082 55.12698364 C99.82434082 56.77698364 99.82434082 58.42698364 99.82434082 60.12698364 C100.48434082 60.12698364 101.14434082 60.12698364 101.82434082 60.12698364 C101.82434082 55.17698364 101.82434082 50.22698364 101.82434082 45.12698364 C101.32934082 46.11698364 101.32934082 46.11698364 100.82434082 47.12698364 C100.04059082 47.27135864 99.25684082 47.41573364 98.44934082 47.56448364 C95.52500279 48.19112751 94.78181654 48.98308166 92.82434082 51.12698364 C92.16434082 51.12698364 91.50434082 51.12698364 90.82434082 51.12698364 C90.82434082 51.78698364 90.82434082 52.44698364 90.82434082 53.12698364 C89.20734818 54.89556934 87.58127906 56.50454785 85.82434082 58.12698364 C85.1617627 58.74831177 84.49918457 59.36963989 83.81652832 60.00979614 C82.76852051 60.96499146 82.76852051 60.96499146 81.69934082 61.93948364 C81.0367627 62.54405396 80.37418457 63.14862427 79.69152832 63.77151489 C77.82434082 65.12698364 77.82434082 65.12698364 74.82434082 65.12698364 C75.33237249 60.90731065 77.67107242 58.89291479 80.59387207 55.95901489 C81.07128342 55.47873337 81.54869476 54.99845184 82.04057312 54.50361633 C83.04985204 53.49230003 84.06291312 52.48474602 85.07946777 51.48074341 C86.63150426 49.94476499 88.16689829 48.39345294 89.70129395 46.83987427 C90.68535955 45.85779116 91.67035539 44.8766391 92.65637207 43.89651489 C93.55073975 43.00553101 94.44510742 42.11454712 95.36657715 41.19656372 C97.82434082 39.12698364 97.82434082 39.12698364 101.82434082 38.12698364 C101.82434082 35.15698364 101.82434082 32.18698364 101.82434082 29.12698364 C97.61696035 31.38657363 94.47200206 34.25729778 91.19152832 37.66995239 C90.12783671 38.75404518 89.06403131 39.83802631 88.00012207 40.92190552 C86.34087514 42.62481684 84.68418303 44.33013133 83.02990723 46.03787231 C81.42347294 47.69241905 79.80806817 49.33778689 78.19152832 50.98245239 C77.69772675 51.49801193 77.20392517 52.01357147 76.69515991 52.54475403 C75.46097014 53.79671204 74.14759446 54.96956276 72.82434082 56.12698364 C71.83434082 56.12698364 70.84434082 56.12698364 69.82434082 56.12698364 C70.69280447 51.49978941 73.47681401 49.04185234 76.72277832 45.83010864 C77.60892319 44.93965851 77.60892319 44.93965851 78.51296997 44.03121948 C79.7618359 42.78031451 81.01448869 41.53318038 82.27062988 40.2895813 C84.19576272 38.38053185 86.10435246 36.45598896 88.01184082 34.52932739 C89.22702565 33.31612447 90.44314048 32.1038522 91.66027832 30.89260864 C92.23224945 30.31456482 92.80422058 29.736521 93.39352417 29.14096069 C97.47943931 25.12698364 97.47943931 25.12698364 100.82434082 25.12698364 C100.82434082 25.78698364 100.82434082 26.44698364 100.82434082 27.12698364 C101.48434082 27.12698364 102.14434082 27.12698364 102.82434082 27.12698364 C102.49434082 20.85698364 102.16434082 14.58698364 101.82434082 8.12698364 C101.16434082 8.78698364 100.50434082 9.44698364 99.82434082 10.12698364 C99.82434082 9.13698364 99.82434082 8.14698364 99.82434082 7.12698364 C65.17434082 7.12698364 30.52434082 7.12698364 -5.17565918 7.12698364 C-5.17565918 0.00248001 -5.17565918 0.00248001 0 0 Z " fill="#C3CCB5" transform="translate(38.1756591796875,44.873016357421875)"/>
<path d="M0 0 C1.94361026 1.22426696 3.80704778 2.48985849 5.6328125 3.8828125 C5.6328125 2.5628125 5.6328125 1.2428125 5.6328125 -0.1171875 C8.9328125 -0.1171875 12.2328125 -0.1171875 15.6328125 -0.1171875 C15.73232819 4.72080611 15.80458287 9.55819275 15.85253906 14.39697266 C15.87254821 16.039982 15.89976463 17.68292109 15.93457031 19.32568359 C15.98356555 21.69907038 16.00588754 24.07150899 16.0234375 26.4453125 C16.04408264 27.16960449 16.06472778 27.89389648 16.08599854 28.64013672 C16.08900443 35.60580812 13.67870865 40.69417941 8.9453125 45.7578125 C1.68758275 50.41371461 -6.03961431 50.58256679 -14.3671875 48.8828125 C-17.28089466 47.89914496 -20.00122608 46.87553402 -22.3671875 44.8828125 C-23.16796875 42.94921875 -23.16796875 42.94921875 -23.3671875 40.8828125 C-21.9296875 37.6328125 -21.9296875 37.6328125 -20.3671875 34.8828125 C-19.531875 35.3159375 -19.531875 35.3159375 -18.6796875 35.7578125 C-17.9165625 36.1290625 -17.1534375 36.5003125 -16.3671875 36.8828125 C-15.6453125 37.2540625 -14.9234375 37.6253125 -14.1796875 38.0078125 C-9.60846316 39.42997118 -4.7041213 39.75449296 -0.16796875 38.0625 C2.56204088 36.27407721 2.83601347 33.93720878 3.6328125 30.8828125 C3.0346875 31.3778125 2.4365625 31.8728125 1.8203125 32.3828125 C-2.8889279 34.59892563 -7.24775766 34.55938913 -12.3671875 33.8828125 C-16.83005963 31.73107058 -19.50440521 29.49074765 -21.3671875 24.8828125 C-22.83478223 17.7496195 -22.80621209 11.41958443 -19.3671875 4.8828125 C-14.34991698 -1.13791213 -7.3857377 -3.48567819 0 0 Z M-10.3671875 11.8828125 C-11.45661701 15.87738738 -11.78856397 17.95979737 -10.0546875 21.7578125 C-7.90178083 24.46888016 -6.98254384 24.80076499 -3.5546875 25.2578125 C-0.21614882 25.12571486 -0.21614882 25.12571486 2.5078125 22.8203125 C4.87390157 19.99755188 4.87390157 19.99755188 5.2578125 16.3828125 C4.46678318 11.9530483 3.26806465 10.49071078 -0.3671875 7.8828125 C-5.2020226 6.99478156 -7.56351429 7.83306231 -10.3671875 11.8828125 Z " fill="#3C3C3C" transform="translate(423.3671875,70.1171875)"/>
<path d="M0 0 C11.22 0 22.44 0 34 0 C34 2.97 34 5.94 34 9 C26.74 9 19.48 9 12 9 C12 11.97 12 14.94 12 18 C18.27 18 24.54 18 31 18 C31 20.97 31 23.94 31 27 C24.73 27 18.46 27 12 27 C12 30.3 12 33.6 12 37 C13.57652344 36.98839844 15.15304688 36.97679687 16.77734375 36.96484375 C18.83072799 36.95546757 20.8841135 36.94636718 22.9375 36.9375 C23.97841797 36.92912109 25.01933594 36.92074219 26.09179688 36.91210938 C27.08115234 36.90888672 28.07050781 36.90566406 29.08984375 36.90234375 C30.00628662 36.89710693 30.92272949 36.89187012 31.86694336 36.88647461 C34 37 34 37 35 38 C35 40.97 35 43.94 35 47 C23.45 47 11.9 47 0 47 C0 31.49 0 15.98 0 0 Z " fill="#3C3C3C" transform="translate(177,57)"/>
<path d="M0 0 C3.77968801 5.54354242 4.15236697 10.64354329 4 17.125 C3.99097656 17.86105469 3.98195313 18.59710938 3.97265625 19.35546875 C3.94930144 21.1537888 3.91343836 22.95193911 3.875 24.75 C5.195 24.42 6.515 24.09 7.875 23.75 C9.25611722 26.0247813 9.93194702 27.25171361 9.625 29.9375 C8.875 31.75 8.875 31.75 6.875 32.75 C-1.90091973 33.68263258 -1.90091973 33.68263258 -5.75 30.75 C-6.20375 30.09 -6.6575 29.43 -7.125 28.75 C-7.8675 29.41 -8.61 30.07 -9.375 30.75 C-14.15289214 33.92388549 -19.63589425 33.58986317 -25.125 32.75 C-28.35742731 31.50491689 -28.95952286 30.697455 -31.125 27.75 C-31.90271633 24.56424347 -31.86183365 21.94101186 -31.125 18.75 C-28.37333709 14.22941093 -25.0943697 13.28005297 -20.1875 12 C-16.186646 11.11206853 -12.17071032 10.40117245 -8.125 9.75 C-8.125 8.43 -8.125 7.11 -8.125 5.75 C-12.15504108 5.3973624 -12.15504108 5.3973624 -16.125 5.75 C-17.053125 7.0184375 -17.053125 7.0184375 -18 8.3125 C-18.70125 9.116875 -19.4025 9.92125 -20.125 10.75 C-23.54567885 10.90203017 -26.77139677 10.39640062 -30.125 9.75 C-29.95087848 5.30990123 -29.60048768 3.27187672 -26.5625 -0.0625 C-18.69156145 -5.68194076 -7.84883281 -5.65115962 0 0 Z M-13.0625 17.6875 C-13.95839844 17.86152344 -14.85429687 18.03554687 -15.77734375 18.21484375 C-18.1294116 18.65335576 -18.1294116 18.65335576 -20.125 19.75 C-19.795 21.4 -19.465 23.05 -19.125 24.75 C-13.90993186 25.22208885 -13.90993186 25.22208885 -9.1875 23.5625 C-7.87587013 21.32501375 -7.47052388 19.30687669 -7.125 16.75 C-9.12421348 16.75 -11.10946306 17.30361756 -13.0625 17.6875 Z " fill="#3C3C3C" transform="translate(275.125,72.25)"/>
<path d="M0 0 C2.91104596 2.83570124 4.2676864 5.18159113 5 9.25 C5 11.89 5 14.53 5 17.25 C-3.25 17.25 -11.5 17.25 -20 17.25 C-17.67748574 22.13495525 -17.67748574 22.13495525 -15 23.25 C-9.03433797 23.86593966 -9.03433797 23.86593966 -3.6875 21.6875 C-3.130625 21.213125 -2.57375 20.73875 -2 20.25 C1.03012552 20.34469142 1.9957654 21.24611828 4.25 23.3125 C4.8275 23.951875 5.405 24.59125 6 25.25 C1.74342878 30.17166048 -2.51120338 32.61372397 -9.01171875 33.53515625 C-15.65502216 33.83534481 -20.83799571 31.67773868 -26.3125 28.0625 C-30.19515386 23.99925759 -31.88136726 20.40365364 -32.09375 14.7578125 C-31.74083339 8.95233427 -30.52536054 4.88863229 -27 0.25 C-19.00737104 -6.11306384 -8.05619242 -6.40795264 0 0 Z M-18.375 6.0625 C-20.298162 8.19720048 -20.298162 8.19720048 -20 11.25 C-15.38 11.25 -10.76 11.25 -6 11.25 C-7.54042748 6.44695965 -7.54042748 6.44695965 -10 4.25 C-13.71128487 3.76591937 -15.35924581 3.76100338 -18.375 6.0625 Z " fill="#3C3C3C" transform="translate(350,72.75)"/>
<path d="M0 0 C0.495 1.98 0.495 1.98 1 4 C1.66 4 2.32 4 3 4 C3.33 3.34 3.66 2.68 4 2 C4 2.99 4 3.98 4 5 C11.26 5 18.52 5 26 5 C25.67 5.99 25.34 6.98 25 8 C18.07 8 11.14 8 4 8 C4.1546875 10.8153125 4.1546875 10.8153125 4.3125 13.6875 C4.37050781 14.74324219 4.42851563 15.79898438 4.48828125 16.88671875 C5.05227251 20.31802433 5.87610874 22.25824947 8 25 C9.99693687 26.21143606 9.99693687 26.21143606 12.1875 26.8125 C13.445625 27.204375 14.70375 27.59625 16 28 C15.67 28.66 15.34 29.32 15 30 C11.9375 30.625 11.9375 30.625 9 31 C8.67 32.65 8.34 34.3 8 36 C13.55493924 37.02703748 13.55493924 37.02703748 19 36 C19 34.35 19 32.7 19 31 C19.66 30.67 20.32 30.34 21 30 C22.35439668 32.70879335 22.06501451 35.00933268 22 38 C15.74175824 42.04945055 15.74175824 42.04945055 12.1875 41.8125 C10 41 10 41 8 40 C3.85370185 40.03258388 -0.04926227 40.70289446 -4 41.9375 C-7.26360908 45.30309687 -6.90663547 49.47606433 -7 54 C-7.99 54 -8.98 54 -10 54 C-10.10841951 52.08458862 -10.18578079 50.16740227 -10.25 48.25 C-10.29640625 47.18265625 -10.3428125 46.1153125 -10.390625 45.015625 C-10 42 -10 42 -8.3125 39.71875 C-5.79299357 37.84614387 -3.77505588 37.04606734 -0.75 36.25 C0.14203125 36.00765625 1.0340625 35.7653125 1.953125 35.515625 C2.62859375 35.34546875 3.3040625 35.1753125 4 35 C3.505 32.03 3.505 32.03 3 29 C-1.50207264 30.4261885 -4.01257856 32.66192205 -7.30078125 36.0078125 C-7.7820195 36.49329559 -8.26325775 36.97877869 -8.75907898 37.47897339 C-10.28411586 39.02071064 -11.79834789 40.57257891 -13.3125 42.125 C-14.34891154 43.17646955 -15.38601405 44.2272585 -16.42382812 45.27734375 C-18.95726395 47.8437337 -21.48112008 50.4193129 -24 53 C-24.99 52.67 -25.98 52.34 -27 52 C-25.43909056 48.16867684 -22.8924866 45.8924866 -20 43 C-19.67 42.01 -19.34 41.02 -19 40 C-20.7952937 39.24243349 -20.7952937 39.24243349 -23 39 C-25.08278209 40.03930422 -25.08278209 40.03930422 -27 41.6875 C-28.03640625 42.51701172 -28.03640625 42.51701172 -29.09375 43.36328125 C-31.17219111 45.14784441 -33.14130063 46.98640902 -35 49 C-35.99 48.67 -36.98 48.34 -38 48 C-36.67545005 45.07011395 -35.23486902 42.97959346 -32.97485352 40.70019531 C-32.36404434 40.07985413 -31.75323517 39.45951294 -31.12391663 38.82037354 C-30.4655632 38.16293152 -29.80720978 37.5054895 -29.12890625 36.828125 C-28.45077377 36.1457074 -27.7726413 35.46328979 -27.07395935 34.76019287 C-25.64162092 33.32211969 -24.20666541 31.88664905 -22.76928711 30.45361328 C-20.56538849 28.25288434 -18.37516477 26.03914589 -16.18554688 23.82421875 C-14.79247756 22.42887745 -13.39862384 21.03431876 -12.00390625 19.640625 C-11.34757706 18.97508606 -10.69124786 18.30954712 -10.01502991 17.62384033 C-9.40106857 17.01610779 -8.78710724 16.40837524 -8.15454102 15.78222656 C-7.61652359 15.24357971 -7.07850616 14.70493286 -6.52418518 14.14996338 C-5 13 -5 13 -2 13 C-2.69941596 16.14737182 -3.76078698 19.02588876 -5 22 C-3.35 21.34 -1.7 20.68 0 20 C0 13.4 0 6.8 0 0 Z " fill="#C6D0B7" transform="translate(74,65)"/>
<path d="M0 0 C2.59448994 1.39029629 4.41820168 2.88943067 6.1015625 5.3046875 C6.6640625 7.2421875 6.6640625 7.2421875 6.6640625 10.2421875 C3.3640625 10.5721875 0.0640625 10.9021875 -3.3359375 11.2421875 C-3.6659375 10.2521875 -3.9959375 9.2621875 -4.3359375 8.2421875 C-8.81727324 7.51961921 -8.81727324 7.51961921 -13.3359375 7.2421875 C-13.3359375 8.2321875 -13.3359375 9.2221875 -13.3359375 10.2421875 C-12.08296875 10.54511719 -10.83 10.84804687 -9.5390625 11.16015625 C-7.88777198 11.58236121 -6.23674359 12.00559238 -4.5859375 12.4296875 C-3.7609375 12.62626953 -2.9359375 12.82285156 -2.0859375 13.02539062 C1.89185527 14.06795728 4.20126983 14.79640405 7.21484375 17.69921875 C9.17068687 21.13116989 9.15082345 23.34809991 8.6640625 27.2421875 C7.30943873 30.55349004 6.09267944 31.94215564 3.1640625 33.9921875 C-4.12215661 36.59440861 -11.18135251 37.1212281 -18.45703125 34.2578125 C-21.29057396 32.72616779 -22.74828586 31.02057786 -24.3359375 28.2421875 C-25.0859375 25.4296875 -25.0859375 25.4296875 -25.3359375 23.2421875 C-21.9787149 22.58378074 -18.76216298 22.09436884 -15.3359375 22.2421875 C-12.5859375 24.6796875 -12.5859375 24.6796875 -10.3359375 27.2421875 C-7.13241451 27.61907256 -5.22455459 27.68649605 -2.3359375 26.2421875 C-2.3359375 25.2521875 -2.3359375 24.2621875 -2.3359375 23.2421875 C-3.43292969 23.01144531 -4.52992188 22.78070313 -5.66015625 22.54296875 C-7.11480023 22.21450075 -8.56921576 21.88501985 -10.0234375 21.5546875 C-10.74466797 21.40580078 -11.46589844 21.25691406 -12.20898438 21.10351562 C-17.20284103 19.9405627 -20.0894605 18.43869943 -23.3359375 14.2421875 C-24.18033055 11.47299788 -23.95729134 9.05823151 -23.3359375 6.2421875 C-18.32422274 -1.9913439 -8.78037512 -2.8484829 0 0 Z " fill="#3C3C3C" transform="translate(309.3359375,69.7578125)"/>
<path d="M0 0 C36.3 0 72.6 0 110 0 C110 1.98 110 3.96 110 6 C108.44972055 7.55027945 106.98927957 7.12910849 104.83106995 7.13371277 C103.93227112 7.13797775 103.03347229 7.14224274 102.10743713 7.14663696 C101.11364548 7.14618378 100.11985382 7.14573059 99.09594727 7.14526367 C98.05538177 7.14862228 97.01481628 7.1519809 95.94271851 7.15544128 C92.4839358 7.16498341 89.02520132 7.16689601 85.56640625 7.16796875 C83.17366007 7.171179 80.78091409 7.17454289 78.38816833 7.17805481 C73.36513819 7.18405421 68.34212527 7.18589387 63.3190918 7.18530273 C56.86790034 7.18520105 50.4168188 7.19885608 43.96565342 7.21607494 C39.02186064 7.22716788 34.07809465 7.22922278 29.1342907 7.22869301 C26.75514281 7.22987711 24.37599431 7.23432278 21.9968586 7.24202538 C18.67564212 7.25177103 15.35466724 7.24896877 12.03344727 7.24291992 C11.04167984 7.24853943 10.04991241 7.25415894 9.02809143 7.25994873 C8.12647278 7.25575424 7.22485413 7.25155975 6.2959137 7.24723816 C5.11704511 7.24805531 5.11704511 7.24805531 3.914361 7.24888897 C2 7 2 7 0 5 C0 3.35 0 1.7 0 0 Z " fill="#D4E0C3" transform="translate(32,125)"/>
<path d="M0 0 C1.6396875 0.0928125 1.6396875 0.0928125 3.3125 0.1875 C3.3125 1.1775 3.3125 2.1675 3.3125 3.1875 C4.6325 3.1875 5.9525 3.1875 7.3125 3.1875 C7.3125 4.5075 7.3125 5.8275 7.3125 7.1875 C8.3025 6.8575 9.2925 6.5275 10.3125 6.1875 C12.64549825 6.14795766 14.97958189 6.14348268 17.3125 6.1875 C17.3125 10.1875 17.3125 10.1875 16.05969238 11.92132568 C15.47345093 12.49868469 14.88720947 13.0760437 14.28320312 13.67089844 C13.62251831 14.33128113 12.9618335 14.99166382 12.28112793 15.67205811 C11.55929321 16.37324768 10.8374585 17.07443726 10.09375 17.796875 C9.36128052 18.52368469 8.62881104 19.25049438 7.87414551 19.99932861 C5.52946974 22.3215903 3.17127808 24.62957213 0.8125 26.9375 C-0.77825278 28.50819448 -2.36810838 30.07979815 -3.95703125 31.65234375 C-7.85683314 35.50801144 -11.76782687 39.35204084 -15.6875 43.1875 C-17.6875 42.1875 -19.6875 41.1875 -21.6875 40.1875 C-21.1925 37.2175 -21.1925 37.2175 -20.6875 34.1875 C-18.61196352 33.6340236 -16.84384036 33.1875 -14.6875 33.1875 C-14.3575 32.1975 -14.0275 31.2075 -13.6875 30.1875 C-15.3375 29.1975 -16.9875 28.2075 -18.6875 27.1875 C-17.15106148 23.50680113 -14.90599055 21.19974796 -12.0625 18.4375 C-11.24523438 17.63828125 -10.42796875 16.8390625 -9.5859375 16.015625 C-8.95945312 15.41234375 -8.33296875 14.8090625 -7.6875 14.1875 C-9.3375 13.1975 -10.9875 12.2075 -12.6875 11.1875 C-13.3475 11.8475 -14.0075 12.5075 -14.6875 13.1875 C-16.0075 13.1875 -17.3275 13.1875 -18.6875 13.1875 C-18.10354794 9.67600159 -16.85470355 7.89718242 -14.375 5.375 C-13.78074219 4.74980469 -13.18648437 4.12460937 -12.57421875 3.48046875 C-10.6875 2.1875 -10.6875 2.1875 -8.5390625 2.578125 C-7.92804687 2.77921875 -7.31703125 2.9803125 -6.6875 3.1875 C-6.254375 2.713125 -5.82125 2.23875 -5.375 1.75 C-3.6875 0.1875 -3.6875 0.1875 0 0 Z " fill="#C9D3BA" transform="translate(54.6875,56.8125)"/>
<path d="M0 0 C0.77338431 0.00092179 1.54676863 0.00184359 2.34358883 0.00279331 C3.22844967 0.00141865 4.11331051 0.00004398 5.02498531 -0.00137234 C6.00321758 0.00222294 6.98144985 0.00581821 7.98932552 0.00952244 C9.01359646 0.00937641 10.03786739 0.00923038 11.09317684 0.00907993 C14.49665055 0.00977955 17.9000703 0.0175742 21.30353451 0.02539158 C23.65623094 0.02725559 26.00892776 0.02867957 28.36162472 0.0296793 C34.56769531 0.03350584 40.77374266 0.04333728 46.97980404 0.05438328 C53.30711204 0.06459448 59.63442378 0.06917629 65.96173763 0.0742197 C78.38687807 0.08495942 90.81200124 0.10203747 103.23712826 0.12304783 C102.57712826 2.10304783 101.91712826 4.08304783 101.23712826 6.12304783 C66.91712826 6.12304783 32.59712826 6.12304783 -2.76287174 6.12304783 C-2.76287174 0.19284748 -2.76287174 0.19284748 0 0 Z " fill="#DAE7C9" transform="translate(35.762871742248535,44.876952171325684)"/>
<path d="M0 0 C1.33333333 0.66666667 2.66666667 1.33333333 4 2 C6.30797001 1.66059264 7.91510461 1.04244769 10 0 C15.77306942 -0.70403286 19.9640678 1.49322486 25 4 C25.04898438 4.77085938 25.09796875 5.54171875 25.1484375 6.3359375 C25.22320312 7.33882813 25.29796875 8.34171875 25.375 9.375 C25.47941406 10.87160156 25.47941406 10.87160156 25.5859375 12.3984375 C25.76363964 15.15508879 25.76363964 15.15508879 28 17 C15.13 17 2.26 17 -11 17 C-11 16.34 -11 15.68 -11 15 C-11.66 15 -12.32 15 -13 15 C-14.20272819 12.59454362 -14.10071472 11.05003047 -14.0625 8.375 C-14.05347656 7.55773437 -14.04445313 6.74046875 -14.03515625 5.8984375 C-14.02355469 5.27195312 -14.01195313 4.64546875 -14 4 C-9.29412174 1.32457683 -5.57248724 -0.75988462 0 0 Z " fill="#D6E2C4" transform="translate(82,104)"/>
<path d="M0 0 C0.33 0 0.66 0 1 0 C1.09268805 10.99619746 1.16375905 21.99230196 1.20724869 32.98881054 C1.22812179 38.09497566 1.25643456 43.20087348 1.30175781 48.30688477 C1.34522517 53.2346643 1.36913919 58.16218675 1.37950897 63.0901432 C1.38689873 64.9700354 1.40132923 66.84991355 1.42292023 68.72969627 C1.4519662 71.36331948 1.45595553 73.99588101 1.45410156 76.62963867 C1.46848267 77.40647507 1.48286377 78.18331146 1.49768066 78.98368835 C1.47178997 82.38362018 1.0499703 84.89139303 -0.37463379 87.9876709 C-4.48670032 91.13954781 -8.41614947 90.65785885 -13.45996094 90.56762695 C-15.05554588 90.56872215 -15.05554588 90.56872215 -16.68336487 90.56983948 C-20.20088616 90.56635482 -23.71708491 90.52744972 -27.234375 90.48828125 C-29.67245765 90.47895631 -32.11054966 90.4718387 -34.54864502 90.46684265 C-40.96699878 90.44774805 -47.38478717 90.39862483 -53.80291748 90.34332275 C-60.35160676 90.29218406 -66.90038737 90.26934004 -73.44921875 90.24414062 C-86.29972043 90.1905095 -99.14983015 90.10612651 -112 90 C-112 89.67 -112 89.34 -112 89 C-77.35 88.67 -42.7 88.34 -7 88 C-40.99 87.67 -74.98 87.34 -110 87 C-110 86.67 -110 86.34 -110 86 C-75.02 85.67 -40.04 85.34 -4 85 C-3.67 83.02 -3.34 81.04 -3 79 C-38.97 79 -74.94 79 -112 79 C-112 78.67 -112 78.34 -112 78 C-58.54 77.505 -58.54 77.505 -4 77 C-3.67 51.92 -3.34 26.84 -3 1 C-2.67 1 -2.34 1 -2 1 C-1.505 20.8 -1.505 20.8 -1 41 C-0.67 27.47 -0.34 13.94 0 0 Z " fill="#1F241B" transform="translate(145,46)"/>
<path d="M0 0 C3.15542158 0.63236182 4.78428857 2.05201991 6.9296875 4.38671875 C8.70597618 7.77012575 8.9296875 9.47605944 8.9296875 13.38671875 C5.6296875 14.04671875 2.3296875 14.70671875 -1.0703125 15.38671875 C-1.3384375 14.58234375 -1.6065625 13.77796875 -1.8828125 12.94921875 C-2.2746875 12.10359375 -2.6665625 11.25796875 -3.0703125 10.38671875 C-4.0603125 10.05671875 -5.0503125 9.72671875 -6.0703125 9.38671875 C-9.31881227 11.10898371 -9.31881227 11.10898371 -10.0703125 14.38671875 C-10.21746449 16.01238954 -10.31753117 17.64258732 -10.38671875 19.2734375 C-10.42861328 20.21123047 -10.47050781 21.14902344 -10.51367188 22.11523438 C-10.55298828 23.09169922 -10.59230469 24.06816406 -10.6328125 25.07421875 C-10.67599609 26.06228516 -10.71917969 27.05035156 -10.76367188 28.06835938 C-10.86972792 30.50764847 -10.97052224 32.94716529 -11.0703125 35.38671875 C-14.7003125 35.38671875 -18.3303125 35.38671875 -22.0703125 35.38671875 C-22.0703125 24.16671875 -22.0703125 12.94671875 -22.0703125 1.38671875 C-19.1003125 1.38671875 -16.1303125 1.38671875 -13.0703125 1.38671875 C-12.4103125 2.37671875 -11.7503125 3.36671875 -11.0703125 4.38671875 C-10.4103125 3.72671875 -9.7503125 3.06671875 -9.0703125 2.38671875 C-5.69428444 0.13603338 -3.95146679 -0.21621233 0 0 Z " fill="#3D3D3D" transform="translate(235.0703125,68.61328125)"/>
<path d="M0 0 C0.495 2.97 0.495 2.97 1 6 C-0.15628906 6.50660156 -0.15628906 6.50660156 -1.3359375 7.0234375 C-2.33882812 7.46945313 -3.34171875 7.91546875 -4.375 8.375 C-5.37273437 8.81585938 -6.37046875 9.25671875 -7.3984375 9.7109375 C-10.08022479 10.86712444 -10.08022479 10.86712444 -12 13 C-12.46396693 15.89223503 -12.46396693 15.89223503 -12.625 19.125 C-12.69976562 20.22070312 -12.77453125 21.31640625 -12.8515625 22.4453125 C-12.90054688 23.28835937 -12.94953125 24.13140625 -13 25 C-12.01 25 -11.02 25 -10 25 C-10 21.7 -10 18.4 -10 15 C-9.67 15 -9.34 15 -9 15 C-8.67 18.3 -8.34 21.6 -8 25 C-7.34 25 -6.68 25 -6 25 C-6 25.66 -6 26.32 -6 27 C-17.22 27 -28.44 27 -40 27 C-39.67 26.34 -39.34 25.68 -39 25 C-36.9375 24.375 -36.9375 24.375 -35 24 C-35.34786708 22.02463255 -35.34786708 22.02463255 -36 20 C-36.66 19.67 -37.32 19.34 -38 19 C-34.00415551 14.68496083 -30.53455721 11.2948164 -25 9 C-24.01 9.66 -23.02 10.32 -22 11 C-22.57272978 14.34938173 -23.5568386 15.86220413 -26.0625 18.125 C-27.69832205 19.56934701 -27.69832205 19.56934701 -29 21 C-29 21.66 -29 22.32 -29 23 C-25.2397616 21.44765762 -22.95300505 19.12827962 -20.15625 16.2109375 C-19.23972656 15.26992187 -18.32320312 14.32890625 -17.37890625 13.359375 C-15.93336144 11.86408572 -14.49120785 10.36580106 -13.05419922 8.86230469 C-11.65964367 7.40740551 -10.25186339 5.96521886 -8.84375 4.5234375 C-7.59368164 3.222854 -7.59368164 3.222854 -6.31835938 1.89599609 C-4 0 -4 0 0 0 Z " fill="#CED8BF" transform="translate(77,94)"/>
<path d="M0 0 C0.33 0.99 0.66 1.98 1 3 C8.26 3 15.52 3 23 3 C22.67 3.99 22.34 4.98 22 6 C15.07 6 8.14 6 1 6 C1.103125 7.876875 1.20625 9.75375 1.3125 11.6875 C1.39951172 13.27111328 1.39951172 13.27111328 1.48828125 14.88671875 C2.05227251 18.31802433 2.87610874 20.25824947 5 23 C6.99693687 24.21143606 6.99693687 24.21143606 9.1875 24.8125 C10.445625 25.204375 11.70375 25.59625 13 26 C12.67 26.66 12.34 27.32 12 28 C8.9375 28.625 8.9375 28.625 6 29 C5.67 30.65 5.34 32.3 5 34 C10.55493924 35.02703748 10.55493924 35.02703748 16 34 C16 32.35 16 30.7 16 29 C16.66 28.67 17.32 28.34 18 28 C19.35439668 30.70879335 19.06501451 33.00933268 19 36 C12.74175824 40.04945055 12.74175824 40.04945055 9.1875 39.8125 C7 39 7 39 5 38 C0.85370185 38.03258388 -3.04926227 38.70289446 -7 39.9375 C-10.26360908 43.30309687 -9.90663547 47.47606433 -10 52 C-10.99 52 -11.98 52 -13 52 C-13.10841951 50.08458862 -13.18578079 48.16740227 -13.25 46.25 C-13.29640625 45.18265625 -13.3428125 44.1153125 -13.390625 43.015625 C-13 40 -13 40 -11.23828125 37.71875 C-9.12510191 36.0960643 -7.43931453 35.11768134 -4.9375 34.25 C-4.26589844 34.00765625 -3.59429687 33.7653125 -2.90234375 33.515625 C-1 33 -1 33 2 33 C1.896875 31.783125 1.79375 30.56625 1.6875 29.3125 C1.62949219 28.62800781 1.57148437 27.94351563 1.51171875 27.23828125 C1.12026347 24.87965976 1.12026347 24.87965976 -0.53125 22.8125 C-2.64257527 18.76953672 -2.32552319 15.17148401 -2.1875 10.6875 C-2.17396484 9.85154297 -2.16042969 9.01558594 -2.14648438 8.15429688 C-2.11131217 6.10258502 -2.05751048 4.05120725 -2 2 C-1.34 2 -0.68 2 0 2 C0 1.34 0 0.68 0 0 Z " fill="#11150F" transform="translate(77,67)"/>
<path d="M0 0 C0 1.65 0 3.3 0 5 C0.66 5 1.32 5 2 5 C3.34882775 7.69765551 3 10.01578022 3 13 C3.495 13.495 3.495 13.495 4 14 C4 16.64 4 19.28 4 22 C-31.97 22 -67.94 22 -105 22 C-105 21.67 -105 21.34 -105 21 C-103.31323402 20.98786972 -103.31323402 20.98786972 -101.59239197 20.97549438 C-90.98413217 20.89793953 -80.37599915 20.81017661 -69.76790524 20.71247292 C-64.31445283 20.66257164 -58.86101922 20.61624098 -53.4074707 20.578125 C-48.14244943 20.54119439 -42.87758775 20.49481319 -37.61270332 20.44193649 C-35.60614388 20.42343387 -33.59955028 20.40831073 -31.59293938 20.39665604 C-28.77785853 20.37972287 -25.96313992 20.35067073 -23.14819336 20.31884766 C-21.90956795 20.31560738 -21.90956795 20.31560738 -20.6459198 20.31230164 C-15.74329292 20.24171007 -11.62347004 19.68342818 -7 18 C-5.35185098 16.1343014 -5.35185098 16.1343014 -4.5625 13.875 C-4.25441406 13.15054688 -3.94632812 12.42609375 -3.62890625 11.6796875 C-3.42136719 11.12539062 -3.21382813 10.57109375 -3 10 C-9.90056836 13.96399867 -9.90056836 13.96399867 -16 19 C-16.99 19 -17.98 19 -19 19 C-18.41636645 15.50205746 -17.20815924 13.82362239 -14.7265625 11.328125 C-13.7365625 10.33232422 -13.7365625 10.33232422 -12.7265625 9.31640625 C-11.68628906 8.29353516 -11.68628906 8.29353516 -10.625 7.25 C-9.93921875 6.55261719 -9.2534375 5.85523437 -8.546875 5.13671875 C-7.88429688 4.47800781 -7.22171875 3.81929688 -6.5390625 3.140625 C-5.93271973 2.53766602 -5.32637695 1.93470703 -4.70166016 1.31347656 C-3 0 -3 0 0 0 Z " fill="#D7E5C6" transform="translate(138,100)"/>
<path d="M0 0 C1.59908203 0.01450195 1.59908203 0.01450195 3.23046875 0.02929688 C11.08181662 0.14431662 11.08181662 0.14431662 12.25 1.3125 C12.48828125 3.203125 12.48828125 3.203125 12.5625 5.5625 C12.59988281 6.33078125 12.63726562 7.0990625 12.67578125 7.890625 C12.02983253 11.56482871 11.1504251 12.91025563 8.25 15.3125 C4.48417755 15.9330245 0.80328403 15.78186133 -3 15.625 C-4.03125 15.60244141 -5.0625 15.57988281 -6.125 15.55664062 C-8.66814065 15.49777163 -11.20833113 15.41560065 -13.75 15.3125 C-13.75 14.9825 -13.75 14.6525 -13.75 14.3125 C-6.82 14.3125 0.11 14.3125 7.25 14.3125 C7.25 13.6525 7.25 12.9925 7.25 12.3125 C6.31933716 12.27491577 6.31933716 12.27491577 5.36987305 12.23657227 C2.55887603 12.12053279 -0.25179241 11.99784241 -3.0625 11.875 C-4.03896484 11.83568359 -5.01542969 11.79636719 -6.02148438 11.75585938 C-6.95927734 11.71396484 -7.89707031 11.67207031 -8.86328125 11.62890625 C-10.15939331 11.57391968 -10.15939331 11.57391968 -11.48168945 11.51782227 C-13.75 11.3125 -13.75 11.3125 -16.75 10.3125 C-17.0625 7.5625 -17.0625 7.5625 -16.75 4.3125 C-12.2934336 -1.13874862 -6.44298188 -0.17787373 0 0 Z " fill="#22271D" transform="translate(91.75,58.6875)"/>
<path d="M0 0 C13.39497605 -0.04626156 26.78993321 -0.08183768 40.18497276 -0.10362434 C46.40426828 -0.11407879 52.62350929 -0.12826821 58.84277344 -0.15087891 C64.84035404 -0.17254815 70.8378821 -0.1845561 76.83549881 -0.18975449 C79.12812757 -0.19346091 81.42075333 -0.20069821 83.71335983 -0.21146011 C86.91492771 -0.22589636 90.11627612 -0.22798125 93.31787109 -0.22705078 C94.27380661 -0.23424133 95.22974213 -0.24143188 96.21464539 -0.24884033 C97.51875618 -0.24471634 97.51875618 -0.24471634 98.84921265 -0.24050903 C99.60692648 -0.24235262 100.36464031 -0.24419621 101.14531517 -0.24609566 C103 0 103 0 105 2 C105.24050903 3.87295532 105.24050903 3.87295532 105.22705078 6.17431641 C105.22689972 7.03505768 105.22674866 7.89579895 105.22659302 8.78262329 C105.21627045 9.71287323 105.20594788 10.64312317 105.1953125 11.6015625 C105.1924826 12.55316254 105.18965271 13.50476257 105.18673706 14.48519897 C105.17551989 17.53192592 105.15041263 20.57836154 105.125 23.625 C105.11497218 25.68749576 105.10584599 27.74999612 105.09765625 29.8125 C105.07557554 34.87511267 105.0410353 39.9375069 105 45 C104.01 45.495 104.01 45.495 103 46 C102.970271 44.15269287 102.970271 44.15269287 102.93994141 42.26806641 C102.86400818 37.70942339 102.77527237 33.15110473 102.68261719 28.59277344 C102.64427651 26.61790356 102.6094327 24.64296264 102.578125 22.66796875 C102.53258453 19.83307455 102.47457285 16.9986717 102.4140625 14.1640625 C102.40251129 13.27756012 102.39096008 12.39105774 102.37905884 11.47769165 C102.35918915 10.65699188 102.33931946 9.83629211 102.31884766 8.99072266 C102.30552399 8.26680328 102.29220032 7.54288391 102.2784729 6.79702759 C102.14212079 4.74846505 102.14212079 4.74846505 100 3 C98.11212498 2.68726117 98.11212498 2.68726117 95.92514038 2.7215271 C95.07256149 2.71036362 94.2199826 2.69920013 93.34156799 2.68769836 C92.40433395 2.68553818 91.46709991 2.68337799 90.50146484 2.68115234 C89.51606216 2.67110672 88.53065948 2.6610611 87.51539612 2.65071106 C84.24724937 2.61973645 80.97918505 2.60280431 77.7109375 2.5859375 C75.4493437 2.56723734 73.18775697 2.54766481 70.92617798 2.5272522 C64.96513013 2.47580335 59.00405962 2.43624599 53.04290771 2.39910889 C46.96344338 2.35914902 40.88407431 2.30802021 34.8046875 2.2578125 C22.86985846 2.16090228 10.93497579 2.07654597 -1 2 C-0.67 1.34 -0.34 0.68 0 0 Z " fill="#010300" transform="translate(40,42)"/>
<path d="M0 0 C1.6396875 0.0928125 1.6396875 0.0928125 3.3125 0.1875 C3.3125 1.1775 3.3125 2.1675 3.3125 3.1875 C4.6325 3.1875 5.9525 3.1875 7.3125 3.1875 C5.74967018 6.95353869 3.4061525 9.32389151 0.5234375 12.171875 C0.06015045 12.63233215 -0.4031366 13.09278931 -0.88046265 13.56719971 C-2.35315898 15.02875078 -3.83267403 16.48317168 -5.3125 17.9375 C-6.31556322 18.93052611 -7.31817257 19.92401089 -8.3203125 20.91796875 C-10.77080835 23.34647941 -13.2274667 25.76864675 -15.6875 28.1875 C-16.6775 27.8575 -17.6675 27.5275 -18.6875 27.1875 C-17.15106148 23.50680113 -14.90599055 21.19974796 -12.0625 18.4375 C-11.24523438 17.63828125 -10.42796875 16.8390625 -9.5859375 16.015625 C-8.95945312 15.41234375 -8.33296875 14.8090625 -7.6875 14.1875 C-9.3375 13.1975 -10.9875 12.2075 -12.6875 11.1875 C-13.3475 11.8475 -14.0075 12.5075 -14.6875 13.1875 C-16.0075 13.1875 -17.3275 13.1875 -18.6875 13.1875 C-18.10354794 9.67600159 -16.85470355 7.89718242 -14.375 5.375 C-13.78074219 4.74980469 -13.18648437 4.12460937 -12.57421875 3.48046875 C-10.6875 2.1875 -10.6875 2.1875 -8.5390625 2.578125 C-7.92804687 2.77921875 -7.31703125 2.9803125 -6.6875 3.1875 C-6.254375 2.713125 -5.82125 2.23875 -5.375 1.75 C-3.6875 0.1875 -3.6875 0.1875 0 0 Z " fill="#D7E2C5" transform="translate(54.6875,56.8125)"/>
<path d="M0 0 C5.94 0 11.88 0 18 0 C18.44262295 11.06557377 18.44262295 11.06557377 15 15 C11.79471299 17.32106991 8.87840257 17.55405751 5 17 C2.125 15.25 2.125 15.25 0 12 C-0.42081232 7.90373835 -0.22734524 4.13768332 0 0 Z " fill="#D4E0C3" transform="translate(79,75)"/>
<path d="M0 0 C0.91285263 -0.00412399 1.82570526 -0.00824799 2.76622009 -0.01249695 C3.76531403 -0.00171112 4.76440796 0.00907471 5.79377747 0.02018738 C7.37451302 0.01953026 7.37451302 0.01953026 8.98718262 0.01885986 C12.47734477 0.0209532 15.9670291 0.04431046 19.45710754 0.0677948 C21.87420387 0.0733888 24.2913036 0.07765982 26.70840454 0.08065796 C33.0756415 0.09212208 39.44267374 0.12160296 45.80982971 0.1547699 C52.30485769 0.1854369 58.79991869 0.1991561 65.29499817 0.21427917 C78.04313248 0.24647097 90.79112476 0.29711117 103.53913879 0.36076355 C103.53913879 0.69076355 103.53913879 1.02076355 103.53913879 1.36076355 C53.54413879 1.85576355 53.54413879 1.85576355 2.53913879 2.36076355 C52.03913879 2.85576355 52.03913879 2.85576355 102.53913879 3.36076355 C102.53913879 3.69076355 102.53913879 4.02076355 102.53913879 4.36076355 C67.55913879 4.69076355 32.57913879 5.02076355 -3.46086121 5.36076355 C-3.79086121 7.34076355 -4.12086121 9.32076355 -4.46086121 11.36076355 C-4.79086121 11.36076355 -5.12086121 11.36076355 -5.46086121 11.36076355 C-5.79086121 9.71076355 -6.12086121 8.06076355 -6.46086121 6.36076355 C-7.12086121 7.02076355 -7.78086121 7.68076355 -8.46086121 8.36076355 C-7.68846692 2.64504582 -5.98365493 -0.02084897 0 0 Z " fill="#2D3326" transform="translate(37.46086120605469,40.63923645019531)"/>
<path d="M0 0 C0.495 1.98 0.495 1.98 1 4 C1.66 4 2.32 4 3 4 C2.25 8.75 2.25 8.75 0 11 C-1.94838905 11.24609566 -1.94838905 11.24609566 -4.37857056 11.24050903 C-5.75840874 11.24463303 -5.75840874 11.24463303 -7.16612244 11.24884033 C-8.17816238 11.24164978 -9.19020233 11.23445923 -10.23291016 11.22705078 C-11.82805702 11.22748886 -11.82805702 11.22748886 -13.45542908 11.22793579 C-16.98338884 11.22653835 -20.51113947 11.21095756 -24.0390625 11.1953125 C-26.48000981 11.19158385 -28.92095862 11.18873618 -31.36190796 11.18673706 C-37.7965099 11.17908899 -44.23102201 11.15943041 -50.66558838 11.1373291 C-57.22756739 11.11689594 -63.78956087 11.10774076 -70.3515625 11.09765625 C-83.2344134 11.07618564 -96.11720193 11.04241826 -109 11 C-109 10.67 -109 10.34 -109 10 C-74.35 9.67 -39.7 9.34 -4 9 C-37.99 8.67 -71.98 8.34 -107 8 C-107 7.67 -107 7.34 -107 7 C-72.02 6.67 -37.04 6.34 -1 6 C-0.67 4.02 -0.34 2.04 0 0 Z " fill="#30362A" transform="translate(142,125)"/>
<path d="M0 0 C0 3.63 0 7.26 0 11 C-1.65 11.33 -3.3 11.66 -5 12 C-7.25572147 13.75549216 -7.25572147 13.75549216 -9.3203125 16.03515625 C-10.10277344 16.84404297 -10.88523438 17.65292969 -11.69140625 18.48632812 C-12.89603516 19.7615332 -12.89603516 19.7615332 -14.125 21.0625 C-15.72481358 22.74751828 -17.33127366 24.42625901 -18.9453125 26.09765625 C-19.65187988 26.84539307 -20.35844727 27.59312988 -21.08642578 28.36352539 C-23 30 -23 30 -26 30 C-26.66 28.35 -27.32 26.7 -28 25 C-24.64336963 21.59394592 -21.28023359 18.19450256 -17.91088867 14.80102539 C-16.76551869 13.64559549 -15.62194986 12.48837724 -14.48022461 11.3293457 C-12.83917523 9.66404787 -11.19176406 8.00528082 -9.54296875 6.34765625 C-9.0334819 5.82784683 -8.52399506 5.30803741 -7.99906921 4.7724762 C-3.22809365 0 -3.22809365 0 0 0 Z " fill="#D6E2C5" transform="translate(141,73)"/>
<path d="M0 0 C0.99 0.33 1.98 0.66 3 1 C1.65427113 3.99943905 0.16462899 6.08076179 -2.16455078 8.39160156 C-2.80506378 9.0319635 -3.44557678 9.67232544 -4.10549927 10.33209229 C-4.79513763 11.01140808 -5.484776 11.69072388 -6.1953125 12.390625 C-6.90275604 13.09523865 -7.61019958 13.79985229 -8.33908081 14.52581787 C-10.59639862 16.7719539 -12.86057633 19.01103009 -15.125 21.25 C-16.65800953 22.77297717 -18.19056715 24.29640939 -19.72265625 25.8203125 C-23.47654573 29.55216815 -27.23608914 33.27825351 -31 37 C-31.99 36.67 -32.98 36.34 -34 36 C-32.65427113 33.00056095 -31.16462899 30.91923821 -28.83544922 28.60839844 C-27.87467972 27.64785553 -27.87467972 27.64785553 -26.89450073 26.66790771 C-26.20486237 25.98859192 -25.515224 25.30927612 -24.8046875 24.609375 C-24.09724396 23.90476135 -23.38980042 23.20014771 -22.66091919 22.47418213 C-20.40360138 20.2280461 -18.13942367 17.98896991 -15.875 15.75 C-14.34199047 14.22702283 -12.80943285 12.70359061 -11.27734375 11.1796875 C-7.52345427 7.44783185 -3.76391086 3.72174649 0 0 Z " fill="#13170F" transform="translate(70,63)"/>
<path d="M0 0 C0.99 0.33 1.98 0.66 3 1 C1.65772899 3.98435256 0.17341717 6.07879551 -2.1328125 8.39160156 C-2.76687012 9.0319635 -3.40092773 9.67232544 -4.05419922 10.33209229 C-4.73756348 11.01140808 -5.42092773 11.69072388 -6.125 12.390625 C-6.8277002 13.09523865 -7.53040039 13.79985229 -8.25439453 14.52581787 C-9.73810104 16.01088353 -11.22432892 17.49343381 -12.71289062 18.97363281 C-14.99843591 21.24844325 -17.27309017 23.5337536 -19.546875 25.8203125 C-20.98894219 27.26105868 -22.43162935 28.70118465 -23.875 30.140625 C-24.55836426 30.82803772 -25.24172852 31.51545044 -25.94580078 32.22369385 C-26.89688721 33.16532379 -26.89688721 33.16532379 -27.8671875 34.12597656 C-28.70419189 34.96059418 -28.70419189 34.96059418 -29.55810547 35.81207275 C-31 37 -31 37 -33 37 C-32.48013873 33.16642387 -31.70280706 31.20550813 -28.94897461 28.49487305 C-28.30838608 27.85458664 -27.66779755 27.21430023 -27.00779724 26.55461121 C-26.31299759 25.8804567 -25.61819794 25.20630219 -24.90234375 24.51171875 C-24.19348526 23.80852005 -23.48462677 23.10532135 -22.75428772 22.3808136 C-20.49124831 20.14013904 -18.21469069 17.91378228 -15.9375 15.6875 C-14.39947863 14.16954329 -12.86235793 12.65067342 -11.32617188 11.13085938 C-7.56116283 7.40991918 -3.7849631 3.70063503 0 0 Z " fill="#0F130D" transform="translate(132,59)"/>
<path d="M0 0 C-0.5834885 3.37295558 -1.63101106 5.00005799 -4.05102539 7.39160156 C-4.69161392 8.0319635 -5.33220245 8.67232544 -5.99220276 9.33209229 C-6.68700241 10.01140808 -7.38180206 10.69072388 -8.09765625 11.390625 C-8.80651474 12.09523865 -9.51537323 12.79985229 -10.24571228 13.52581787 C-12.5110328 15.77434785 -14.78656208 18.01222238 -17.0625 20.25 C-18.60029335 21.77274708 -20.13741131 23.29617654 -21.67382812 24.8203125 C-25.44141802 28.5548281 -29.21744265 32.2806485 -33 36 C-33.99 35.67 -34.98 35.34 -36 35 C-34.67545005 32.07011395 -33.23486902 29.97959346 -30.97485352 27.70019531 C-30.05863976 26.76968353 -30.05863976 26.76968353 -29.12391663 25.82037354 C-28.4655632 25.16293152 -27.80720978 24.5054895 -27.12890625 23.828125 C-26.11170753 22.8044986 -26.11170753 22.8044986 -25.07395935 21.76019287 C-23.64162092 20.32211969 -22.20666541 18.88664905 -20.76928711 17.45361328 C-18.56538849 15.25288434 -16.37516477 13.03914589 -14.18554688 10.82421875 C-12.79247756 9.42887745 -11.39862384 8.03431876 -10.00390625 6.640625 C-9.34757706 5.97508606 -8.69124786 5.30954712 -8.01502991 4.62384033 C-7.40106857 4.01610779 -6.78710724 3.40837524 -6.15454102 2.78222656 C-5.61652359 2.24357971 -5.07850616 1.70493286 -4.52418518 1.14996338 C-3 0 -3 0 0 0 Z " fill="#141910" transform="translate(72,78)"/>
<path d="M0 0 C0.99 0 1.98 0 3 0 C3.52958599 11.19976305 3.52958599 11.19976305 0 16 C-0.70670728 18.69254991 -0.70670728 18.69254991 -1 21 C-1.66 20.67 -2.32 20.34 -3 20 C-3.0825 20.78375 -3.165 21.5675 -3.25 22.375 C-4 25 -4 25 -5.8125 26.375 C-8.36268322 27.10362378 -9.52747005 26.87734934 -12 26 C-12.99 25.67 -13.98 25.34 -15 25 C-15 23.35 -15 21.7 -15 20 C-12.69 19.34 -10.38 18.68 -8 18 C-8.99 17.34 -9.98 16.68 -11 16 C-10.44570312 15.82984375 -9.89140625 15.6596875 -9.3203125 15.484375 C-8.23363281 15.12085937 -8.23363281 15.12085937 -7.125 14.75 C-6.40570313 14.51796875 -5.68640625 14.2859375 -4.9453125 14.046875 C-2.4492397 12.70360691 -1.94526931 11.64675405 -1 9 C-0.55188863 6.64435404 -0.55188863 6.64435404 -0.375 4.25 C-0.30023438 3.45078125 -0.22546875 2.6515625 -0.1484375 1.828125 C-0.09945312 1.22484375 -0.05046875 0.6215625 0 0 Z " fill="#2B2F27" transform="translate(97,76)"/>
<path d="M0 0 C1.65 0 3.3 0 5 0 C4.125 4.875 4.125 4.875 3 6 C5.97 6.495 5.97 6.495 9 7 C9 7.33 9 7.66 9 8 C-26.97 8 -62.94 8 -100 8 C-100 7.67 -100 7.34 -100 7 C-98.31323402 6.98786972 -98.31323402 6.98786972 -96.59239197 6.97549438 C-85.98413217 6.89793953 -75.37599915 6.81017661 -64.76790524 6.71247292 C-59.31445283 6.66257164 -53.86101922 6.61624098 -48.4074707 6.578125 C-43.14244943 6.54119439 -37.87758775 6.49481319 -32.61270332 6.44193649 C-30.60614388 6.42343387 -28.59955028 6.40831073 -26.59293938 6.39665604 C-23.77785853 6.37972287 -20.96313992 6.35067073 -18.14819336 6.31884766 C-16.90956795 6.31560738 -16.90956795 6.31560738 -15.6459198 6.31230164 C-10.74591732 6.24174786 -6.6157765 5.70201697 -2 4 C-0.50256112 2.01432266 -0.50256112 2.01432266 0 0 Z " fill="#5E6455" transform="translate(133,114)"/>
<path d="M0 0 C1.65 0.66 3.3 1.32 5 2 C5 3.98 5 5.96 5 8 C3.02 8.99 3.02 8.99 1 10 C1.99 8.02 2.98 6.04 4 4 C-0.54822201 6.40490403 -3.77351595 9.5367133 -7.3125 13.1875 C-8.13717773 14.02571289 -8.13717773 14.02571289 -8.97851562 14.88085938 C-10.32363696 16.24937412 -11.66246643 17.62406833 -13 19 C-13.66 18.67 -14.32 18.34 -15 18 C-15 17.34 -15 16.68 -15 16 C-16.98 16.66 -18.96 17.32 -21 18 C-16.30233025 12.33870569 -11.25276628 7.14771096 -6 2 C-5.67 2.66 -5.34 3.32 -5 4 C-2.03268602 2.16343011 -2.03268602 2.16343011 0 0 Z " fill="#CFDABF" transform="translate(68,74)"/>
<path d="M0 0 C0.82741699 0.01047363 1.65483398 0.02094727 2.50732422 0.03173828 C3.40322266 0.03818359 4.29912109 0.04462891 5.22216797 0.05126953 C6.62789062 0.07640625 6.62789062 0.07640625 8.06201172 0.10205078 C9.00689453 0.11107422 9.95177734 0.12009766 10.92529297 0.12939453 C13.26278464 0.15300556 15.59977295 0.18593562 17.93701172 0.22705078 C17.93701172 2.20705078 17.93701172 4.18705078 17.93701172 6.22705078 C15.53641355 7.42734986 14.04340522 7.34164821 11.36669922 7.32470703 C10.47080078 7.32148437 9.57490234 7.31826172 8.65185547 7.31494141 C7.71470703 7.3065625 6.77755859 7.29818359 5.81201172 7.28955078 C4.86712891 7.28503906 3.92224609 7.28052734 2.94873047 7.27587891 C0.61142785 7.26407435 -1.72574889 7.24760837 -4.06298828 7.22705078 C-4.18798828 4.85205078 -4.18798828 4.85205078 -4.06298828 2.22705078 C-2.06298828 0.22705078 -2.06298828 0.22705078 0 0 Z " fill="#D0DABF" transform="translate(82.06298828125,62.77294921875)"/>
<path d="M0 0 C0.66 0.33 1.32 0.66 2 1 C1.13766343 5.53278896 -1.49308393 7.92644232 -4.6796875 11.078125 C-5.2482547 11.64956238 -5.8168219 12.22099976 -6.40261841 12.80975342 C-7.60440615 14.01357987 -8.80997972 15.21363715 -10.01904297 16.41015625 C-11.87175533 18.2467835 -13.70790156 20.0988862 -15.54296875 21.953125 C-16.7125807 23.12075506 -17.88312263 24.28745446 -19.0546875 25.453125 C-19.60478485 26.00929504 -20.1548822 26.56546509 -20.72164917 27.13848877 C-24.65509547 31 -24.65509547 31 -28 31 C-27.13266401 26.3381327 -24.2867307 23.90672902 -20.99609375 20.703125 C-20.39821548 20.10949158 -19.80033722 19.51585815 -19.18434143 18.90423584 C-17.27565898 17.01232805 -15.3568046 15.13112501 -13.4375 13.25 C-12.14059164 11.96813998 -10.84435922 10.6855957 -9.54882812 9.40234375 C-6.37367043 6.26023928 -3.18935054 3.12769461 0 0 Z " fill="#0E120B" transform="translate(136,70)"/>
<path d="M0 0 C-0.59699131 3.33135891 -1.72012281 5.21275667 -3.9375 7.75 C-4.46214844 8.36359375 -4.98679688 8.9771875 -5.52734375 9.609375 C-7 11 -7 11 -9 11 C-9 11.66 -9 12.32 -9 13 C-10.61699264 14.7685857 -12.24306176 16.37756421 -14 18 C-14.66257812 18.62132813 -15.32515625 19.24265625 -16.0078125 19.8828125 C-16.70648438 20.51960938 -17.40515625 21.15640625 -18.125 21.8125 C-18.78757812 22.41707031 -19.45015625 23.02164063 -20.1328125 23.64453125 C-22 25 -22 25 -25 25 C-24.47679149 20.85982832 -22.29215749 18.90510444 -19.4140625 16.015625 C-18.48335938 15.08105469 -17.55265625 14.14648438 -16.59375 13.18359375 C-16.10648438 12.7026123 -15.61921875 12.22163086 -15.1171875 11.72607422 C-13.62656598 10.25154907 -12.15265935 8.7616645 -10.6796875 7.26953125 C-9.27976563 5.87541016 -9.27976563 5.87541016 -7.8515625 4.453125 C-6.99385254 3.59879883 -6.13614258 2.74447266 -5.25244141 1.86425781 C-3 0 -3 0 0 0 Z " fill="#262A20" transform="translate(138,85)"/>
<path d="M0 0 C-1.58431453 3.90851199 -4.26635095 6.52367356 -7.2265625 9.421875 C-7.73424164 9.92672424 -8.24192078 10.43157349 -8.76498413 10.95172119 C-10.38033842 12.55592096 -12.00252209 14.15300856 -13.625 15.75 C-14.72441698 16.83938107 -15.82338059 17.9292199 -16.921875 19.01953125 C-19.6093602 21.68501885 -22.30299021 24.34415143 -25 27 C-25.99 26.67 -26.98 26.34 -28 26 C-25.67669953 20.40777501 -20.87903684 16.50708774 -16.66943359 12.29882812 C-15.12651148 10.75151578 -13.60030036 9.18890211 -12.07421875 7.625 C-11.09473203 6.63964785 -10.11429482 5.65523941 -9.1328125 4.671875 C-8.24480957 3.7756543 -7.35680664 2.87943359 -6.44189453 1.95605469 C-4 0 -4 0 0 0 Z " fill="#0C1009" transform="translate(75,91)"/>
<path d="M0 0 C0.99 0.33 1.98 0.66 3 1 C1.43717018 4.76603869 -0.9063475 7.13639151 -3.7890625 9.984375 C-4.25234955 10.44483215 -4.7156366 10.90528931 -5.19296265 11.37969971 C-6.66565898 12.84125078 -8.14517403 14.29567168 -9.625 15.75 C-10.62806322 16.74302611 -11.63067257 17.73651089 -12.6328125 18.73046875 C-15.08330835 21.15897941 -17.5399667 23.58114675 -20 26 C-20.99 25.67 -21.98 25.34 -23 25 C-21.43717018 21.23396131 -19.0936525 18.86360849 -16.2109375 16.015625 C-15.74765045 15.55516785 -15.2843634 15.09471069 -14.80703735 14.62030029 C-13.33434102 13.15874922 -11.85482597 11.70432832 -10.375 10.25 C-9.37193678 9.25697389 -8.36932743 8.26348911 -7.3671875 7.26953125 C-4.91669165 4.84102059 -2.4600333 2.41885325 0 0 Z " fill="#0A0E07" transform="translate(59,59)"/>
<path d="M0 0 C0.33 0.99 0.66 1.98 1 3 C8.26 3 15.52 3 23 3 C22.67 3.99 22.34 4.98 22 6 C15.07 6 8.14 6 1 6 C1 10.29 1 14.58 1 19 C0.01 19.33 -0.98 19.66 -2 20 C-2 14.06 -2 8.12 -2 2 C-1.34 2 -0.68 2 0 2 C0 1.34 0 0.68 0 0 Z " fill="#0B0C09" transform="translate(77,67)"/>
<path d="M0 0 C0.33 0 0.66 0 1 0 C1 3.63 1 7.26 1 11 C1.99 11 2.98 11 4 11 C4 7.7 4 4.4 4 1 C4.33 1 4.66 1 5 1 C5.33 4.3 5.66 7.6 6 11 C6.66 11 7.32 11 8 11 C8 11.66 8 12.32 8 13 C2.39 13 -3.22 13 -9 13 C-9 11.35 -9 9.7 -9 8 C-8.01 7.67 -7.02 7.34 -6 7 C-6 6.34 -6 5.68 -6 5 C-5.34 5 -4.68 5 -4 5 C-3.67 4.34 -3.34 3.68 -3 3 C-2.01 3 -1.02 3 0 3 C0 2.01 0 1.02 0 0 Z " fill="#CAD6B9" transform="translate(63,108)"/>
<path d="M0 0 C0.99 0 1.98 0 3 0 C2.72072387 5.49243063 -0.59304529 8.18996919 -4.3125 11.8125 C-4.89451172 12.40998047 -5.47652344 13.00746094 -6.07617188 13.62304688 C-6.64529297 14.18701172 -7.21441406 14.75097656 -7.80078125 15.33203125 C-8.57675659 16.10123901 -8.57675659 16.10123901 -9.3684082 16.88598633 C-11 18 -11 18 -15 18 C-15 15 -15 15 -13.3203125 13.28125 C-12.59585938 12.6934375 -11.87140625 12.105625 -11.125 11.5 C-8.51805546 9.36959371 -6.89331428 7.83997143 -5 5 C-4.34 5 -3.68 5 -3 5 C-2.690625 4.360625 -2.38125 3.72125 -2.0625 3.0625 C-1 1 -1 1 0 0 Z " fill="#1F251C" transform="translate(117,59)"/>
<path d="M0 0 C-0.58363355 3.49794254 -1.79184076 5.17637761 -4.2734375 7.671875 C-4.9334375 8.33574219 -5.5934375 8.99960938 -6.2734375 9.68359375 C-6.96695313 10.36550781 -7.66046875 11.04742187 -8.375 11.75 C-9.06078125 12.44738281 -9.7465625 13.14476563 -10.453125 13.86328125 C-11.11570312 14.52199219 -11.77828125 15.18070313 -12.4609375 15.859375 C-13.06728027 16.46233398 -13.67362305 17.06529297 -14.29833984 17.68652344 C-16 19 -16 19 -19 19 C-18.41636645 15.50205746 -17.20815924 13.82362239 -14.7265625 11.328125 C-14.0665625 10.66425781 -13.4065625 10.00039062 -12.7265625 9.31640625 C-12.03304687 8.63449219 -11.33953125 7.95257813 -10.625 7.25 C-9.93921875 6.55261719 -9.2534375 5.85523437 -8.546875 5.13671875 C-7.88429687 4.47800781 -7.22171875 3.81929688 -6.5390625 3.140625 C-5.62954834 2.23618652 -5.62954834 2.23618652 -4.70166016 1.31347656 C-3 0 -3 0 0 0 Z " fill="#0A0E08" transform="translate(138,100)"/>
<path d="M0 0 C0.33 0 0.66 0 1 0 C1.01458252 0.64026123 1.02916504 1.28052246 1.04418945 1.94018555 C1.11891382 4.85654831 1.21549293 7.77179687 1.3125 10.6875 C1.33505859 11.69490234 1.35761719 12.70230469 1.38085938 13.74023438 C1.57438403 19.07095886 1.82863454 22.54659319 5 27 C5.35975418 29.74852193 5.14184108 32.2104588 5 35 C3 31.25 3 31.25 3 29 C2.01 28.67 1.02 28.34 0 28 C0.33 27.34 0.66 26.68 1 26 C0.236875 26.226875 -0.52625 26.45375 -1.3125 26.6875 C-4 27 -4 27 -5.6875 25.6875 C-6.120625 25.130625 -6.55375 24.57375 -7 24 C-7.66 23.34 -8.32 22.68 -9 22 C-7.68 21.01 -6.36 20.02 -5 19 C-5 19.99 -5 20.98 -5 22 C-3.35 21.34 -1.7 20.68 0 20 C0 13.4 0 6.8 0 0 Z " fill="#B5C0A8" transform="translate(74,65)"/>
<path d="M0 0 C4.68691225 0.5449898 8.57102408 1.57102408 12 5 C12.07244053 7.01964199 12.08377188 9.04167124 12.0625 11.0625 C12.05347656 12.16722656 12.04445313 13.27195312 12.03515625 14.41015625 C12.02355469 15.26480469 12.01195313 16.11945313 12 17 C10.68 17 9.36 17 8 17 C7.67 13.37 7.34 9.74 7 6 C4.69 5.01 2.38 4.02 0 3 C0 2.01 0 1.02 0 0 Z " fill="#24291F" transform="translate(99,102)"/>
<path d="M0 0 C0.33 0.99 0.66 1.98 1 3 C2.65 2.34 4.3 1.68 6 1 C6.28875 1.639375 6.5775 2.27875 6.875 2.9375 C7.82823451 5.15206079 7.82823451 5.15206079 10 6 C9.525625 6.433125 9.05125 6.86625 8.5625 7.3125 C6.54700281 9.48923696 5.99727555 11.2357928 6.0078125 14.19140625 C6.08607899 15.77499813 6.1694315 17.35834665 6.2578125 18.94140625 C6.17273438 19.62074219 6.08765625 20.30007812 6 21 C5.01 21.66 4.02 22.32 3 23 C2.34 22.34 1.68 21.68 1 21 C1.99 21 2.98 21 4 21 C3.96694498 19.06177404 3.89750095 17.12414332 3.8125 15.1875 C3.77769531 14.10855469 3.74289063 13.02960938 3.70703125 11.91796875 C3.28722338 8.8084338 3.28722338 8.8084338 0.57421875 7.23828125 C-0.27527344 6.82964844 -1.12476562 6.42101562 -2 6 C-2.66 5.34 -3.32 4.68 -4 4 C-3.01 4 -2.02 4 -1 4 C-0.67 2.68 -0.34 1.36 0 0 Z " fill="#C6CFB9" transform="translate(107,98)"/>
<path d="M0 0 C0.99 0.33 1.98 0.66 3 1 C1.4700928 4.60561914 -0.68696932 6.9859199 -3.4375 9.75 C-4.61119141 10.94882813 -4.61119141 10.94882813 -5.80859375 12.171875 C-8 14 -8 14 -11 14 C-13.15028304 14.94978897 -13.15028304 14.94978897 -15 16 C-10.30233025 10.33870569 -5.25276628 5.14771096 0 0 Z " fill="#10150D" transform="translate(132,59)"/>
<path d="M0 0 C2.0625 0.4375 2.0625 0.4375 4 1 C3.01 1.33 2.02 1.66 1 2 C1 2.99 1 3.98 1 5 C1.99 5.33 2.98 5.66 4 6 C3.01 6.33 2.02 6.66 1 7 C0.67 8.98 0.34 10.96 0 13 C-0.33 13 -0.66 13 -1 13 C-1 10.03 -1 7.06 -1 4 C-7.93 3.67 -14.86 3.34 -22 3 C-22 6.3 -22 9.6 -22 13 C-22.33 13 -22.66 13 -23 13 C-23 9.37 -23 5.74 -23 2 C-21.42347656 1.93941406 -19.84695312 1.87882812 -18.22265625 1.81640625 C-16.16926057 1.73202013 -14.11587569 1.64737117 -12.0625 1.5625 C-10.50112305 1.50352539 -10.50112305 1.50352539 -8.90820312 1.44335938 C-7.42416992 1.38051758 -7.42416992 1.38051758 -5.91015625 1.31640625 C-4.53549194 1.26141968 -4.53549194 1.26141968 -3.13305664 1.20532227 C-1.0179272 1.22996136 -1.0179272 1.22996136 0 0 Z " fill="#B8BFAB" transform="translate(101,72)"/>
<path d="M0 0 C2.64 0.33 5.28 0.66 8 1 C8 1.66 8 2.32 8 3 C7.34 3 6.68 3 6 3 C6.061875 4.423125 6.061875 4.423125 6.125 5.875 C6 9 6 9 4 11 C1.375 11.125 1.375 11.125 -1 11 C-0.67 10.01 -0.34 9.02 0 8 C0.06665376 6.60560336 0.08538199 5.20830125 0.0625 3.8125 C0.041875 2.554375 0.02125 1.29625 0 0 Z " fill="#D9E5C7" transform="translate(112,110)"/>
<path d="M0 0 C0.1875 2.875 0.1875 2.875 0 6 C-3 8 -3 8 -5 7.6875 C-5.66 7.460625 -6.32 7.23375 -7 7 C-7.99 6.67 -8.98 6.34 -10 6 C-10 4.35 -10 2.7 -10 1 C-8.5209084 0.83266843 -7.04172444 0.66615314 -5.5625 0.5 C-4.32693359 0.36078125 -4.32693359 0.36078125 -3.06640625 0.21875 C-1 0 -1 0 0 0 Z " fill="#CDD9BE" transform="translate(92,95)"/>
<path d="M0 0 C2.97 0.495 2.97 0.495 6 1 C4.65467623 5.40287778 2.90569587 7.54758631 -1 10 C-2.65 10 -4.3 10 -6 10 C-4.02 6.7 -2.04 3.4 0 0 Z " fill="#D1DFBD" transform="translate(65,88)"/>
<path d="M0 0 C0.33 0 0.66 0 1 0 C1.10933628 1.39403756 1.18619553 2.79063776 1.25 4.1875 C1.29640625 4.96480469 1.3428125 5.74210937 1.390625 6.54296875 C0.80029615 10.25613725 -0.07550414 11.58559062 -3 14 C-6.76592697 14.62009394 -10.44666703 14.46936335 -14.25 14.3125 C-15.28125 14.28994141 -16.3125 14.26738281 -17.375 14.24414062 C-19.91814065 14.18527163 -22.45833113 14.10310065 -25 14 C-25 13.67 -25 13.34 -25 13 C-18.07 13 -11.14 13 -4 13 C-4.33 11.68 -4.66 10.36 -5 9 C-4.34 9 -3.68 9 -3 9 C-3 7.02 -3 5.04 -3 3 C-2.34 3.33 -1.68 3.66 -1 4 C-0.67 2.68 -0.34 1.36 0 0 Z " fill="#2A3024" transform="translate(103,60)"/>
<path d="M0 0 C-0.33 1.65 -0.66 3.3 -1 5 C-1.66 5 -2.32 5 -3 5 C-3.433125 5.928125 -3.433125 5.928125 -3.875 6.875 C-5 9 -5 9 -7 11 C-8.32 11 -9.64 11 -11 11 C-10.42073787 7.46180427 -9.15676523 5.74971757 -6.625 3.25 C-6.01914062 2.63640625 -5.41328125 2.0228125 -4.7890625 1.390625 C-3 0 -3 0 0 0 Z " fill="#272E21" transform="translate(47,59)"/>
<path d="M0 0 C1.32 0.66 2.64 1.32 4 2 C3.75 3.875 3.75 3.875 3 6 C0.41847698 7.72101535 -0.84918025 8 -4 8 C-4 8.66 -4 9.32 -4 10 C-4.99 10.33 -5.98 10.66 -7 11 C-5.72278474 6.00724943 -3.82669043 3.42388092 0 0 Z " fill="#D5E1C4" transform="translate(51,103)"/>
<path d="M0 0 C6.27 0 12.54 0 19 0 C19 1.65 19 3.3 19 5 C16.65147472 6.17426264 15.26225935 6.11508173 12.6484375 6.09765625 C11.79765625 6.09443359 10.946875 6.09121094 10.0703125 6.08789062 C9.18085937 6.07951172 8.29140625 6.07113281 7.375 6.0625 C6.4778125 6.05798828 5.580625 6.05347656 4.65625 6.04882812 C2.43743352 6.03702591 0.21874982 6.02056155 -2 6 C-1.67 5.01 -1.34 4.02 -1 3 C-1 3.66 -1 4.32 -1 5 C7.415 4.505 7.415 4.505 16 4 C16 3.01 16 2.02 16 1 C10.72 1 5.44 1 0 1 C0 0.67 0 0.34 0 0 Z " fill="#DAE4CB" transform="translate(81,64)"/>
<path d="M0 0 C0.99 0 1.98 0 3 0 C3.55353075 11.70615034 3.55353075 11.70615034 0 16 C-0.33 15.34 -0.66 14.68 -1 14 C-1.66 13.67 -2.32 13.34 -3 13 C-2.68289062 12.43796875 -2.36578125 11.8759375 -2.0390625 11.296875 C-0.93125475 8.84803683 -0.61024601 6.91612145 -0.375 4.25 C-0.30023438 3.45078125 -0.22546875 2.6515625 -0.1484375 1.828125 C-0.09945312 1.22484375 -0.05046875 0.6215625 0 0 Z " fill="#0D1209" transform="translate(97,76)"/>
<path d="M0 0 C-1.39153744 4.42761914 -3.52071486 6.9556255 -7 10 C-7.66 10 -8.32 10 -9 10 C-9 10.66 -9 11.32 -9 12 C-11 13.625 -11 13.625 -13 15 C-13.66 14.34 -14.32 13.68 -15 13 C-12.88094537 10.82722286 -10.75527122 8.66173092 -8.625 6.5 C-8.02171875 5.87996094 -7.4184375 5.25992188 -6.796875 4.62109375 C-6.21679688 4.03457031 -5.63671875 3.44804688 -5.0390625 2.84375 C-4.50490723 2.29912109 -3.97075195 1.75449219 -3.42041016 1.19335938 C-2 0 -2 0 0 0 Z " fill="#151811" transform="translate(138,86)"/>
<path d="M0 0 C6.93 0 13.86 0 21 0 C20.67 1.65 20.34 3.3 20 5 C19.34 4.34 18.68 3.68 18 3 C15.96939341 2.63105418 15.96939341 2.63105418 13.6484375 2.5859375 C12.79765625 2.54726563 11.946875 2.50859375 11.0703125 2.46875 C10.18085937 2.4378125 9.29140625 2.406875 8.375 2.375 C7.4778125 2.33632813 6.580625 2.29765625 5.65625 2.2578125 C3.4377073 2.16340643 1.21917597 2.07783252 -1 2 C-0.67 1.34 -0.34 0.68 0 0 Z " fill="#000300" transform="translate(82,60)"/>
<path d="M0 0 C1.65 0 3.3 0 5 0 C4.6875 2.375 4.6875 2.375 4 5 C0.68629 7.20914 -0.3446021 7.22481553 -4.1875 7.125 C-5.08855469 7.10695313 -5.98960938 7.08890625 -6.91796875 7.0703125 C-7.60503906 7.04710938 -8.29210937 7.02390625 -9 7 C-6.66785852 5.79371992 -4.50357861 4.8345262 -2 4 C-0.79117904 1.99983534 -0.79117904 1.99983534 0 0 Z " fill="#CAD3BA" transform="translate(133,114)"/>
<path d="M0 0 C-0.33 1.32 -0.66 2.64 -1 4 C-1.88993652 4.15650024 -1.88993652 4.15650024 -2.79785156 4.31616211 C-5.33922519 5.10534033 -6.39312304 6.04491673 -8.234375 7.94140625 C-8.80800781 8.52470703 -9.38164062 9.10800781 -9.97265625 9.70898438 C-10.85244141 10.62647461 -10.85244141 10.62647461 -11.75 11.5625 C-12.35199219 12.17802734 -12.95398438 12.79355469 -13.57421875 13.42773438 C-15.05634381 14.94514813 -16.5290967 16.47170596 -18 18 C-18 14.32519603 -17.33942633 13.95495666 -14.82421875 11.42578125 C-13.82938477 10.42514648 -13.82938477 10.42514648 -12.81445312 9.40429688 C-12.11255859 8.71400391 -11.41066406 8.02371094 -10.6875 7.3125 C-9.99720703 6.61060547 -9.30691406 5.90871094 -8.59570312 5.18554688 C-7.92861328 4.52232422 -7.26152344 3.85910156 -6.57421875 3.17578125 C-5.96151123 2.56645752 -5.34880371 1.95713379 -4.7175293 1.3293457 C-3 0 -3 0 0 0 Z " fill="#131811" transform="translate(138,100)"/>
<path d="M0 0 C0.66 0.66 1.32 1.32 2 2 C-5.26 2 -12.52 2 -20 2 C-17.18885698 -0.81114302 -14.33852547 -0.49212709 -10.5625 -0.6875 C-9.88123047 -0.73455078 -9.19996094 -0.78160156 -8.49804688 -0.83007812 C-5.32532788 -1.01963332 -3.04434804 -1.01478268 0 0 Z " fill="#D8E2C9" transform="translate(100,57)"/>
<path d="M0 0 C0.99 0.33 1.98 0.66 3 1 C3 2.65 3 4.3 3 6 C1.35 6.33 -0.3 6.66 -2 7 C-2 7.99 -2 8.98 -2 10 C-2.99 9.67 -3.98 9.34 -5 9 C-2.25 2.25 -2.25 2.25 0 0 Z " fill="#D2DDBE" transform="translate(129,67)"/>
<path d="M0 0 C0.33 0 0.66 0 1 0 C1 6.27 1 12.54 1 19 C-0.32 18.34 -1.64 17.68 -3 17 C-2.67 16.0925 -2.34 15.185 -2 14.25 C-0.80394277 10.92954193 -0.80394277 10.92954193 -1 7 C-1.66 6.34 -2.32 5.68 -3 5 C-1.125 1.125 -1.125 1.125 0 0 Z " fill="#DBE7C7" transform="translate(140,88)"/>
<path d="M0 0 C0.99 0.33 1.98 0.66 3 1 C2.125 7.75 2.125 7.75 1 10 C-1.97 9.505 -1.97 9.505 -5 9 C-4.505 8.566875 -4.01 8.13375 -3.5 7.6875 C-1.66781808 6.00259517 -1.66781808 6.00259517 -2 3 C-1.01 3 -0.02 3 1 3 C0.67 2.01 0.34 1.02 0 0 Z " fill="#DAE6C8" transform="translate(105,92)"/>
<path d="M0 0 C0.66 0 1.32 0 2 0 C2.6875 1.8125 2.6875 1.8125 3 4 C2.02246356 5.02196992 1.0194119 6.01979625 0 7 C-0.72197162 9.60611077 -0.72197162 9.60611077 -1 12 C-1.99 12.33 -2.98 12.66 -4 13 C-4.5497272 7.36529617 -2.95047835 4.61012242 0 0 Z " fill="#C8D0BA" transform="translate(100,85)"/>
<path d="M0 0 C0.33 0 0.66 0 1 0 C1 1.98 1 3.96 1 6 C1.66 6 2.32 6 3 6 C3 9.3 3 12.6 3 16 C2.01 16.33 1.02 16.66 0 17 C0 11.39 0 5.78 0 0 Z " fill="#040902" transform="translate(75,70)"/>
<path d="M0 0 C0.66 0 1.32 0 2 0 C2 3.96 2 7.92 2 12 C1.01 12 0.02 12 -1 12 C-1.02687279 10.18757948 -1.04633715 8.37504767 -1.0625 6.5625 C-1.07410156 5.55316406 -1.08570312 4.54382813 -1.09765625 3.50390625 C-1 1 -1 1 0 0 Z " fill="#10160B" transform="translate(109,107)"/>
<path d="M0 0 C0.66 0.66 1.32 1.32 2 2 C-1.96 5.96 -5.92 9.92 -10 14 C-10.33 13.01 -10.66 12.02 -11 11 C-10.34 11 -9.68 11 -9 11 C-9 10.34 -9 9.68 -9 9 C-8.34 9 -7.68 9 -7 9 C-6.67 8.01 -6.34 7.02 -6 6 C-5.34 6 -4.68 6 -4 6 C-3.67 4.68 -3.34 3.36 -3 2 C-2.01 2 -1.02 2 0 2 C0 1.34 0 0.68 0 0 Z " fill="#BEC6B2" transform="translate(119,84)"/>
<path d="M0 0 C0.33 0.99 0.66 1.98 1 3 C-0.65 4.32 -2.3 5.64 -4 7 C-3.34 7.66 -2.68 8.32 -2 9 C-3.65 9 -5.3 9 -7 9 C-6.39285714 3.53571429 -6.39285714 3.53571429 -4.625 1.125 C-3 0 -3 0 0 0 Z " fill="#D2DDC1" transform="translate(50,76)"/>
<path d="M0 0 C0.99 0 1.98 0 3 0 C3.33 1.98 3.66 3.96 4 6 C1.35261084 7.4606285 0.10551666 8 -3 8 C-2.5359375 7.13375 -2.5359375 7.13375 -2.0625 6.25 C-1.07416636 4.15705816 -0.4831387 2.25464725 0 0 Z " fill="#D8E4C5" transform="translate(74,94)"/>
<path d="M0 0 C0.33 0.66 0.66 1.32 1 2 C3.64 1.67 6.28 1.34 9 1 C7.02 3.31 5.04 5.62 3 8 C2.67 6.68 2.34 5.36 2 4 C1.34 4 0.68 4 0 4 C-0.33 3.01 -0.66 2.02 -1 1 C-0.67 0.67 -0.34 0.34 0 0 Z " fill="#C2CDB2" transform="translate(61,62)"/>
<path d="M0 0 C1.32 0 2.64 0 4 0 C5.75 2 5.75 2 7 4 C4.03 6.475 4.03 6.475 1 9 C1.226875 8.4225 1.45375 7.845 1.6875 7.25 C2.26505193 4.87827523 2.26505193 4.87827523 0.5625 2.75 C0.046875 2.1725 -0.46875 1.595 -1 1 C-0.67 0.67 -0.34 0.34 0 0 Z " fill="#C8D1B7" transform="translate(127,98)"/>
<path d="M0 0 C0.33 1.32 0.66 2.64 1 4 C1.66 4 2.32 4 3 4 C2.125 8.875 2.125 8.875 1 10 C-0.66617115 10.04063832 -2.33388095 10.042721 -4 10 C-3.525625 9.46375 -3.05125 8.9275 -2.5625 8.375 C-0.71813924 5.57157164 -0.37543153 3.30379742 0 0 Z " fill="#12160F" transform="translate(142,125)"/>
<path d="M0 0 C0.99 0.33 1.98 0.66 3 1 C2.67 3.64 2.34 6.28 2 9 C1.67 8.01 1.34 7.02 1 6 C-0.32 6.33 -1.64 6.66 -3 7 C-3 6.01 -3 5.02 -3 4 C-2.34 4 -1.68 4 -1 4 C-0.67 2.68 -0.34 1.36 0 0 Z " fill="#C7D4B7" transform="translate(137,94)"/>
<path d="M0 0 C0.66 1.32 1.32 2.64 2 4 C0.68 5.32 -0.64 6.64 -2 8 C-2.99 7.67 -3.98 7.34 -5 7 C-3.70700306 4.11562221 -2.34058637 2.12780579 0 0 Z " fill="#161D12" transform="translate(41,77)"/>
<path d="M0 0 C0.99 0 1.98 0 3 0 C2.67 1.65 2.34 3.3 2 5 C0.02 5.66 -1.96 6.32 -4 7 C-2.92598892 4.08482708 -2.22189824 2.22189824 0 0 Z " fill="#242A20" transform="translate(117,59)"/>
<path d="M0 0 C-1.36983503 3.16115776 -1.9890638 3.9927092 -5 6 C-7.1875 5.625 -7.1875 5.625 -9 5 C-4.5 0 -4.5 0 0 0 Z " fill="#141911" transform="translate(75,91)"/>
<path d="M0 0 C0 3.31934673 -0.43709146 4.02487607 -2.3125 6.625 C-2.95638672 7.54152344 -2.95638672 7.54152344 -3.61328125 8.4765625 C-5 10 -5 10 -8 11 C-7.43040847 7.37386801 -6.07625466 5.74482259 -3.4375 3.25 C-2.79683594 2.63640625 -2.15617187 2.0228125 -1.49609375 1.390625 C-1.00238281 0.93171875 -0.50867187 0.4728125 0 0 Z " fill="#B8C0AD" transform="translate(64,88)"/>
<path d="M0 0 C2.97 0.495 2.97 0.495 6 1 C5.34 2.65 4.68 4.3 4 6 C3.34 6 2.68 6 2 6 C1.34 5.34 0.68 4.68 0 4 C-0.99 4 -1.98 4 -3 4 C-2.01 2.68 -1.02 1.36 0 0 Z " fill="#D8E2C6" transform="translate(65,88)"/>
<path d="M0 0 C0.33 0 0.66 0 1 0 C1 4.95 1 9.9 1 15 C-0.65 15.66 -2.3 16.32 -4 17 C-4 16.01 -4 15.02 -4 14 C-3.01 13.34 -2.02 12.68 -1 12 C-0.41518879 9.11404054 -0.41518879 9.11404054 -0.3125 5.875 C-0.24675781 4.77929688 -0.18101563 3.68359375 -0.11328125 2.5546875 C-0.07589844 1.71164063 -0.03851563 0.86859375 0 0 Z " fill="#E0EACF" transform="translate(73,70)"/>
<path d="M0 0 C0.66 0 1.32 0 2 0 C2.33 3.3 2.66 6.6 3 10 C2.01 10 1.02 10 0 10 C0 6.7 0 3.4 0 0 Z " fill="#090C05" transform="translate(64,109)"/>
<path d="M0 0 C0 2.83967231 -0.40267181 5.23735711 -1 8 C-3.33333333 8 -5.66666667 8 -8 8 C-5.36 5.36 -2.72 2.72 0 0 Z " fill="#CED8BE" transform="translate(135,76)"/>
<path d="M0 0 C0.33 0.99 0.66 1.98 1 3 C-3.82142857 8.22321429 -3.82142857 8.22321429 -8 9 C-7.04270084 7.87411986 -6.08412105 6.7493285 -5.125 5.625 C-4.59132813 4.99851562 -4.05765625 4.37203125 -3.5078125 3.7265625 C-2.38567993 2.44163349 -1.20628025 1.20628025 0 0 Z " fill="#BFC7B2" transform="translate(125,71)"/>
<path d="M0 0 C-0.57344937 2.86724686 -0.8614515 3.8614515 -3 6 C-4.32 6 -5.64 6 -7 6 C-7 5.01 -7 4.02 -7 3 C-2.77777778 0 -2.77777778 0 0 0 Z " fill="#171D13" transform="translate(109,71)"/>
<path d="M0 0 C0.66 0.33 1.32 0.66 2 1 C-0.69104004 4.32422593 -4.13359286 5.38313883 -8 7 C-8.66 7.66 -9.32 8.32 -10 9 C-10.99 8.67 -11.98 8.34 -13 8 C-11.20909242 6.8529806 -9.41725003 5.70742065 -7.625 4.5625 C-6.12839844 3.60537109 -6.12839844 3.60537109 -4.6015625 2.62890625 C-2 1 -2 1 0 0 Z " fill="#E0E5D5" transform="translate(49,13)"/>
<path d="M0 0 C0.66 0.33 1.32 0.66 2 1 C1.67 1.33 1.34 1.66 1 2 C1.66 2.66 2.32 3.32 3 4 C2.01 4.66 1.02 5.32 0 6 C-1.19232613 8.05003955 -1.19232613 8.05003955 -2 10 C-2 8.68 -2 7.36 -2 6 C-2.66 6 -3.32 6 -4 6 C-2.84826645 3.53199953 -1.95216435 1.95216435 0 0 Z " fill="#1A1F15" transform="translate(68,103)"/>
<path d="M0 0 C2 2 2 2 2.125 5.125 C2.08375 6.07375 2.0425 7.0225 2 8 C0.68 8.33 -0.64 8.66 -2 9 C-1.125 1.125 -1.125 1.125 0 0 Z " fill="#050703" transform="translate(94,95)"/>
<path d="M0 0 C-0.33 0.66 -0.66 1.32 -1 2 C-2.2375 2.37125 -2.2375 2.37125 -3.5 2.75 C-4.7375 3.36875 -4.7375 3.36875 -6 4 C-6.89830839 7.05272465 -6.89830839 7.05272465 -7 10 C-7.33 10 -7.66 10 -8 10 C-9.32850242 3.59903382 -9.32850242 3.59903382 -7.9375 1.0625 C-5.23787512 -0.41793945 -3.02429981 -0.20161999 0 0 Z " fill="#161A13" transform="translate(40,42)"/>
<path d="M0 0 C0.33 0.66 0.66 1.32 1 2 C-2 5 -5 8 -8 11 C-8.66 10.67 -9.32 10.34 -10 10 C-6.7 6.7 -3.4 3.4 0 0 Z " fill="#BFC9B2" transform="translate(137,103)"/>
<path d="M0 0 C0.99 0.33 1.98 0.66 3 1 C2 3 2 3 -0.3125 4.375 C-2.98394547 5.99029261 -4.88209504 7.72521319 -7 10 C-7.66 9.67 -8.32 9.34 -9 9 C-6.03 6.03 -3.06 3.06 0 0 Z " fill="#21271D" transform="translate(59,59)"/>
<path d="M0 0 C0.66 1.32 1.32 2.64 2 4 C2.66 2.68 3.32 1.36 4 0 C4 1.98 4 3.96 4 6 C1.36 6 -1.28 6 -4 6 C-3.525625 5.566875 -3.05125 5.13375 -2.5625 4.6875 C-0.76313043 2.97690387 -0.76313043 2.97690387 0 0 Z " fill="#CCD3BD" transform="translate(138,115)"/>
<path d="M0 0 C0.33 0 0.66 0 1 0 C1.33 3.3 1.66 6.6 2 10 C2.66 10 3.32 10 4 10 C4 10.66 4 11.32 4 12 C1.69 12 -0.62 12 -3 12 C-2.01 11.67 -1.02 11.34 0 11 C0 7.37 0 3.74 0 0 Z " fill="#B6BFA9" transform="translate(67,109)"/>
<path d="M0 0 C1.0326802 2.78823655 1.04509293 3.8677274 0.0625 6.75 C-0.288125 7.4925 -0.63875 8.235 -1 9 C-1.99 8.67 -2.98 8.34 -4 8 C-3.34 6.02 -2.68 4.04 -2 2 C-2.66 1.67 -3.32 1.34 -4 1 C-2 0 -2 0 0 0 Z " fill="#C3D0B1" transform="translate(140,83)"/>
<path d="M0 0 C-1.39332574 3.36720387 -2.9789286 4.9859524 -6 7 C-6.33 6.01 -6.66 5.02 -7 4 C-3.375 0 -3.375 0 0 0 Z " fill="#20241C" transform="translate(125,100)"/>
<path d="M0 0 C0.33 0.99 0.66 1.98 1 3 C-0.98 4.98 -2.96 6.96 -5 9 C-5.66 8.67 -6.32 8.34 -7 8 C-5.50902342 4.2047869 -3.24299151 2.38957269 0 0 Z " fill="#010500" transform="translate(56,93)"/>
<path d="M0 0 C0.99 0.33 1.98 0.66 3 1 C2.34 2.32 1.68 3.64 1 5 C-0.32 5 -1.64 5 -3 5 C-1.125 1.125 -1.125 1.125 0 0 Z " fill="#1A1F14" transform="translate(50,112)"/>
<path d="M0 0 C1.32 0 2.64 0 4 0 C4.33 1.65 4.66 3.3 5 5 C4.01 5.495 4.01 5.495 3 6 C2.01 5.67 1.02 5.34 0 5 C0 3.35 0 1.7 0 0 Z " fill="#C1C9B4" transform="translate(82,96)"/>
<path d="M0 0 C0.99 0 1.98 0 3 0 C2.67 1.65 2.34 3.3 2 5 C0.68 5 -0.64 5 -2 5 C-2 4.01 -2 3.02 -2 2 C-1.34 2 -0.68 2 0 2 C0 1.34 0 0.68 0 0 Z " fill="#212A1A" transform="translate(135,114)"/>
<path d="M0 0 C0.33 1.32 0.66 2.64 1 4 C-0.8125 5.5625 -0.8125 5.5625 -3 7 C-3.99 6.67 -4.98 6.34 -6 6 C-4.02 4.02 -2.04 2.04 0 0 Z " fill="#C1C8B2" transform="translate(67,100)"/>
<path d="M0 0 C-0.33 1.32 -0.66 2.64 -1 4 C-2.32 4 -3.64 4 -5 4 C-5.33 4.66 -5.66 5.32 -6 6 C-5.625 3.5625 -5.625 3.5625 -5 1 C-3 0 -3 0 0 0 Z " fill="#D9E7C3" transform="translate(122,79)"/>
<path d="M0 0 C0.66 0.33 1.32 0.66 2 1 C-2.82142857 7.29464286 -2.82142857 7.29464286 -7 8 C-6.02133662 6.85373678 -5.04205413 5.70800212 -4.0625 4.5625 C-3.51722656 3.92441406 -2.97195312 3.28632813 -2.41015625 2.62890625 C-1.63204305 1.73008851 -0.84063472 0.84063472 0 0 Z " fill="#E0E6D5" transform="translate(32,24)"/>
<path d="M0 0 C0.66 0 1.32 0 2 0 C1.67 1.65 1.34 3.3 1 5 C1.99 5 2.98 5 4 5 C4 5.66 4 6.32 4 7 C2.02 7 0.04 7 -2 7 C-1.34 4.69 -0.68 2.38 0 0 Z " fill="#BEC8B3" transform="translate(118,114)"/>
<path d="M0 0 C0.66 0.66 1.32 1.32 2 2 C2.99 2 3.98 2 5 2 C5 2.99 5 3.98 5 5 C4.01 5.495 4.01 5.495 3 6 C3 5.34 3 4.68 3 4 C2.01 4 1.02 4 0 4 C0 3.34 0 2.68 0 2 C-0.66 1.67 -1.32 1.34 -2 1 C-1.34 0.67 -0.68 0.34 0 0 Z " fill="#CAD5B8" transform="translate(46,63)"/>
<path d="M0 0 C0.99 0.33 1.98 0.66 3 1 C2.34 2.32 1.68 3.64 1 5 C-2 5 -2 5 -4 4 C-2.68 2.68 -1.36 1.36 0 0 Z " fill="#21281B" transform="translate(132,59)"/>
<path d="M0 0 C2.0625 0.4375 2.0625 0.4375 4 1 C-0.75 5 -0.75 5 -3 5 C-1.125 1.125 -1.125 1.125 0 0 Z " fill="#353535" transform="translate(263,100)"/>
<path d="M0 0 C0.99 0.33 1.98 0.66 3 1 C1.12050295 4.57104439 -0.17053157 6.54744301 -4 8 C-3.67 7.01 -3.34 6.02 -3 5 C-2.34 4.67 -1.68 4.34 -1 4 C-0.34786708 1.97536745 -0.34786708 1.97536745 0 0 Z " fill="#363636" transform="translate(353,96)"/>
</svg>
