<?xml version="1.0" encoding="UTF-8"?>
<svg version="1.1" xmlns="http://www.w3.org/2000/svg" width="128" height="128">
<path d="M0 0 C14.66593153 10.19568513 25.60840641 23.74932626 29.74780273 41.46484375 C31.86603529 54.29763126 31.44584138 68.79991362 26.125 80.75 C25.76277344 81.62269531 25.40054688 82.49539062 25.02734375 83.39453125 C17.33536706 100.36902897 3.07751411 111.05081733 -13.734375 117.91796875 C-30.02500275 122.93228047 -49.3872321 120.84818754 -64.375 113.25 C-80.79373216 104.34772371 -91.48385123 89.95575147 -96.98828125 72.1484375 C-100.09059644 59.05712927 -99.35177869 43.05030624 -93.875 30.75 C-93.51277344 29.87730469 -93.15054688 29.00460938 -92.77734375 28.10546875 C-85.8549626 12.82929883 -73.23462165 1.78063924 -57.87109375 -4.47265625 C-38.93392049 -11.50790437 -17.48941603 -10.43527048 0 0 Z " fill="#C5DDCB" transform="translate(97.875,8.25)"/>
<path d="M0 0 C0.81491913 -0.00525696 1.62983826 -0.01051392 2.4694519 -0.01593018 C5.16602689 -0.02914542 7.86201265 -0.02038684 10.55859375 -0.01025391 C12.43042108 -0.01227421 14.30224764 -0.01518528 16.17407227 -0.01895142 C20.09822072 -0.02337683 24.0221644 -0.01693673 27.94628906 -0.00292969 C32.98049722 0.01416233 38.01422559 0.0043223 43.04841614 -0.01364708 C46.91397731 -0.02447905 50.77942443 -0.02104128 54.64498901 -0.0132637 C56.50137387 -0.01126007 58.35776902 -0.01372668 60.21414185 -0.02070236 C62.80710344 -0.02830722 65.39928418 -0.01672655 67.9921875 0 C68.76215057 -0.00607269 69.53211365 -0.01214539 70.32540894 -0.0184021 C73.19377425 0.0159393 75.44758923 0.07526434 77.97207642 1.51547241 C79.49129382 4.29379981 79.37776402 6.58300949 79.38427734 9.73974609 C79.39373383 11.05120605 79.40319031 12.36266602 79.41293335 13.71386719 C79.40756367 15.14697572 79.40141073 16.58008151 79.39453125 18.01318359 C79.39655206 19.48144678 79.39946356 20.949709 79.40322876 22.41796875 C79.40765181 25.49472614 79.40122195 28.57122221 79.38720703 31.64794922 C79.37011482 35.59258831 79.37995615 39.53661507 79.39792442 43.48123169 C79.40876297 46.51298642 79.40531567 49.54459588 79.39754105 52.57635498 C79.39553922 54.03082349 79.39799773 55.48530517 79.40497971 56.9397583 C79.41259442 58.97204335 79.39893117 61.00437461 79.38427734 63.03662109 C79.38189056 64.19339355 79.37950378 65.35016602 79.37704468 66.54199219 C78.99609375 69.38818359 78.99609375 69.38818359 77.97207642 71.26089478 C74.81055877 73.06452572 71.53422394 72.8043032 67.9921875 72.77636719 C66.76980881 72.78425262 66.76980881 72.78425262 65.5227356 72.79229736 C62.82616061 72.80551261 60.13017485 72.79675403 57.43359375 72.78662109 C55.56176642 72.78864139 53.68993986 72.79155246 51.81811523 72.7953186 C47.89396678 72.79974402 43.9700231 72.79330391 40.04589844 72.77929688 C35.01169028 72.76220486 29.97796191 72.77204488 24.94377136 72.79001427 C21.07821019 72.80084624 17.21276307 72.79740847 13.34719849 72.78963089 C11.49081363 72.78762726 9.63441848 72.79009386 7.77804565 72.79706955 C5.18508406 72.80467441 2.59290332 72.79309374 0 72.77636719 C-0.76996307 72.78243988 -1.53992615 72.78851257 -2.33322144 72.79476929 C-5.20158675 72.76042789 -7.45540173 72.70110284 -9.97988892 71.26089478 C-11.49910632 68.48256738 -11.38557652 66.19335769 -11.39208984 63.03662109 C-11.40154633 61.72516113 -11.41100281 60.41370117 -11.42074585 59.0625 C-11.41537617 57.62939146 -11.40922323 56.19628568 -11.40234375 54.76318359 C-11.40436456 53.2949204 -11.40727606 51.82665819 -11.41104126 50.35839844 C-11.41546431 47.28164104 -11.40903445 44.20514498 -11.39501953 41.12841797 C-11.37792732 37.18377888 -11.38776865 33.23975212 -11.40573692 29.2951355 C-11.41657547 26.26338077 -11.41312817 23.2317713 -11.40535355 20.20001221 C-11.40335172 18.7455437 -11.40581023 17.29106202 -11.41279221 15.83660889 C-11.42040692 13.80432384 -11.40674367 11.77199258 -11.39208984 9.73974609 C-11.38970306 8.58297363 -11.38731628 7.42620117 -11.38485718 6.234375 C-11.00390625 3.38818359 -11.00390625 3.38818359 -9.97988892 1.51547241 C-6.81837127 -0.28815854 -3.54203644 -0.02793601 0 0 Z " fill="#BCD4C2" transform="translate(30.00390625,27.61181640625)"/>
<path d="M0 0 C0.81491913 -0.00525696 1.62983826 -0.01051392 2.4694519 -0.01593018 C5.16602689 -0.02914542 7.86201265 -0.02038684 10.55859375 -0.01025391 C12.43042108 -0.01227421 14.30224764 -0.01518528 16.17407227 -0.01895142 C20.09822072 -0.02337683 24.0221644 -0.01693673 27.94628906 -0.00292969 C32.98049722 0.01416233 38.01422559 0.0043223 43.04841614 -0.01364708 C46.91397731 -0.02447905 50.77942443 -0.02104128 54.64498901 -0.0132637 C56.50137387 -0.01126007 58.35776902 -0.01372668 60.21414185 -0.02070236 C62.80710344 -0.02830722 65.39928418 -0.01672655 67.9921875 0 C68.76215057 -0.00607269 69.53211365 -0.01214539 70.32540894 -0.0184021 C73.19377425 0.0159393 75.44758923 0.07526434 77.97207642 1.51547241 C79.49129382 4.29379981 79.37776402 6.58300949 79.38427734 9.73974609 C79.39373383 11.05120605 79.40319031 12.36266602 79.41293335 13.71386719 C79.40756367 15.14697572 79.40141073 16.58008151 79.39453125 18.01318359 C79.39655206 19.48144678 79.39946356 20.949709 79.40322876 22.41796875 C79.40765181 25.49472614 79.40122195 28.57122221 79.38720703 31.64794922 C79.37011482 35.59258831 79.37995615 39.53661507 79.39792442 43.48123169 C79.40876297 46.51298642 79.40531567 49.54459588 79.39754105 52.57635498 C79.39553922 54.03082349 79.39799773 55.48530517 79.40497971 56.9397583 C79.41259442 58.97204335 79.39893117 61.00437461 79.38427734 63.03662109 C79.38189056 64.19339355 79.37950378 65.35016602 79.37704468 66.54199219 C78.99609375 69.38818359 78.99609375 69.38818359 77.97207642 71.26089478 C74.81055877 73.06452572 71.53422394 72.8043032 67.9921875 72.77636719 C66.76980881 72.78425262 66.76980881 72.78425262 65.5227356 72.79229736 C62.82616061 72.80551261 60.13017485 72.79675403 57.43359375 72.78662109 C55.56176642 72.78864139 53.68993986 72.79155246 51.81811523 72.7953186 C47.89396678 72.79974402 43.9700231 72.79330391 40.04589844 72.77929688 C35.01169028 72.76220486 29.97796191 72.77204488 24.94377136 72.79001427 C21.07821019 72.80084624 17.21276307 72.79740847 13.34719849 72.78963089 C11.49081363 72.78762726 9.63441848 72.79009386 7.77804565 72.79706955 C5.18508406 72.80467441 2.59290332 72.79309374 0 72.77636719 C-0.76996307 72.78243988 -1.53992615 72.78851257 -2.33322144 72.79476929 C-5.20158675 72.76042789 -7.45540173 72.70110284 -9.97988892 71.26089478 C-11.49910632 68.48256738 -11.38557652 66.19335769 -11.39208984 63.03662109 C-11.40154633 61.72516113 -11.41100281 60.41370117 -11.42074585 59.0625 C-11.41537617 57.62939146 -11.40922323 56.19628568 -11.40234375 54.76318359 C-11.40436456 53.2949204 -11.40727606 51.82665819 -11.41104126 50.35839844 C-11.41546431 47.28164104 -11.40903445 44.20514498 -11.39501953 41.12841797 C-11.37792732 37.18377888 -11.38776865 33.23975212 -11.40573692 29.2951355 C-11.41657547 26.26338077 -11.41312817 23.2317713 -11.40535355 20.20001221 C-11.40335172 18.7455437 -11.40581023 17.29106202 -11.41279221 15.83660889 C-11.42040692 13.80432384 -11.40674367 11.77199258 -11.39208984 9.73974609 C-11.38970306 8.58297363 -11.38731628 7.42620117 -11.38485718 6.234375 C-11.00390625 3.38818359 -11.00390625 3.38818359 -9.97988892 1.51547241 C-6.81837127 -0.28815854 -3.54203644 -0.02793601 0 0 Z M-8.00390625 4.38818359 C-8.00390625 5.70818359 -8.00390625 7.02818359 -8.00390625 8.38818359 C18.72609375 8.38818359 45.45609375 8.38818359 72.99609375 8.38818359 C72.99609375 9.37818359 72.99609375 10.36818359 72.99609375 11.38818359 C46.26609375 11.38818359 19.53609375 11.38818359 -8.00390625 11.38818359 C-8.00390625 27.88818359 -8.00390625 44.38818359 -8.00390625 61.38818359 C19.71609375 61.38818359 47.43609375 61.38818359 75.99609375 61.38818359 C76.03734375 52.02443359 76.07859375 42.66068359 76.12109375 33.01318359 C76.13930176 30.05559082 76.15750977 27.09799805 76.17626953 24.05078125 C76.18210835 21.71793805 76.18720534 19.38509282 76.19140625 17.05224609 C76.20163818 15.83174561 76.21187012 14.61124512 76.22241211 13.35375977 C76.22265381 12.19674561 76.22289551 11.03973145 76.22314453 9.84765625 C76.22758575 8.8394986 76.23202698 7.83134094 76.23660278 6.79263306 C76.23395602 4.20390095 76.23395602 4.20390095 73.99609375 2.38818359 C71.44721251 2.18986843 69.00699154 2.11540097 66.45703125 2.12939453 C65.67966614 2.12588989 64.90230103 2.12238525 64.10137939 2.11877441 C61.52452743 2.10995153 58.94794865 2.11580814 56.37109375 2.12255859 C54.58512316 2.1212121 52.79915293 2.1192717 51.01318359 2.11676025 C47.26721716 2.11380824 43.521346 2.1181091 39.77539062 2.12744141 C34.96646542 2.138836 30.15776344 2.13227694 25.34884644 2.12029648 C21.66005767 2.11307996 17.97132208 2.11536485 14.28253174 2.12055206 C12.50905328 2.12188914 10.73557004 2.12023883 8.96209717 2.11559296 C6.4863195 2.1105311 4.01090665 2.11823297 1.53515625 2.12939453 C0.42856659 2.12332184 0.42856659 2.12332184 -0.70037842 2.11712646 C-4.80460381 2.02649307 -4.80460381 2.02649307 -8.00390625 4.38818359 Z " fill="#0A0B0A" transform="translate(30.00390625,27.61181640625)"/>
<path d="M0 0 C0.89267578 0.00966797 1.78535156 0.01933594 2.70507812 0.02929688 C4.09823242 0.06700195 4.09823242 0.06700195 5.51953125 0.10546875 C6.45990234 0.11900391 7.40027344 0.13253906 8.36914062 0.14648438 C10.69068163 0.18183779 13.01106778 0.23118201 15.33203125 0.29296875 C15.81044852 6.51239321 15.81044852 6.51239321 13.84765625 9.71484375 C10.319554 11.92812528 7.10171299 11.72761844 3.08203125 11.54296875 C1.96441406 11.51589844 1.96441406 11.51589844 0.82421875 11.48828125 C-1.00706576 11.44132524 -2.83768524 11.36958527 -4.66796875 11.29296875 C-4.38514749 18.42898521 -4.38514749 18.42898521 -0.66796875 24.29296875 C2.76433573 24.02903374 2.76433573 24.02903374 6.33203125 23.29296875 C8.26598126 20.39204373 8.63335066 19.39622138 8.95703125 16.10546875 C9.08078125 14.84734375 9.20453125 13.58921875 9.33203125 12.29296875 C10.32203125 12.62296875 11.31203125 12.95296875 12.33203125 13.29296875 C12.70787018 19.68223049 12.70787018 19.68223049 10.83203125 22.73046875 C8.69134687 26.38747123 9.11874256 29.09829114 9.33203125 33.29296875 C4.40611255 36.53370474 1.23840559 36.27639513 -4.3203125 35.48828125 C-7.21751008 35.24724984 -9.15045733 35.86637895 -11.66796875 37.29296875 C-11.99796875 39.93296875 -12.32796875 42.57296875 -12.66796875 45.29296875 C-14.15296875 45.78796875 -14.15296875 45.78796875 -15.66796875 46.29296875 C-16.01833325 42.89313543 -16.18387877 39.68095519 -15.66796875 36.29296875 C-12.32025235 33.10096009 -9.23652656 31.83044614 -4.66796875 31.29296875 C-4.32620221 26.94664054 -4.32620221 26.94664054 -6.15625 23.125 C-8.22742053 19.24490018 -8.10942554 15.99504403 -8.04296875 11.66796875 C-8.05457031 10.90484375 -8.06617188 10.14171875 -8.078125 9.35546875 C-8.04901673 3.82489694 -8.04901673 3.82489694 -6.43481445 1.5715332 C-4.14643963 -0.08443183 -2.80625463 -0.0536227 0 0 Z " fill="#0E0F0E" transform="translate(61.66796875,41.70703125)"/>
<path d="M0 0 C27.72 0 55.44 0 84 0 C83 5 83 5 82 6 C79.51585052 6.10565282 77.05936167 6.14678274 74.57446289 6.14526367 C73.7972438 6.14862228 73.02002472 6.1519809 72.21925354 6.15544128 C69.63703841 6.16497961 67.05488792 6.16689583 64.47265625 6.16796875 C62.68525668 6.17117932 60.89785738 6.17454324 59.11045837 6.17805481 C55.35854482 6.18405329 51.60665434 6.18589397 47.85473633 6.18530273 C43.03795177 6.18520107 38.22131448 6.19885452 33.40456486 6.21607494 C29.71149511 6.22717248 26.01846123 6.22922264 22.32537651 6.22869301 C20.54910207 6.22987648 18.7728268 6.23431865 16.99656868 6.24202538 C14.51591694 6.25178017 12.03558815 6.24896526 9.55493164 6.24291992 C8.81563416 6.24853943 8.07633667 6.25415894 7.31463623 6.25994873 C2.22831564 6.22831564 2.22831564 6.22831564 0 4 C0 2.68 0 1.36 0 0 Z " fill="#B9D1BF" transform="translate(22,92)"/>
<path d="M0 0 C0.5775 0.45375 1.155 0.9075 1.75 1.375 C3.86851979 3.08506189 3.86851979 3.08506189 6.1875 3.6875 C8 5 8 5 8.4375 6.83203125 C8.60209246 8.25935649 8.73196934 9.69118061 8.82421875 11.125 C8.89441897 13.09031685 8.89441897 13.09031685 10 15 C-1.22 15 -12.44 15 -24 15 C-22 5 -22 5 -19.25 2.875 C-15.28322529 1.80702219 -11.94328786 1.3319948 -8 2.6875 C-4.80838629 3.18618964 -2.71798957 1.54431226 0 0 Z " fill="#C4DDCA" transform="translate(71,74)"/>
<path d="M0 0 C5.28 0 10.56 0 16 0 C15.01 0.495 15.01 0.495 14 1 C14.103125 2.216875 14.20625 3.43375 14.3125 4.6875 C14.3125 8.26295245 14.05281641 8.92756607 11.8125 12 C9 14 9 14 6.4375 14.625 C4 14 4 14 1.6875 12.0625 C-0.66390552 7.79513443 -0.28844031 4.83137516 0 0 Z " fill="#C3DBC9" transform="translate(57,53)"/>
<path d="M0 0 C-0.45409005 4.34022614 -3.29195813 6.72549731 -6.2421875 9.640625 C-6.76636261 10.16767029 -7.29053772 10.69471558 -7.83059692 11.23773193 C-8.93822837 12.34740132 -10.04964328 13.45330531 -11.16455078 14.55566406 C-12.87242419 16.24744846 -14.56367956 17.95466778 -16.25390625 19.6640625 C-17.33237245 20.74054685 -18.41176858 21.81610052 -19.4921875 22.890625 C-19.99853729 23.40304749 -20.50488708 23.91546997 -21.02658081 24.44342041 C-24.65508864 28 -24.65508864 28 -28 28 C-26.39577001 24.02009412 -23.61753303 21.32807684 -20.625 18.359375 C-19.83730225 17.56880707 -19.83730225 17.56880707 -19.03369141 16.76226807 C-17.92661117 15.65383072 -16.8170167 14.54789954 -15.70507812 13.44433594 C-13.99893025 11.74893699 -12.30375953 10.0430839 -10.609375 8.3359375 C-9.53189108 7.25977442 -8.45378733 6.18423149 -7.375 5.109375 C-6.61243896 4.34074127 -6.61243896 4.34074127 -5.83447266 3.55657959 C-2.22994091 0 -2.22994091 0 0 0 Z " fill="#141715" transform="translate(53,44)"/>
<path d="M0 0 C-1.58397665 3.8697943 -4.20990152 6.51617198 -7.12109375 9.421875 C-7.62165787 9.92672424 -8.12222198 10.43157349 -8.63795471 10.95172119 C-9.69366914 12.01316119 -10.75199063 13.07201379 -11.81274414 14.12841797 C-13.43726151 15.74976198 -15.04797149 17.38401316 -16.65820312 19.01953125 C-17.68668907 20.05028895 -18.71595946 21.08026465 -19.74609375 22.109375 C-20.22743271 22.59992371 -20.70877167 23.09047241 -21.20469666 23.59588623 C-24.65618553 27 -24.65618553 27 -28 27 C-26.41602335 23.1302057 -23.79009848 20.48382802 -20.87890625 17.578125 C-20.37834213 17.07327576 -19.87777802 16.56842651 -19.36204529 16.04827881 C-18.30633086 14.98683881 -17.24800937 13.92798621 -16.18725586 12.87158203 C-14.56273849 11.25023802 -12.95202851 9.61598684 -11.34179688 7.98046875 C-10.31331093 6.94971105 -9.28404054 5.91973535 -8.25390625 4.890625 C-7.77256729 4.40007629 -7.29122833 3.90952759 -6.79530334 3.40411377 C-3.34381447 0 -3.34381447 0 0 0 Z " fill="#0E100F" transform="translate(53,56)"/>
<path d="M0 0 C1.39456452 0.00667256 2.78911118 0.01863093 4.18359375 0.03515625 C4.89451172 0.03966797 5.60542969 0.04417969 6.33789062 0.04882812 C8.09899388 0.06064761 9.86005411 0.07858362 11.62109375 0.09765625 C11.62109375 1.74765625 11.62109375 3.39765625 11.62109375 5.09765625 C8.55576211 6.63032207 5.35355103 6.20042096 1.99609375 6.16015625 C1.2896875 6.15564453 0.58328125 6.15113281 -0.14453125 6.14648438 C-1.889359 6.134695 -3.63414325 6.11675949 -5.37890625 6.09765625 C-4.3067966 0.12447389 -4.3067966 0.12447389 0 0 Z " fill="#B7CEBC" transform="translate(62.37890625,43.90234375)"/>
<path d="M0 0 C-0.52886833 4.08335544 -2.59629038 5.94353018 -5.47265625 8.765625 C-6.37177734 9.65507813 -7.27089844 10.54453125 -8.19726562 11.4609375 C-9.14279297 12.38132812 -10.08832031 13.30171875 -11.0625 14.25 C-12.02216973 15.19461673 -12.98116229 16.13992195 -13.93945312 17.0859375 C-16.28638828 19.39749172 -18.64003391 21.7017634 -21 24 C-21.99 23.67 -22.98 23.34 -24 23 C-19.48548042 17.59819276 -14.72464159 12.54169712 -9.75 7.5625 C-9.03070313 6.83095703 -8.31140625 6.09941406 -7.5703125 5.34570312 C-6.88195312 4.65541016 -6.19359375 3.96511719 -5.484375 3.25390625 C-4.86272461 2.62814697 -4.24107422 2.0023877 -3.60058594 1.35766602 C-2 0 -2 0 0 0 Z " fill="#141614" transform="translate(103,50)"/>
<path d="M0 0 C-1.58411906 3.8826895 -4.22865638 6.51864365 -7.15625 9.421875 C-7.65918579 9.92672424 -8.16212158 10.43157349 -8.68029785 10.95172119 C-9.74029986 12.01307997 -10.80281488 13.07193419 -11.86767578 14.12841797 C-13.50140046 15.75139124 -15.12413294 17.38481068 -16.74609375 19.01953125 C-17.77800476 20.05012146 -18.81053559 21.08009152 -19.84375 22.109375 C-20.33025024 22.59992371 -20.81675049 23.09047241 -21.31799316 23.59588623 C-24.77005651 27 -24.77005651 27 -27 27 C-25.41588094 23.1173105 -22.77134362 20.48135635 -19.84375 17.578125 C-19.34081421 17.07327576 -18.83787842 16.56842651 -18.31970215 16.04827881 C-17.25970014 14.98692003 -16.19718512 13.92806581 -15.13232422 12.87158203 C-13.49859954 11.24860876 -11.87586706 9.61518932 -10.25390625 7.98046875 C-9.22199524 6.94987854 -8.18946441 5.91990848 -7.15625 4.890625 C-6.66974976 4.40007629 -6.18324951 3.90952759 -5.68200684 3.40411377 C-2.22994349 0 -2.22994349 0 0 0 Z " fill="#000000" transform="translate(100,42)"/>
<path d="M0 0 C-2.23003732 5.05110122 -6.07475116 8.40423774 -9.9375 12.25 C-11.03094727 13.36761719 -11.03094727 13.36761719 -12.14648438 14.5078125 C-12.84966797 15.21164063 -13.55285156 15.91546875 -14.27734375 16.640625 C-14.91921631 17.28547852 -15.56108887 17.93033203 -16.22241211 18.59472656 C-18 20 -18 20 -21 20 C-18.76996268 14.94889878 -14.92524884 11.59576226 -11.0625 7.75 C-10.33353516 7.00492187 -9.60457031 6.25984375 -8.85351562 5.4921875 C-8.15033203 4.78835937 -7.44714844 4.08453125 -6.72265625 3.359375 C-6.08078369 2.71452148 -5.43891113 2.06966797 -4.77758789 1.40527344 C-3 0 -3 0 0 0 Z " fill="#0F110F" transform="translate(54,66)"/>
<path d="M0 0 C-0.57785854 3.63167692 -1.94687096 5.32194392 -4.52734375 7.890625 C-5.23697266 8.59960938 -5.94660156 9.30859375 -6.67773438 10.0390625 C-7.79631836 11.13347656 -7.79631836 11.13347656 -8.9375 12.25 C-9.67935547 12.99507812 -10.42121094 13.74015625 -11.18554688 14.5078125 C-16.73305861 20 -16.73305861 20 -19 20 C-18.42214146 16.36832308 -17.05312904 14.67805608 -14.47265625 12.109375 C-13.76302734 11.40039062 -13.05339844 10.69140625 -12.32226562 9.9609375 C-11.57654297 9.23132813 -10.83082031 8.50171875 -10.0625 7.75 C-9.32064453 7.00492187 -8.57878906 6.25984375 -7.81445312 5.4921875 C-2.26694139 0 -2.26694139 0 0 0 Z " fill="#101211" transform="translate(103,61)"/>
<path d="M0 0 C-1.612328 4.03082 -4.46234596 6.75944137 -7.5 9.75 C-7.99886719 10.25660156 -8.49773437 10.76320313 -9.01171875 11.28515625 C-12.74658861 15 -12.74658861 15 -15 15 C-14.56096268 10.60962679 -11.61945961 8.17535669 -8.625 5.25 C-8.13 4.74339844 -7.635 4.23679687 -7.125 3.71484375 C-3.38011708 0 -3.38011708 0 0 0 Z " fill="#0F1110" transform="translate(103,73)"/>
<path d="M0 0 C1.32 0.33 2.64 0.66 4 1 C4.125 3.75 4.125 3.75 3 7 C-0.18651911 8.79139916 -3.51426761 9.92454717 -7 11 C-7 7.22089522 -6.00296038 6.53893899 -3.5 3.8125 C-2.8503125 3.09707031 -2.200625 2.38164063 -1.53125 1.64453125 C-1.0259375 1.10183594 -0.520625 0.55914062 0 0 Z " fill="#BCD3C1" transform="translate(54,66)"/>
<path d="M0 0 C-1.38685223 3.1195572 -3.00189491 5.25855799 -5.40625 7.671875 C-6.06753906 8.33574219 -6.72882812 8.99960937 -7.41015625 9.68359375 C-8.09980469 10.36550781 -8.78945313 11.04742187 -9.5 11.75 C-10.18964844 12.44738281 -10.87929688 13.14476562 -11.58984375 13.86328125 C-12.25113281 14.52199219 -12.91242187 15.18070313 -13.59375 15.859375 C-14.19896484 16.46233398 -14.80417969 17.06529297 -15.42773438 17.68652344 C-17 19 -17 19 -19 19 C-17.61314777 15.8804428 -15.99810509 13.74144201 -13.59375 11.328125 C-12.60181641 10.33232422 -12.60181641 10.33232422 -11.58984375 9.31640625 C-10.55537109 8.29353516 -10.55537109 8.29353516 -9.5 7.25 C-8.81035156 6.55261719 -8.12070312 5.85523438 -7.41015625 5.13671875 C-6.74886719 4.47800781 -6.08757813 3.81929687 -5.40625 3.140625 C-4.80103516 2.53766602 -4.19582031 1.93470703 -3.57226562 1.31347656 C-2 0 -2 0 0 0 Z " fill="#000000" transform="translate(44,42)"/>
<path d="M0 0 C6.75 1.75 6.75 1.75 9 4 C9.1953125 6.3828125 9.1953125 6.3828125 9.125 9.125 C9.10695313 10.03507812 9.08890625 10.94515625 9.0703125 11.8828125 C9.04710938 12.58148438 9.02390625 13.28015625 9 14 C8.01 13.67 7.02 13.34 6 13 C5.938125 11.1128125 5.938125 11.1128125 5.875 9.1875 C5.69235511 6.99010474 5.69235511 6.99010474 5 5 C2.08158143 2.91367303 2.08158143 2.91367303 -1 2 C-0.67 1.34 -0.34 0.68 0 0 Z " fill="#181B19" transform="translate(73,74)"/>
<path d="M0 0 C-1.5299072 3.60561914 -3.68696932 5.9859199 -6.4375 8.75 C-7.61119141 9.94882812 -7.61119141 9.94882812 -8.80859375 11.171875 C-11 13 -11 13 -14 13 C-12.4700928 9.39438086 -10.31303068 7.0140801 -7.5625 4.25 C-6.78003906 3.45078125 -5.99757813 2.6515625 -5.19140625 1.828125 C-3 0 -3 0 0 0 Z " fill="#131614" transform="translate(89,42)"/>
<path d="M0 0 C2.64 0 5.28 0 8 0 C7.67 1.65 7.34 3.3 7 5 C5.1875 5.625 5.1875 5.625 3 6 C2.01 5.34 1.02 4.68 0 4 C0 2.68 0 1.36 0 0 Z " fill="#ADC3B2" transform="translate(60,69)"/>
<path d="M0 0 C0.99 0.33 1.98 0.66 3 1 C3.25 7.625 3.25 7.625 1 11 C0.34 10.67 -0.32 10.34 -1 10 C-0.67 6.7 -0.34 3.4 0 0 Z " fill="#181B18" transform="translate(71,54)"/>
<path d="M0 0 C-1.44077046 3.36179774 -3.24750021 5.59156268 -6 8 C-6.66 8 -7.32 8 -8 8 C-7.32253522 3.25774652 -4.9532836 0 0 0 Z " fill="#121513" transform="translate(33,42)"/>
<path d="M0 0 C0 2.97 0 5.94 0 9 C-0.99 9.33 -1.98 9.66 -3 10 C-3 7.03 -3 4.06 -3 1 C-1 0 -1 0 0 0 Z " fill="#1A1D1B" transform="translate(49,78)"/>
<path d="M0 0 C0.66 0.33 1.32 0.66 2 1 C-0.58609933 4.87914899 -2.54483092 5.04532091 -7 6 C-7.66 5.67 -8.32 5.34 -9 5 C-3.375 1.125 -3.375 1.125 0 0 Z " fill="#131614" transform="translate(55,73)"/>
</svg>
