<?xml version="1.0" encoding="UTF-8"?>
<svg version="1.1" xmlns="http://www.w3.org/2000/svg" width="453" height="181">
<path d="M0 0 C149.49 0 298.98 0 453 0 C453 59.73 453 119.46 453 181 C303.51 181 154.02 181 0 181 C0 121.27 0 61.54 0 0 Z " fill="#FEFEFE" transform="translate(0,0)"/>
<path d="M0 0 C1.56890739 -0.01051392 1.56890739 -0.01051392 3.16950989 -0.02124023 C6.63028438 -0.03885893 10.09024243 -0.02718229 13.55102539 -0.01367188 C15.9547186 -0.01636586 18.35841075 -0.0202475 20.76210022 -0.02526855 C25.80179207 -0.03116905 30.84120046 -0.02258328 35.88085938 -0.00390625 C42.34194247 0.0188709 48.80236052 0.00577086 55.26341915 -0.01819611 C60.22796134 -0.03264937 65.19234584 -0.02804994 70.15689278 -0.01768494 C72.53914023 -0.01501573 74.92140198 -0.01829417 77.30363274 -0.02760315 C80.6337971 -0.03775911 83.9628846 -0.02227899 87.29296875 0 C88.77139755 -0.01214539 88.77139755 -0.01214539 90.2796936 -0.02453613 C94.36427964 0.02610157 97.11373404 0.22650474 100.82188416 2.03309631 C103.45985381 5.50210406 103.41238796 8.59695069 103.3581543 12.78686523 C103.36691589 13.61822495 103.37567749 14.44958466 103.38470459 15.30613708 C103.40670198 18.05293046 103.39214394 20.79811227 103.37524414 23.54492188 C103.37861251 25.45537118 103.38346531 27.3658184 103.38973999 29.27626038 C103.39711203 33.28032839 103.38639636 37.28383864 103.36303711 41.2878418 C103.33456839 46.41739597 103.35093907 51.54564107 103.38089943 56.67514706 C103.39897993 60.62062923 103.39321059 64.56580184 103.38026047 68.51129341 C103.37692753 70.40231036 103.38100958 72.29335552 103.39265823 74.18433952 C103.40537735 76.82994712 103.38597573 79.47344574 103.3581543 82.11889648 C103.37333603 83.28875092 103.37333603 83.28875092 103.38882446 84.48223877 C103.31711518 88.16817261 102.80251354 90.37325517 100.82188416 93.50305176 C96.32496769 96.41530607 92.54896342 96.21103243 87.29296875 96.14868164 C86.24527817 96.15583694 85.19758759 96.16299225 84.1181488 96.17036438 C80.65782975 96.1872622 77.19880409 96.16784242 73.73852539 96.14648438 C71.3338663 96.1473129 68.92920726 96.14977167 66.52455139 96.15379333 C61.48657166 96.15665202 56.44903633 96.1419413 51.41113281 96.11450195 C44.94883683 96.08040147 38.48733468 96.08644321 32.02500057 96.10516453 C27.06048448 96.1157248 22.0961536 96.10680571 17.13165474 96.09177971 C14.74858716 96.08659157 12.36550029 96.08708732 9.98243523 96.09332466 C6.65453243 96.0987656 3.32777262 96.07843682 0 96.05102539 C-0.98764343 96.05755127 -1.97528687 96.06407715 -2.99285889 96.07080078 C-6.87516015 96.01633541 -9.5032196 95.97189338 -12.89952087 94.00779724 C-14.88873894 90.44226221 -14.84701079 87.11756869 -14.80639648 83.140625 C-14.81340576 82.29790543 -14.82041504 81.45518585 -14.82763672 80.58692932 C-14.84523281 77.80305977 -14.83358845 75.0202079 -14.82006836 72.23632812 C-14.82276281 70.3010641 -14.82664485 68.36580139 -14.83166504 66.43054199 C-14.83756227 62.37527574 -14.82898986 58.32036199 -14.81030273 54.26513672 C-14.7875131 49.06614881 -14.80063497 43.86798684 -14.82459259 38.66902924 C-14.83904446 34.67301201 -14.83444737 30.67719072 -14.82408142 26.6811676 C-14.82141245 24.76420494 -14.82468988 22.84722451 -14.83399963 20.93028259 C-14.84415518 18.2512193 -14.82867863 15.57349478 -14.80639648 12.89453125 C-14.81449341 12.10168228 -14.82259033 11.30883331 -14.83093262 10.49195862 C-14.78084847 7.24272697 -14.49244104 4.88270298 -12.89952087 2.02636719 C-8.7493938 -0.37209311 -4.71095039 -0.03862143 0 0 Z " fill="#CDDABB" transform="translate(43.288818359375,40.482421875)"/>
<path d="M0 0 C3.50797775 2.83702417 6.78450187 5.83670151 10 9 C10.7734375 9.76054687 11.546875 10.52109375 12.34375 11.3046875 C27.72875291 27.37463917 34.42314983 47.91589199 34.29833984 69.86523438 C33.87830257 88.28843459 27.00750676 105.3767218 16 120 C15.55527344 120.62777344 15.11054688 121.25554687 14.65234375 121.90234375 C3.15296152 136.84802401 -17.39317239 147.77261031 -35.765625 150.57421875 C-58.29106305 153.1096998 -80.48606495 149.44806978 -98.875 135.5 C-100.25841915 134.34332911 -101.63387728 133.1770492 -103 132 C-103.65097656 131.49210938 -104.30195312 130.98421875 -104.97265625 130.4609375 C-120.73445671 117.73868902 -130.6732557 98.03461911 -132.84106445 78.02954102 C-134.88594568 51.91725591 -128.37052003 30.77565287 -111.44921875 10.63671875 C-104.66265335 3.33060767 -96.7080111 -2.22748127 -88 -7 C-87.36964844 -7.36738281 -86.73929688 -7.73476562 -86.08984375 -8.11328125 C-59.33471896 -22.82575964 -23.93865441 -17.49634006 0 0 Z M-106.61070251 21.50878906 C-108.5994745 25.07494432 -108.55819635 28.39962567 -108.51757812 32.37695312 C-108.5245874 33.2196727 -108.53159668 34.06239227 -108.53881836 34.9306488 C-108.55641445 37.71451836 -108.54477009 40.49737022 -108.53125 43.28125 C-108.53394445 45.21651403 -108.53782649 47.15177674 -108.54284668 49.08703613 C-108.54874391 53.14230238 -108.5401715 57.19721614 -108.52148438 61.25244141 C-108.49869474 66.45142932 -108.51181661 71.64959129 -108.53577423 76.84854889 C-108.5502261 80.84456611 -108.54562902 84.84038741 -108.53526306 88.83641052 C-108.53259409 90.75337319 -108.53587152 92.67035362 -108.54518127 94.58729553 C-108.55533682 97.26635883 -108.53986027 99.94408334 -108.51757812 102.62304688 C-108.52567505 103.41589584 -108.53377197 104.20874481 -108.54211426 105.02561951 C-108.49203457 108.2745619 -108.20398426 110.6343724 -106.61070251 113.49021912 C-102.46176243 115.88956963 -98.42205859 115.5645745 -93.71118164 115.53344727 C-92.66524338 115.54206284 -91.61930511 115.55067841 -90.54167175 115.55955505 C-87.08091553 115.58227545 -83.62096511 115.57546443 -80.16015625 115.56640625 C-77.75646218 115.5716393 -75.35277018 115.5779146 -72.94908142 115.58518982 C-67.9093968 115.59560543 -62.86999433 115.5910159 -57.83032227 115.57641602 C-51.36913942 115.55923121 -44.90884606 115.5827148 -38.44776249 115.61790562 C-33.48321123 115.63985748 -28.51887348 115.63844332 -23.55428886 115.6301403 C-21.17203229 115.6293195 -18.78976024 115.6362075 -16.4075489 115.65091133 C-13.07721287 115.66831436 -9.748484 115.65384792 -6.41821289 115.63110352 C-5.43259369 115.64279572 -4.44697449 115.65448792 -3.43148804 115.66653442 C0.96893384 115.60533255 3.35314431 115.41891111 7.11070251 112.98547363 C9.53195869 109.15939727 9.70398127 105.99421462 9.64697266 101.60131836 C9.66011505 100.35165031 9.66011505 100.35165031 9.67352295 99.07673645 C9.69548014 96.33057145 9.68097924 93.58602429 9.6640625 90.83984375 C9.66743139 88.92842805 9.67228461 87.01701445 9.67855835 85.10560608 C9.6859244 81.10331794 9.67523161 77.10158837 9.65185547 73.09936523 C9.62334851 67.96862121 9.63978544 62.83918375 9.66971779 57.70848751 C9.68778154 53.76304774 9.68203732 49.81791804 9.66907883 45.87246895 C9.66574326 43.98062549 9.66983719 42.08875388 9.68147659 40.19694328 C9.69417246 37.55363194 9.67482852 34.91244043 9.64697266 32.26928711 C9.65709381 31.48735992 9.66721497 30.70543274 9.67764282 29.89981079 C9.60881979 26.37599758 9.26297921 24.3458254 7.11070251 21.51551819 C2.58624912 19.31122788 -1.44497189 19.44156639 -6.41821289 19.48242188 C-7.46590347 19.4754126 -8.51359406 19.46840332 -9.59303284 19.46118164 C-13.05317757 19.44358854 -16.51250333 19.45522885 -19.97265625 19.46875 C-22.37731585 19.46605568 -24.78197438 19.46217377 -27.18663025 19.45715332 C-32.22454203 19.45125663 -37.26217004 19.45982788 -42.30004883 19.47851562 C-48.76232236 19.50131706 -55.22393184 19.48817494 -61.68618107 19.46422577 C-66.65068074 19.44978314 -71.61502252 19.45436661 -76.5795269 19.46473694 C-78.96260087 19.46740782 -81.34568911 19.46412185 -83.72874641 19.45481873 C-87.05661214 19.4446775 -90.3833966 19.46012097 -93.71118164 19.48242188 C-94.69882507 19.47432495 -95.68646851 19.46622803 -96.70404053 19.45788574 C-100.5873594 19.50617795 -103.21282439 19.5450719 -106.61070251 21.50878906 Z " fill="#D8E6C5" transform="translate(137,21)"/>
<path d="M0 0 C1.35036598 -0.00422974 1.35036598 -0.00422974 2.72801208 -0.00854492 C3.72337479 -0.00652069 4.71873749 -0.00449646 5.7442627 -0.00241089 C6.78643448 -0.00416321 7.82860626 -0.00591553 8.90235901 -0.00772095 C12.36595295 -0.01214174 15.82949631 -0.00920067 19.29309082 -0.00582886 C21.68823252 -0.00650183 24.08337416 -0.0074718 26.47851562 -0.00872803 C31.5057439 -0.01020531 36.53295444 -0.00804947 41.56018066 -0.00338745 C48.02040773 0.00230985 54.48059325 -0.000969 60.94081879 -0.00695992 C65.88885819 -0.01056471 70.83688767 -0.00942732 75.78492737 -0.00683212 C78.16768905 -0.00616263 80.55045163 -0.00699206 82.93321228 -0.00931168 C86.25697231 -0.01183687 89.58066404 -0.00799949 92.90441895 -0.00241089 C93.89978165 -0.00443512 94.89514435 -0.00645935 95.92066956 -0.00854492 C96.82091354 -0.0057251 97.72115753 -0.00290527 98.64868164 0 C99.43551582 0.00037703 100.22235001 0.00075405 101.03302765 0.0011425 C102.82434082 0.12698364 102.82434082 0.12698364 103.82434082 1.12698364 C103.91926977 3.46956427 103.94992565 5.78240483 103.93786621 8.12527466 C103.93798675 8.86880912 103.93810728 9.61234358 103.93823147 10.37840939 C103.93748241 12.79593285 103.92985453 15.21338014 103.92199707 17.63088989 C103.92052763 19.11913007 103.91950693 20.60737077 103.91894531 22.09561157 C103.91369269 27.62691012 103.8997316 33.15819762 103.88684082 38.68948364 C103.86621582 51.04385864 103.84559082 63.39823364 103.82434082 76.12698364 C78.41434082 76.12698364 53.00434082 76.12698364 26.82434082 76.12698364 C27.48434082 75.79698364 28.14434082 75.46698364 28.82434082 75.12698364 C28.77793457 74.36772583 28.73152832 73.60846802 28.68371582 72.82620239 C28.6295752 71.33540161 28.6295752 71.33540161 28.57434082 69.81448364 C28.52793457 68.82835083 28.48152832 67.84221802 28.43371582 66.82620239 C28.82434082 64.12698364 28.82434082 64.12698364 30.69152832 62.34573364 C35.17338022 59.78467541 38.60818483 58.68305547 43.82434082 59.12698364 C45.15767415 59.79365031 46.49100749 60.46031698 47.82434082 61.12698364 C49.77433211 60.93227254 49.77433211 60.93227254 51.82434082 60.12698364 C52.89684082 59.77635864 53.96934082 59.42573364 55.07434082 59.06448364 C55.98184082 58.75510864 56.88934082 58.44573364 57.82434082 58.12698364 C57.77213379 57.02290161 57.77213379 57.02290161 57.71887207 55.89651489 C57.55875896 50.12481837 57.74578644 47.05267065 60.82434082 42.12698364 C61.38745221 38.47197364 61.63684862 34.81864041 61.82434082 31.12698364 C60.83434082 31.12698364 59.84434082 31.12698364 58.82434082 31.12698364 C58.87654785 32.01450317 58.87654785 32.01450317 58.92980957 32.91995239 C59.09864086 37.84821801 59.08353196 41.1435278 55.82434082 45.12698364 C52.073866 47.62730019 50.26577816 47.66301918 45.82434082 47.12698364 C43.19417921 44.95424144 41.35097188 43.18024576 39.82434082 40.12698364 C39.75400313 38.25318759 39.74003862 36.37697263 39.76184082 34.50198364 C39.77086426 33.49909302 39.7798877 32.49620239 39.78918457 31.46292114 C39.80078613 30.69206177 39.8123877 29.92120239 39.82434082 29.12698364 C40.4395459 29.11763794 41.05475098 29.10829224 41.68859863 29.09866333 C44.48465168 29.0448728 47.27904702 28.96124545 50.07434082 28.87698364 C51.04242676 28.86280396 52.0105127 28.84862427 53.00793457 28.83401489 C58.61103334 28.7635077 58.61103334 28.7635077 63.34777832 26.10745239 C63.83504395 25.45389771 64.32230957 24.80034302 64.82434082 24.12698364 C65.60809082 23.98260864 66.39184082 23.83823364 67.19934082 23.68948364 C72.96641581 22.45368186 76.33900078 17.52509764 79.82434082 13.12698364 C78.49248749 13.13031456 78.49248749 13.13031456 77.13372803 13.13371277 C68.71983304 13.15384379 60.30594627 13.16902265 51.89203262 13.17879581 C47.56753757 13.18398936 43.2430626 13.19102206 38.9185791 13.2024231 C34.7364355 13.21337845 30.55431109 13.21928697 26.37215424 13.22186089 C24.78556771 13.22369254 23.19898211 13.22726869 21.61240387 13.2327137 C12.63683016 13.26226047 3.76151488 13.07848857 -5.17565918 12.12698364 C-5.17565918 11.79698364 -5.17565918 11.46698364 -5.17565918 11.12698364 C29.47434082 11.12698364 64.12434082 11.12698364 99.82434082 11.12698364 C99.82434082 9.80698364 99.82434082 8.48698364 99.82434082 7.12698364 C65.17434082 7.12698364 30.52434082 7.12698364 -5.17565918 7.12698364 C-5.17565918 0.00248001 -5.17565918 0.00248001 0 0 Z " fill="#D0DEBE" transform="translate(38.1756591796875,44.873016357421875)"/>
<path d="M0 0 C1.56890739 -0.01051392 1.56890739 -0.01051392 3.16950989 -0.02124023 C6.63028438 -0.03885893 10.09024243 -0.02718229 13.55102539 -0.01367188 C15.9547186 -0.01636586 18.35841075 -0.0202475 20.76210022 -0.02526855 C25.80179207 -0.03116905 30.84120046 -0.02258328 35.88085938 -0.00390625 C42.34194247 0.0188709 48.80236052 0.00577086 55.26341915 -0.01819611 C60.22796134 -0.03264937 65.19234584 -0.02804994 70.15689278 -0.01768494 C72.53914023 -0.01501573 74.92140198 -0.01829417 77.30363274 -0.02760315 C80.6337971 -0.03775911 83.9628846 -0.02227899 87.29296875 0 C88.77139755 -0.01214539 88.77139755 -0.01214539 90.2796936 -0.02453613 C94.36427964 0.02610157 97.11373404 0.22650474 100.82188416 2.03309631 C103.45985381 5.50210406 103.41238796 8.59695069 103.3581543 12.78686523 C103.36691589 13.61822495 103.37567749 14.44958466 103.38470459 15.30613708 C103.40670198 18.05293046 103.39214394 20.79811227 103.37524414 23.54492188 C103.37861251 25.45537118 103.38346531 27.3658184 103.38973999 29.27626038 C103.39711203 33.28032839 103.38639636 37.28383864 103.36303711 41.2878418 C103.33456839 46.41739597 103.35093907 51.54564107 103.38089943 56.67514706 C103.39897993 60.62062923 103.39321059 64.56580184 103.38026047 68.51129341 C103.37692753 70.40231036 103.38100958 72.29335552 103.39265823 74.18433952 C103.40537735 76.82994712 103.38597573 79.47344574 103.3581543 82.11889648 C103.37333603 83.28875092 103.37333603 83.28875092 103.38882446 84.48223877 C103.31711518 88.16817261 102.80251354 90.37325517 100.82188416 93.50305176 C96.32496769 96.41530607 92.54896342 96.21103243 87.29296875 96.14868164 C86.24527817 96.15583694 85.19758759 96.16299225 84.1181488 96.17036438 C80.65782975 96.1872622 77.19880409 96.16784242 73.73852539 96.14648438 C71.3338663 96.1473129 68.92920726 96.14977167 66.52455139 96.15379333 C61.48657166 96.15665202 56.44903633 96.1419413 51.41113281 96.11450195 C44.94883683 96.08040147 38.48733468 96.08644321 32.02500057 96.10516453 C27.06048448 96.1157248 22.0961536 96.10680571 17.13165474 96.09177971 C14.74858716 96.08659157 12.36550029 96.08708732 9.98243523 96.09332466 C6.65453243 96.0987656 3.32777262 96.07843682 0 96.05102539 C-0.98764343 96.05755127 -1.97528687 96.06407715 -2.99285889 96.07080078 C-6.87516015 96.01633541 -9.5032196 95.97189338 -12.89952087 94.00779724 C-14.88873894 90.44226221 -14.84701079 87.11756869 -14.80639648 83.140625 C-14.81340576 82.29790543 -14.82041504 81.45518585 -14.82763672 80.58692932 C-14.84523281 77.80305977 -14.83358845 75.0202079 -14.82006836 72.23632812 C-14.82276281 70.3010641 -14.82664485 68.36580139 -14.83166504 66.43054199 C-14.83756227 62.37527574 -14.82898986 58.32036199 -14.81030273 54.26513672 C-14.7875131 49.06614881 -14.80063497 43.86798684 -14.82459259 38.66902924 C-14.83904446 34.67301201 -14.83444737 30.67719072 -14.82408142 26.6811676 C-14.82141245 24.76420494 -14.82468988 22.84722451 -14.83399963 20.93028259 C-14.84415518 18.2512193 -14.82867863 15.57349478 -14.80639648 12.89453125 C-14.81449341 12.10168228 -14.82259033 11.30883331 -14.83093262 10.49195862 C-14.78084847 7.24272697 -14.49244104 4.88270298 -12.89952087 2.02636719 C-8.7493938 -0.37209311 -4.71095039 -0.03862143 0 0 Z M-10.28881836 5.51757812 C-10.28881836 7.49757813 -10.28881836 9.47757813 -10.28881836 11.51757812 C24.36118164 11.51757812 59.01118164 11.51757812 94.71118164 11.51757812 C94.71118164 12.83757813 94.71118164 14.15757813 94.71118164 15.51757812 C59.73118164 15.51757812 24.75118164 15.51757812 -11.28881836 15.51757812 C-11.28881836 36.96757813 -11.28881836 58.41757813 -11.28881836 80.51757812 C25.01118164 80.51757812 61.31118164 80.51757812 98.71118164 80.51757812 C98.73180664 68.16320312 98.75243164 55.80882812 98.77368164 43.08007812 C98.78278564 39.17365479 98.79188965 35.26723145 98.80126953 31.24243164 C98.80461317 27.75237318 98.80461317 27.75237318 98.80662537 24.26231384 C98.8081648 22.70318822 98.81168971 21.14406382 98.8167572 19.58494568 C98.82403563 17.22856566 98.82508903 14.87225864 98.82470703 12.51586914 C98.83010419 11.46732553 98.83010419 11.46732553 98.83561039 10.39759922 C99.10147441 7.17911829 99.10147441 7.17911829 97.71118164 4.51757812 C96.32207531 4.41999233 94.92805215 4.39126174 93.53552246 4.39059448 C92.63527847 4.38777466 91.73503448 4.38495483 90.80751038 4.38204956 C89.81214767 4.38407379 88.81678497 4.38609802 87.79125977 4.38818359 C86.74908798 4.38643127 85.7069162 4.38467896 84.63316345 4.38287354 C81.16956951 4.37845274 77.70602615 4.38139381 74.24243164 4.38476562 C71.84728994 4.38409265 69.4521483 4.38312268 67.05700684 4.38186646 C62.02977856 4.38038917 57.00256802 4.38254501 51.9753418 4.38720703 C45.51511473 4.39290433 39.05492921 4.38962549 32.59470367 4.38363457 C27.64666427 4.38002977 22.69863479 4.38116716 17.75059509 4.38376236 C15.36783341 4.38443185 12.98507083 4.38360243 10.60231018 4.38128281 C7.27855015 4.37875762 3.95485843 4.38259499 0.63110352 4.38818359 C-0.36425919 4.38615936 -1.35962189 4.38413513 -2.38514709 4.38204956 C-3.73551308 4.3862793 -3.73551308 4.3862793 -5.11315918 4.39059448 C-5.89999336 4.39097151 -6.68682755 4.39134853 -7.49750519 4.39173698 C-9.31231258 4.32246711 -9.31231258 4.32246711 -10.28881836 5.51757812 Z " fill="#191B17" transform="translate(43.288818359375,40.482421875)"/>
<path d="M0 0 C7.1775 -0.1546875 7.1775 -0.1546875 14.5 -0.3125 C15.99337891 -0.35802002 17.48675781 -0.40354004 19.02539062 -0.45043945 C25.77952485 -0.52083286 30.99302122 -0.48733784 36.59960938 3.52661133 C39.2650293 6.33097138 39.96328523 8.59613753 40.3125 12.4375 C39.97891826 16.24033183 39.41335465 18.06949792 37 21 C34.8125 21.8125 34.8125 21.8125 33 22 C33 22.66 33 23.32 33 24 C33.86625 24.0928125 33.86625 24.0928125 34.75 24.1875 C38.06169578 25.38339014 39.18391731 27.01643559 41 30 C41.66040699 35.18891206 40.87649011 38.63567018 38 43 C32.89394537 46.79680985 28.5060836 47.12502668 22.265625 47.09765625 C20.51427246 47.09390991 20.51427246 47.09390991 18.72753906 47.09008789 C17.24995117 47.08098389 15.77236328 47.07187988 14.25 47.0625 C9.5475 47.041875 4.845 47.02125 0 47 C0 31.49 0 15.98 0 0 Z " fill="#404040" transform="translate(359,57)"/>
<path d="M0 0 C2.77789701 1.76775264 3.69633868 2.69438218 4.75 5.75 C5.41 5.75 6.07 5.75 6.75 5.75 C6.729375 4.945625 6.70875 4.14125 6.6875 3.3125 C6.75 0.75 6.75 0.75 7.75 -0.25 C10.42058851 -0.39115161 13.07432238 -0.29247107 15.75 -0.25 C15.82442006 4.76705721 15.87872908 9.78378972 15.91479492 14.80126953 C15.92983738 16.50640463 15.95027653 18.21150132 15.97631836 19.91650391 C16.01290284 22.37412012 16.02977173 24.83122269 16.04296875 27.2890625 C16.05845261 28.04555084 16.07393646 28.80203918 16.08988953 29.58145142 C16.09139842 34.37793458 15.36485519 37.58025154 12.75 41.75 C7.11601811 47.25878229 2.54873058 48.83128016 -5.1875 49.0625 C-11.62883985 48.94277249 -15.7869686 47.9604128 -20.6875 43.5625 C-21.203125 42.964375 -21.71875 42.36625 -22.25 41.75 C-21.26 39.77 -20.27 37.79 -19.25 35.75 C-14.48966942 37.60123967 -14.48966942 37.60123967 -12.4375 38.875 C-6.97918359 41.05832656 -1.51817417 39.85726967 3.75 37.75 C4.08 35.11 4.41 32.47 4.75 29.75 C3.76 30.41 2.77 31.07 1.75 31.75 C-2.5386003 34.17587492 -5.35602613 34.371457 -10.25 33.75 C-14.45702871 31.72739004 -17.39650285 29.21765898 -19.55078125 25 C-21.32856592 19.27930744 -21.39277767 12.87683421 -19.33203125 7.23828125 C-14.99057533 -0.36277911 -8.3194463 -3.19978704 0 0 Z " fill="#424242" transform="translate(422.25,70.25)"/>
<path d="M0 0 C10.89 0 21.78 0 33 0 C33 2.97 33 5.94 33 9 C25.74 9 18.48 9 11 9 C11 12.3 11 15.6 11 19 C17.6 19 24.2 19 31 19 C31 21.64 31 24.28 31 27 C24.4 27 17.8 27 11 27 C11 30.63 11 34.26 11 38 C18.59 38 26.18 38 34 38 C34 40.97 34 43.94 34 47 C22.78 47 11.56 47 0 47 C0 31.49 0 15.98 0 0 Z " fill="#404040" transform="translate(177,57)"/>
<path d="M0 0 C3.04897147 2.90378235 3.80583848 5.9164116 3.97265625 10.03125 C4.03066406 11.29775391 4.03066406 11.29775391 4.08984375 12.58984375 C4.12078125 13.46253906 4.15171875 14.33523437 4.18359375 15.234375 C4.24160156 16.56662109 4.24160156 16.56662109 4.30078125 17.92578125 C4.39480248 20.1117748 4.48045518 22.29776562 4.55859375 24.484375 C5.87859375 24.484375 7.19859375 24.484375 8.55859375 24.484375 C9.21859375 26.134375 9.87859375 27.784375 10.55859375 29.484375 C8.0160272 32.02694155 6.0638338 32.74166171 2.55859375 32.859375 C-0.20024465 32.75128618 -1.43868529 32.4858035 -3.94140625 31.171875 C-5.44140625 29.484375 -5.44140625 29.484375 -5.44140625 26.484375 C-6.10140625 26.484375 -6.76140625 26.484375 -7.44140625 26.484375 C-7.77140625 27.474375 -8.10140625 28.464375 -8.44140625 29.484375 C-13.27632276 32.74794364 -17.78402422 33.25678509 -23.44140625 32.484375 C-26.40581638 31.22292388 -27.87885558 30.26123068 -29.75390625 27.671875 C-30.69510411 24.67715455 -30.88804983 22.61088008 -30.44140625 19.484375 C-27.24896764 15.32453075 -23.50562353 12.78219412 -18.44140625 11.484375 C-14.4471788 10.96882935 -10.46330663 10.67589407 -6.44140625 10.484375 C-7.52925593 7.23454365 -7.52925593 7.23454365 -9.44140625 4.484375 C-12.88488166 4.58300473 -12.88488166 4.58300473 -16.44140625 5.484375 C-16.93640625 6.165 -17.43140625 6.845625 -17.94140625 7.546875 C-18.43640625 8.18625 -18.93140625 8.825625 -19.44140625 9.484375 C-23.19824729 9.81980724 -25.86136852 9.67772091 -29.44140625 8.484375 C-29.35855114 5.66730129 -28.86464886 3.94994187 -26.95703125 1.8515625 C-19.08718612 -5.11022357 -8.88400217 -5.98423431 0 0 Z " fill="#434343" transform="translate(274.44140625,72.515625)"/>
<path d="M0 0 C4.07166495 2.90833211 7.01178079 6.03534238 8.625 10.875 C8.625 13.845 8.625 16.815 8.625 19.875 C0.375 19.875 -7.875 19.875 -16.375 19.875 C-13.87443407 24.85121743 -13.87443407 24.85121743 -10.375 26.875 C-4.68962422 27.33349805 -2.21081756 26.9645501 2.625 23.875 C5.72030729 24.14811535 6.95937355 25.0979157 9.625 26.875 C8.25232371 30.24300987 7.05057847 31.60165609 3.75 33.125 C-2.4986684 35.65062926 -9.40208393 36.45124637 -15.77734375 33.921875 C-20.43401512 31.18163635 -23.93588672 27.75322656 -26.375 22.875 C-27.11324639 16.01985497 -27.14809225 10.16632111 -22.91015625 4.5 C-16.62826578 -2.14953292 -8.53544783 -2.84514928 0 0 Z " fill="#414141" transform="translate(345.375,70.125)"/>
<path d="M0 0 C1.06541016 0.00837891 2.13082031 0.01675781 3.22851562 0.02539062 C4.33517578 0.05439453 5.44183594 0.08339844 6.58203125 0.11328125 C7.70029297 0.12294922 8.81855469 0.13261719 9.97070312 0.14257812 C18.22662023 0.25787023 18.22662023 0.25787023 19.39453125 1.42578125 C19.66796875 3.31640625 19.66796875 3.31640625 19.76953125 5.67578125 C19.81851563 6.4440625 19.8675 7.21234375 19.91796875 8.00390625 C19.08144296 11.87439873 17.61880547 13.15240823 14.39453125 15.42578125 C10.76802292 16.02623103 7.24496094 15.8981808 3.58203125 15.73828125 C2.1134668 15.70444336 2.1134668 15.70444336 0.61523438 15.66992188 C-1.7932433 15.61117852 -4.19855953 15.52910254 -6.60546875 15.42578125 C-6.40637215 23.99719815 -6.40637215 23.99719815 -2.60546875 31.42578125 C0.48626877 32.97165001 2.98882677 32.71937646 6.39453125 32.42578125 C9.37696797 30.07122594 11.15419381 28.06957064 11.7109375 24.26171875 C11.79214844 23.44960937 11.87335938 22.6375 11.95703125 21.80078125 C12.04082031 20.98351562 12.12460938 20.16625 12.2109375 19.32421875 C12.30181641 18.38449219 12.30181641 18.38449219 12.39453125 17.42578125 C13.38453125 17.42578125 14.37453125 17.42578125 15.39453125 17.42578125 C15.69784819 23.8403728 15.84073584 27.9118539 12.39453125 33.42578125 C12.26922124 35.27758466 12.19097879 37.13282414 12.14453125 38.98828125 C11.82397823 43.93681852 11.82397823 43.93681852 9.95703125 46.0625 C7.13508699 47.79580628 4.87777772 48.45799768 1.58203125 48.23828125 C-0.60546875 47.42578125 -0.60546875 47.42578125 -2.60546875 46.42578125 C-7.23664264 45.87445102 -10.88698249 46.74079985 -14.96875 48.87109375 C-17.22016966 51.00967377 -17.30723748 52.62431344 -17.60546875 55.67578125 C-17.64206783 57.25869153 -17.65379228 58.84318551 -17.60546875 60.42578125 C-18.59546875 60.42578125 -19.58546875 60.42578125 -20.60546875 60.42578125 C-20.71388826 58.51036987 -20.79124954 56.59318352 -20.85546875 54.67578125 C-20.901875 53.6084375 -20.94828125 52.54109375 -20.99609375 51.44140625 C-20.60546875 48.42578125 -20.60546875 48.42578125 -18.84375 46.14453125 C-16.73057066 44.52184555 -15.04478328 43.54346259 -12.54296875 42.67578125 C-11.87136719 42.4334375 -11.19976562 42.19109375 -10.5078125 41.94140625 C-8.60546875 41.42578125 -8.60546875 41.42578125 -5.60546875 41.42578125 C-5.70859375 40.20890625 -5.81171875 38.99203125 -5.91796875 37.73828125 C-5.97597656 37.05378906 -6.03398438 36.36929688 -6.09375 35.6640625 C-6.49710074 33.3003616 -6.49710074 33.3003616 -8.11035156 31.13574219 C-10.68259449 26.47344687 -10.07705831 21.57898466 -10.04296875 16.36328125 C-10.06294922 15.27466797 -10.08292969 14.18605469 -10.10351562 13.06445312 C-10.10287109 12.01708984 -10.10222656 10.96972656 -10.1015625 9.890625 C-10.10341553 8.93792725 -10.10526855 7.98522949 -10.10717773 7.00366211 C-8.98659593 1.24588923 -5.43666934 -0.08105075 0 0 Z " fill="#141512" transform="translate(84.60546875,58.57421875)"/>
<path d="M0 0 C36.3 0 72.6 0 110 0 C110 1.98 110 3.96 110 6 C108.44972055 7.55027945 106.98927957 7.12910849 104.83106995 7.13371277 C103.93227112 7.13797775 103.03347229 7.14224274 102.10743713 7.14663696 C101.11364548 7.14618378 100.11985382 7.14573059 99.09594727 7.14526367 C98.05538177 7.14862228 97.01481628 7.1519809 95.94271851 7.15544128 C92.4839358 7.16498341 89.02520132 7.16689601 85.56640625 7.16796875 C83.17366007 7.171179 80.78091409 7.17454289 78.38816833 7.17805481 C73.36513819 7.18405421 68.34212527 7.18589387 63.3190918 7.18530273 C56.86790034 7.18520105 50.4168188 7.19885608 43.96565342 7.21607494 C39.02186064 7.22716788 34.07809465 7.22922278 29.1342907 7.22869301 C26.75514281 7.22987711 24.37599431 7.23432278 21.9968586 7.24202538 C18.67564212 7.25177103 15.35466724 7.24896877 12.03344727 7.24291992 C11.04167984 7.24853943 10.04991241 7.25415894 9.02809143 7.25994873 C8.12647278 7.25575424 7.22485413 7.25155975 6.2959137 7.24723816 C5.11704511 7.24805531 5.11704511 7.24805531 3.914361 7.24888897 C2 7 2 7 0 5 C0 3.35 0 1.7 0 0 Z " fill="#D3E0C0" transform="translate(32,125)"/>
<path d="M0 0 C3.35427055 1.92537552 5.18604688 3.14100002 6.6015625 6.8046875 C6.5390625 9.0546875 6.5390625 9.0546875 5.5390625 10.0546875 C2.1640625 10.3046875 2.1640625 10.3046875 -1.4609375 10.0546875 C-2.4609375 9.0546875 -3.4609375 8.0546875 -4.4609375 7.0546875 C-8.08629726 6.8043298 -8.08629726 6.8043298 -11.4609375 7.0546875 C-11.7909375 8.3746875 -12.1209375 9.6946875 -12.4609375 11.0546875 C-11.36394531 11.29703125 -10.26695312 11.539375 -9.13671875 11.7890625 C-7.68212859 12.1269028 -6.22771031 12.46548375 -4.7734375 12.8046875 C-4.05220703 12.96195313 -3.33097656 13.11921875 -2.58789062 13.28125 C1.98128694 14.36616887 5.14422736 15.6209802 8.5390625 19.0546875 C9.88606594 23.33340432 9.92960434 25.24236047 7.9765625 29.3046875 C4.51074962 33.21483536 1.29803657 34.83281691 -3.8984375 35.48828125 C-15.89067373 35.50143063 -15.89067373 35.50143063 -20.4609375 31.0546875 C-23.31195225 28.0136051 -23.4609375 27.4290763 -23.4609375 23.0546875 C-22.02510749 22.94632297 -20.5869173 22.86892583 -19.1484375 22.8046875 C-18.34792969 22.75828125 -17.54742187 22.711875 -16.72265625 22.6640625 C-14.4609375 23.0546875 -14.4609375 23.0546875 -13.0234375 25.0546875 C-11.59973032 27.35230458 -11.59973032 27.35230458 -8.76171875 27.4453125 C-7.77558594 27.39890625 -6.78945313 27.3525 -5.7734375 27.3046875 C-4.77957031 27.26859375 -3.78570312 27.2325 -2.76171875 27.1953125 C-2.00246094 27.14890625 -1.24320312 27.1025 -0.4609375 27.0546875 C-0.4609375 25.4046875 -0.4609375 23.7546875 -0.4609375 22.0546875 C-1.55792969 21.88453125 -2.65492188 21.714375 -3.78515625 21.5390625 C-5.23971787 21.29507152 -6.69413784 21.05023505 -8.1484375 20.8046875 C-9.2302832 20.64033203 -9.2302832 20.64033203 -10.33398438 20.47265625 C-15.04032441 19.65603104 -17.95637123 18.51234753 -21.4609375 15.0546875 C-22.91241653 12.15172945 -22.83332775 10.28206971 -22.4609375 7.0546875 C-16.92849245 -0.93662201 -9.34599868 -3.59005029 0 0 Z " fill="#454545" transform="translate(308.4609375,69.9453125)"/>
<path d="M0 0 C0.33 0 0.66 0 1 0 C1 1.98 1 3.96 1 6 C3.97 6.99 6.94 7.98 10 9 C10.04898438 9.77085938 10.09796875 10.54171875 10.1484375 11.3359375 C10.22320312 12.33882812 10.29796875 13.34171875 10.375 14.375 C10.47941406 15.87160156 10.47941406 15.87160156 10.5859375 17.3984375 C10.76363964 20.15508879 10.76363964 20.15508879 13 22 C-1.85 22 -16.7 22 -32 22 C-31.34 21.67 -30.68 21.34 -30 21 C-30.04640625 20.24074219 -30.0928125 19.48148438 -30.140625 18.69921875 C-30.17671875 17.70535156 -30.2128125 16.71148437 -30.25 15.6875 C-30.29640625 14.70136719 -30.3428125 13.71523437 -30.390625 12.69921875 C-30 10 -30 10 -28.1328125 8.21875 C-23.6509606 5.65769177 -20.21615599 4.55607183 -15 5 C-13.66666667 5.66666667 -12.33333333 6.33333333 -11 7 C-7.34271006 6.63427101 -4.14766645 4.81865173 -1 3 C-0.67 2.01 -0.34 1.02 0 0 Z " fill="#D5E2C2" transform="translate(97,99)"/>
<path d="M0 0 C6.93 0.495 6.93 0.495 14 1 C16.62444498 1.05785813 19.25005398 1.08928516 21.875 1.0625 C23.63457031 1.04896484 23.63457031 1.04896484 25.4296875 1.03515625 C26.70199219 1.01775391 26.70199219 1.01775391 28 1 C28.66 2.65 29.32 4.3 30 6 C22.41 13.59 14.82 21.18 7 29 C5.68 28.34 4.36 27.68 3 27 C1.41769192 30.16461615 1.75842187 33.59079367 1.68359375 37.0703125 C1.66281265 37.86654022 1.64203156 38.66276794 1.62062073 39.48312378 C1.55515851 42.03032685 1.49625585 44.57763425 1.4375 47.125 C1.3943116 48.85027127 1.35069721 50.57553193 1.30664062 52.30078125 C1.19948055 56.53374685 1.09820377 60.76681753 1 65 C0.67 65 0.34 65 0 65 C0 43.55 0 22.1 0 0 Z " fill="#C3D0B2" transform="translate(32,56)"/>
<path d="M0 0 C3.3125 2.0625 3.3125 2.0625 6 5 C6.875 8.8125 6.875 8.8125 7 12 C4.36 12.66 1.72 13.32 -1 14 C-1.391875 13.175 -1.78375 12.35 -2.1875 11.5 C-3.74700141 8.73583949 -3.74700141 8.73583949 -6.5625 8.5625 C-9.17213728 8.79142762 -9.17213728 8.79142762 -11 11 C-11.37135915 13.52037964 -11.37135915 13.52037964 -11.4140625 16.4453125 C-11.47207031 18.05986328 -11.47207031 18.05986328 -11.53125 19.70703125 C-11.5621875 20.83496094 -11.593125 21.96289062 -11.625 23.125 C-11.68300781 24.82849609 -11.68300781 24.82849609 -11.7421875 26.56640625 C-11.83667601 29.37743956 -11.92223541 32.18846233 -12 35 C-15.3 35 -18.6 35 -22 35 C-22 23.78 -22 12.56 -22 1 C-19.36 1 -16.72 1 -14 1 C-13.34 2.32 -12.68 3.64 -12 5 C-11.38125 4.360625 -10.7625 3.72125 -10.125 3.0625 C-6.78220282 -0.18197961 -4.62268262 -0.53338646 0 0 Z " fill="#424242" transform="translate(236,69)"/>
<path d="M0 0 C5.94 0 11.88 0 18 0 C18.43705799 10.92644979 18.43705799 10.92644979 15 15 C11.24952518 17.50031654 9.44143734 17.53603554 5 17 C2.0625 15.25 2.0625 15.25 0 12 C-0.41548776 7.90371684 -0.22731958 4.13721629 0 0 Z " fill="#D3E1C1" transform="translate(79,75)"/>
<path d="M0 0 C3.30290812 2.11724879 3.88526042 3.61275391 5 7.375 C5 11.95197037 4.14594451 13.69675826 1 17 C-2.50430765 18.00123076 -4.80555863 18.35510419 -8.3125 17.3125 C-10.98347646 15.23507386 -11.80275406 13.45244741 -12.2578125 10.1015625 C-12.45355055 6.59132676 -12.33566325 4.55943875 -10.5 1.5 C-6.96932124 -0.61840725 -4.01603612 -0.79990863 0 0 Z " fill="#F8F8F8" transform="translate(424,78)"/>
<path d="M0 0 C2.41734542 -0.08117951 4.83194949 -0.14056926 7.25 -0.1875 C7.93191406 -0.21263672 8.61382812 -0.23777344 9.31640625 -0.26367188 C12.48476094 -0.30981296 14.65263483 -0.19279598 17.44921875 1.359375 C19 3 19 3 19.5625 5.4375 C19 8 19 8 16.921875 10.14453125 C13.24571586 12.4789906 11.0023372 12.41130233 6.6875 12.25 C5.43324219 12.21390625 4.17898438 12.1778125 2.88671875 12.140625 C1.93410156 12.09421875 0.98148437 12.0478125 0 12 C0 8.04 0 4.08 0 0 Z " fill="#F6F6F6" transform="translate(370,84)"/>
<path d="M0 0 C2.24893954 -0.10823773 4.49937575 -0.18569645 6.75 -0.25 C8.00296875 -0.29640625 9.2559375 -0.3428125 10.546875 -0.390625 C14 0 14 0 16.4609375 1.8515625 C18 4 18 4 17.875 6.625 C17 9 17 9 15 11 C12.41935871 11.14497985 9.95056116 11.18677545 7.375 11.125 C6.66859375 11.11597656 5.9621875 11.10695313 5.234375 11.09765625 C3.48943902 11.07407603 1.74467705 11.03820461 0 11 C0 7.37 0 3.74 0 0 Z " fill="#F6F6F6" transform="translate(370,65)"/>
<path d="M0 0 C0.99 0.33 1.98 0.66 3 1 C1.69001173 3.89673981 0.29513935 5.94811807 -1.96508789 8.17626953 C-2.5623317 8.77013458 -3.1595755 9.36399963 -3.7749176 9.9758606 C-4.41767136 10.60515472 -5.06042511 11.23444885 -5.72265625 11.8828125 C-6.71367592 12.86602982 -6.71367592 12.86602982 -7.72471619 13.86911011 C-9.83261426 15.95921627 -11.94708366 18.04250562 -14.0625 20.125 C-16.1805997 22.2154984 -18.29723182 24.30743041 -20.41099548 26.40231323 C-21.72594066 27.70498383 -23.04354942 29.00497219 -24.36402893 30.30203247 C-24.95812057 30.8895932 -25.55221222 31.47715393 -26.16430664 32.08251953 C-26.95134727 32.85718063 -26.95134727 32.85718063 -27.75428772 33.64749146 C-29.1154243 35.00001564 -29.1154243 35.00001564 -30 37 C-31.32 36.67 -32.64 36.34 -34 36 C-32.65427113 33.00056095 -31.16462899 30.91923821 -28.83544922 28.60839844 C-27.87467972 27.64785553 -27.87467972 27.64785553 -26.89450073 26.66790771 C-26.20486237 25.98859192 -25.515224 25.30927612 -24.8046875 24.609375 C-24.09724396 23.90476135 -23.38980042 23.20014771 -22.66091919 22.47418213 C-20.40360138 20.2280461 -18.13942367 17.98896991 -15.875 15.75 C-14.34199047 14.22702283 -12.80943285 12.70359061 -11.27734375 11.1796875 C-7.52345427 7.44783185 -3.76391086 3.72174649 0 0 Z " fill="#141512" transform="translate(132,59)"/>
<path d="M0 0 C0.99 0.33 1.98 0.66 3 1 C1.67545005 3.92988605 0.23486902 6.02040654 -2.02514648 8.29980469 C-2.63595566 8.92014587 -3.24676483 9.54048706 -3.87608337 10.17962646 C-4.5344368 10.83706848 -5.19279022 11.4945105 -5.87109375 12.171875 C-6.88829247 13.1955014 -6.88829247 13.1955014 -7.92604065 14.23980713 C-9.35837908 15.67788031 -10.79333459 17.11335095 -12.23071289 18.54638672 C-14.43461151 20.74711566 -16.62483523 22.96085411 -18.81445312 25.17578125 C-20.20752244 26.57112255 -21.60137616 27.96568124 -22.99609375 29.359375 C-23.65242294 30.02491394 -24.30875214 30.69045288 -24.98497009 31.37615967 C-25.59893143 31.98389221 -26.21289276 32.59162476 -26.84545898 33.21777344 C-27.38347641 33.75642029 -27.92149384 34.29506714 -28.47581482 34.85003662 C-30 36 -30 36 -33 36 C-32.4165115 32.62704442 -31.36898894 30.99994201 -28.94897461 28.60839844 C-28.30838608 27.9680365 -27.66779755 27.32767456 -27.00779724 26.66790771 C-26.31299759 25.98859192 -25.61819794 25.30927612 -24.90234375 24.609375 C-24.19348526 23.90476135 -23.48462677 23.20014771 -22.75428772 22.47418213 C-20.4889672 20.22565215 -18.21343792 17.98777762 -15.9375 15.75 C-14.39970665 14.22725292 -12.86258869 12.70382346 -11.32617188 11.1796875 C-7.55858198 7.4451719 -3.78255735 3.7193515 0 0 Z " fill="#11120F" transform="translate(70,63)"/>
<path d="M0 0 C-0.5844528 3.35700108 -1.62247924 4.99748656 -4.01928711 7.39160156 C-4.97048683 8.35214447 -4.97048683 8.35214447 -5.94090271 9.33209229 C-6.62942825 10.01140808 -7.3179538 10.69072388 -8.02734375 11.390625 C-8.73145889 12.09523865 -9.43557404 12.79985229 -10.161026 13.52581787 C-11.64957611 15.01202884 -13.14181716 16.49455089 -14.63745117 17.97363281 C-16.93390865 20.24644562 -19.21670722 22.53233604 -21.49804688 24.8203125 C-22.94452096 26.26121171 -24.3917607 27.70134279 -25.83984375 29.140625 C-26.86959572 30.17174408 -26.86959572 30.17174408 -27.92015076 31.22369385 C-28.87607872 32.16532379 -28.87607872 32.16532379 -29.85131836 33.12597656 C-30.69284706 33.96059418 -30.69284706 33.96059418 -31.55137634 34.81207275 C-33 36 -33 36 -35 36 C-34.78789189 30.33995577 -31.02204998 27.46169477 -27.2265625 23.73046875 C-26.54701508 23.04946609 -25.86746765 22.36846344 -25.16732788 21.66682434 C-23.73127951 20.23243361 -22.29028251 18.80298248 -20.84472656 17.37817383 C-18.62783899 15.19030183 -16.43027025 12.98430987 -14.234375 10.77539062 C-12.8370486 9.3842997 -11.43864712 7.99428765 -10.0390625 6.60546875 C-9.37959625 5.94306686 -8.72013 5.28066498 -8.04067993 4.59819031 C-7.42349091 3.99368546 -6.80630188 3.3891806 -6.17041016 2.76635742 C-5.62937653 2.23072678 -5.0883429 1.69509613 -4.53091431 1.14323425 C-3 0 -3 0 0 0 Z " fill="#121310" transform="translate(72,78)"/>
<path d="M0 0 C0.82741699 0.01047363 1.65483398 0.02094727 2.50732422 0.03173828 C3.40322266 0.03818359 4.29912109 0.04462891 5.22216797 0.05126953 C6.62789062 0.07640625 6.62789062 0.07640625 8.06201172 0.10205078 C9.00689453 0.11107422 9.95177734 0.12009766 10.92529297 0.12939453 C13.26278464 0.15300556 15.59977295 0.18593562 17.93701172 0.22705078 C17.97955528 2.22659824 17.97781955 4.22746714 17.93701172 6.22705078 C16.93701172 7.22705078 16.93701172 7.22705078 14.89575195 7.34057617 C14.02120361 7.33533936 13.14665527 7.33010254 12.24560547 7.32470703 C11.30136719 7.32148437 10.35712891 7.31826172 9.38427734 7.31494141 C8.39105469 7.3065625 7.39783203 7.29818359 6.37451172 7.28955078 C5.37742187 7.28503906 4.38033203 7.28052734 3.35302734 7.27587891 C0.88096323 7.26405085 -1.59098346 7.24756927 -4.06298828 7.22705078 C-4.18798828 4.85205078 -4.18798828 4.85205078 -4.06298828 2.22705078 C-2.06298828 0.22705078 -2.06298828 0.22705078 0 0 Z " fill="#D1DEBE" transform="translate(82.06298828125,62.77294921875)"/>
<path d="M0 0 C-0.35191488 5.13001847 -3.1849002 7.75184238 -6.6796875 11.17578125 C-7.2482547 11.74580368 -7.8168219 12.31582611 -8.40261841 12.90312195 C-9.60327594 14.1021233 -10.80887564 15.29619342 -12.01904297 16.4855957 C-13.87383535 18.31135358 -15.70916953 20.15513605 -17.54296875 22.00195312 C-18.71243097 23.16518022 -19.88296794 24.32732801 -21.0546875 25.48828125 C-21.60478485 26.04131424 -22.1548822 26.59434723 -22.72164917 27.16413879 C-26.65397077 31 -26.65397077 31 -30 31 C-29.13189696 26.36123386 -26.32732294 23.91218661 -23.06640625 20.703125 C-22.47327133 20.10949158 -21.88013641 19.51585815 -21.26902771 18.90423584 C-20.01586931 17.65341498 -18.75902365 16.40627889 -17.4987793 15.16259766 C-15.56444041 13.25191667 -13.64382956 11.32819803 -11.72460938 9.40234375 C-10.5059997 8.18930865 -9.28662453 6.97704196 -8.06640625 5.765625 C-7.48927383 5.18758118 -6.91214142 4.60953735 -6.31752014 4.01397705 C-2.23103041 0 -2.23103041 0 0 0 Z " fill="#0F100E" transform="translate(138,70)"/>
<path d="M0 0 C0.495 0.99 0.495 0.99 1 2 C0.32904297 2.56267578 0.32904297 2.56267578 -0.35546875 3.13671875 C-4.07368722 6.2841233 -7.607181 9.5043683 -11 13 C-11.99 12.67 -12.98 12.34 -14 12 C-14.33 9.03 -14.66 6.06 -15 3 C-22.26 2.67 -29.52 2.34 -37 2 C-37 1.67 -37 1.34 -37 1 C-24.65822514 0.36405271 -12.36008863 -0.17327227 0 0 Z " fill="#D5E2C2" transform="translate(118,57)"/>
<path d="M0 0 C-0.73777593 6.3940581 -6.52058076 10.53561728 -11.171875 14.34765625 C-13.84099434 16.7601295 -16.01572824 19.53233494 -18.2265625 22.36328125 C-20.41634795 24.38425064 -22.08273733 24.65649979 -25 25 C-24.47679149 20.85982832 -22.29215749 18.90510444 -19.4140625 16.015625 C-18.48335938 15.08105469 -17.55265625 14.14648438 -16.59375 13.18359375 C-16.10648438 12.7026123 -15.61921875 12.22163086 -15.1171875 11.72607422 C-13.62656598 10.25154907 -12.15265935 8.7616645 -10.6796875 7.26953125 C-9.27976563 5.87541016 -9.27976563 5.87541016 -7.8515625 4.453125 C-6.99385254 3.59879883 -6.13614258 2.74447266 -5.25244141 1.86425781 C-3 0 -3 0 0 0 Z " fill="#1E201B" transform="translate(138,85)"/>
<path d="M0 0 C-0.46288603 4.28500208 -3.18638443 6.57085413 -6.12890625 9.421875 C-6.63800034 9.92672424 -7.14709442 10.43157349 -7.6716156 10.95172119 C-9.2949912 12.55833979 -10.928497 14.15419822 -12.5625 15.75 C-13.6667005 16.83914984 -14.77022445 17.92898605 -15.87304688 19.01953125 C-18.5742529 21.6877076 -21.28459063 24.34628291 -24 27 C-24.99 26.67 -25.98 26.34 -27 26 C-24.67876053 20.39503598 -19.83886786 16.50506371 -15.61450195 12.29882812 C-14.06240485 10.74990505 -12.52413858 9.1880929 -10.98632812 7.625 C-10.00341511 6.63981526 -9.01971763 5.65541242 -8.03515625 4.671875 C-7.1419165 3.7756543 -6.24867676 2.87943359 -5.32836914 1.95605469 C-3 0 -3 0 0 0 Z " fill="#10110E" transform="translate(74,91)"/>
<path d="M0 0 C0.99 0.33 1.98 0.66 3 1 C1.43717018 4.76603869 -0.9063475 7.13639151 -3.7890625 9.984375 C-4.25234955 10.44483215 -4.7156366 10.90528931 -5.19296265 11.37969971 C-6.66565898 12.84125078 -8.14517403 14.29567168 -9.625 15.75 C-10.62806322 16.74302611 -11.63067257 17.73651089 -12.6328125 18.73046875 C-15.08330835 21.15897941 -17.5399667 23.58114675 -20 26 C-20.99 25.67 -21.98 25.34 -23 25 C-21.43717018 21.23396131 -19.0936525 18.86360849 -16.2109375 16.015625 C-15.74765045 15.55516785 -15.2843634 15.09471069 -14.80703735 14.62030029 C-13.33434102 13.15874922 -11.85482597 11.70432832 -10.375 10.25 C-9.37193678 9.25697389 -8.36932743 8.26348911 -7.3671875 7.26953125 C-4.91669165 4.84102059 -2.4600333 2.41885325 0 0 Z " fill="#131411" transform="translate(59,59)"/>
<path d="M0 0 C-0.48219178 5.42465753 -0.48219178 5.42465753 -2.6875 7.875 C-5.66754431 9.32475128 -7.72206555 9.34871643 -11 9 C-11.99 8.34 -12.98 7.68 -14 7 C-13.42655063 4.13275314 -13.1385485 3.1385485 -11 1 C-7.25370961 0.30624252 -3.81446899 0 0 0 Z " fill="#F6F6F6" transform="translate(268,89)"/>
<path d="M0 0 C2.375 1.75 2.375 1.75 4 4 C4 5.32 4 6.64 4 8 C-0.95 8 -5.9 8 -11 8 C-8.43343099 1.58357748 -7.25894985 -1.03699284 0 0 Z " fill="#F6F6F6" transform="translate(340,76)"/>
<path d="M0 0 C-0.27927613 5.49243063 -3.59304529 8.18996919 -7.3125 11.8125 C-7.89451172 12.40998047 -8.47652344 13.00746094 -9.07617188 13.62304688 C-9.64529297 14.18701172 -10.21441406 14.75097656 -10.80078125 15.33203125 C-11.57675659 16.10123901 -11.57675659 16.10123901 -12.3684082 16.88598633 C-14 18 -14 18 -18 18 C-17.43796041 14.62776245 -16.57519796 13.30844688 -13.875 11.25 C-10.27671143 8.36248448 -7.45804293 5.13223113 -4.578125 1.5390625 C-3 0 -3 0 0 0 Z " fill="#20221D" transform="translate(120,59)"/>
<path d="M0 0 C-0.58363355 3.49794254 -1.79184076 5.17637761 -4.2734375 7.671875 C-4.9334375 8.33574219 -5.5934375 8.99960938 -6.2734375 9.68359375 C-6.96695313 10.36550781 -7.66046875 11.04742187 -8.375 11.75 C-9.06078125 12.44738281 -9.7465625 13.14476563 -10.453125 13.86328125 C-11.11570312 14.52199219 -11.77828125 15.18070313 -12.4609375 15.859375 C-13.06728027 16.46233398 -13.67362305 17.06529297 -14.29833984 17.68652344 C-16 19 -16 19 -19 19 C-18.41636645 15.50205746 -17.20815924 13.82362239 -14.7265625 11.328125 C-14.0665625 10.66425781 -13.4065625 10.00039062 -12.7265625 9.31640625 C-12.03304687 8.63449219 -11.33953125 7.95257813 -10.625 7.25 C-9.93921875 6.55261719 -9.2534375 5.85523437 -8.546875 5.13671875 C-7.88429687 4.47800781 -7.22171875 3.81929688 -6.5390625 3.140625 C-5.62954834 2.23618652 -5.62954834 2.23618652 -4.70166016 1.31347656 C-3 0 -3 0 0 0 Z " fill="#0F100D" transform="translate(138,100)"/>
<path d="M0 0 C4.68691225 0.5449898 8.57102408 1.57102408 12 5 C12.07244053 7.01964199 12.08377188 9.04167124 12.0625 11.0625 C12.05347656 12.16722656 12.04445313 13.27195312 12.03515625 14.41015625 C12.02355469 15.26480469 12.01195313 16.11945313 12 17 C10.68 17 9.36 17 8 17 C8 13.37 8 9.74 8 6 C5.69 5.34 3.38 4.68 1 4 C0.67 2.68 0.34 1.36 0 0 Z " fill="#1E201B" transform="translate(99,102)"/>
<path d="M0 0 C-0.5 2.25 -0.5 2.25 -2 5 C-3.87890625 5.87109375 -3.87890625 5.87109375 -6.0625 6.6875 C-8.25692351 7.5294156 -8.25692351 7.5294156 -10 9 C-11.01000169 12.34728308 -11.10625564 15.52012781 -11 19 C-11.99 19 -12.98 19 -14 19 C-14.10841951 17.08458862 -14.18578079 15.16740227 -14.25 13.25 C-14.29640625 12.18265625 -14.3428125 11.1153125 -14.390625 10.015625 C-14 7 -14 7 -12.2421875 4.71875 C-10.10821639 3.08295333 -8.40367242 2.11532516 -5.875 1.25 C-5.19179687 1.00765625 -4.50859375 0.7653125 -3.8046875 0.515625 C-2 0 -2 0 0 0 Z " fill="#151714" transform="translate(78,100)"/>
<path d="M0 0 C0.99 0 1.98 0 3 0 C2.625 1.9375 2.625 1.9375 2 4 C1.01 4.495 1.01 4.495 0 5 C-0.69093896 7.57951874 -0.69093896 7.57951874 -1.125 10.5625 C-1.29257813 11.57441406 -1.46015625 12.58632812 -1.6328125 13.62890625 C-1.75398438 14.41136719 -1.87515625 15.19382812 -2 16 C-2.33 16 -2.66 16 -3 16 C-3 13.03 -3 10.06 -3 7 C-9.93 6.67 -16.86 6.34 -24 6 C-24 9.3 -24 12.6 -24 16 C-24.33 16 -24.66 16 -25 16 C-25 12.37 -25 8.74 -25 5 C-22.79570313 4.96132812 -22.79570313 4.96132812 -20.546875 4.921875 C-18.61455364 4.8655938 -16.68226312 4.80824646 -14.75 4.75 C-13.78191406 4.73582031 -12.81382813 4.72164063 -11.81640625 4.70703125 C-6.21451131 4.64963773 -6.21451131 4.64963773 -1.515625 1.953125 C-1.01546875 1.30859375 -0.5153125 0.6640625 0 0 Z " fill="#BAC6A9" transform="translate(103,69)"/>
<path d="M0 0 C0.1875 2.875 0.1875 2.875 0 6 C-3 8 -3 8 -5.5625 7.6875 C-8 7 -8 7 -10 6 C-10 4.35 -10 2.7 -10 1 C-8.5209084 0.83266843 -7.04172444 0.66615314 -5.5625 0.5 C-4.32693359 0.36078125 -4.32693359 0.36078125 -3.06640625 0.21875 C-1 0 -1 0 0 0 Z " fill="#C6D3B4" transform="translate(92,95)"/>
<path d="M0 0 C-0.27056462 4.59959851 -2.25603163 6.724022 -5.33203125 9.86328125 C-7 11 -7 11 -11 11 C-10.42073787 7.46180427 -9.15676523 5.74971757 -6.625 3.25 C-6.01914062 2.63640625 -5.41328125 2.0228125 -4.7890625 1.390625 C-3 0 -3 0 0 0 Z " fill="#292C26" transform="translate(47,59)"/>
<path d="M0 0 C-0.33 1.65 -0.66 3.3 -1 5 C-2.32 5 -3.64 5 -5 5 C-5 4.01 -5 3.02 -5 2 C-2 0 -2 0 0 0 Z " fill="#1F211C" transform="translate(138,114)"/>
</svg>
